<?xml version="1.0" encoding="utf-8" standalone="no"?>
<!DOCTYPE svg PUBLIC "-//W3C//DTD SVG 1.1//EN"
  "http://www.w3.org/Graphics/SVG/1.1/DTD/svg11.dtd">
<svg xmlns:xlink="http://www.w3.org/1999/xlink" width="1064.377969pt" height="338.06725pt" viewBox="0 0 1064.377969 338.06725" xmlns="http://www.w3.org/2000/svg" version="1.1">
 <metadata>
  <rdf:RDF xmlns:dc="http://purl.org/dc/elements/1.1/" xmlns:cc="http://creativecommons.org/ns#" xmlns:rdf="http://www.w3.org/1999/02/22-rdf-syntax-ns#">
   <cc:Work>
    <dc:type rdf:resource="http://purl.org/dc/dcmitype/StillImage"/>
    <dc:date>2026-03-07T14:16:04.618940</dc:date>
    <dc:format>image/svg+xml</dc:format>
    <dc:creator>
     <cc:Agent>
      <dc:title>Matplotlib v3.8.0, https://matplotlib.org/</dc:title>
     </cc:Agent>
    </dc:creator>
   </cc:Work>
  </rdf:RDF>
 </metadata>
 <defs>
  <style type="text/css">*{stroke-linejoin: round; stroke-linecap: butt}</style>
 </defs>
 <g id="figure_1">
  <g id="patch_1">
   <path d="M 0 338.06725 
L 1064.377969 338.06725 
L 1064.377969 0 
L 0 0 
z
" style="fill: #ffffff"/>
  </g>
  <g id="axes_1">
   <g id="patch_2">
    <path d="M 43.417969 306 
L 325.017969 306 
L 325.017969 43.2 
L 43.417969 43.2 
z
" style="fill: #ffffff"/>
   </g>
   <g id="patch_3">
    <path d="M 56.217969 306 
L 87.248272 306 
L 87.248272 75.737143 
L 56.217969 75.737143 
z
" clip-path="url(#pa91866997d)" style="fill: #10b981; opacity: 0.9; stroke: #ffffff; stroke-linejoin: miter"/>
   </g>
   <g id="patch_4">
    <path d="M 153.187666 306 
L 184.217969 306 
L 184.217969 75.737143 
L 153.187666 75.737143 
z
" clip-path="url(#pa91866997d)" style="fill: #10b981; opacity: 0.9; stroke: #ffffff; stroke-linejoin: miter"/>
   </g>
   <g id="patch_5">
    <path d="M 250.157363 306 
L 281.187666 306 
L 281.187666 58.217143 
L 250.157363 58.217143 
z
" clip-path="url(#pa91866997d)" style="fill: #10b981; opacity: 0.9; stroke: #ffffff; stroke-linejoin: miter"/>
   </g>
   <g id="patch_6">
    <path d="M 87.248272 306 
L 118.278575 306 
L 118.278575 68.228571 
L 87.248272 68.228571 
z
" clip-path="url(#pa91866997d)" style="fill: #3b82f6; opacity: 0.9; stroke: #ffffff; stroke-linejoin: miter"/>
   </g>
   <g id="patch_7">
    <path d="M 184.217969 306 
L 215.248272 306 
L 215.248272 130.8 
L 184.217969 130.8 
z
" clip-path="url(#pa91866997d)" style="fill: #3b82f6; opacity: 0.9; stroke: #ffffff; stroke-linejoin: miter"/>
   </g>
   <g id="patch_8">
    <path d="M 281.187666 306 
L 312.217969 306 
L 312.217969 93.257143 
L 281.187666 93.257143 
z
" clip-path="url(#pa91866997d)" style="fill: #3b82f6; opacity: 0.9; stroke: #ffffff; stroke-linejoin: miter"/>
   </g>
   <g id="matplotlib.axis_1">
    <g id="xtick_1">
     <g id="line2d_1">
      <path d="M 87.248272 306 
L 87.248272 43.2 
" clip-path="url(#pa91866997d)" style="fill: none; stroke: #f0f0f0; stroke-width: 0.8; stroke-linecap: square"/>
     </g>
     <g id="line2d_2">
      <defs>
       <path id="m138bcc375e" d="M 0 0 
L 0 3.5 
" style="stroke: #000000; stroke-width: 0.8"/>
      </defs>
      <g>
       <use xlink:href="#m138bcc375e" x="87.248272" y="306" style="stroke: #000000; stroke-width: 0.8"/>
      </g>
     </g>
     <g id="text_1">
      <!-- Single Tool -->
      <g style="fill: #1f2937" transform="translate(65.333272 319.578437) scale(0.09 -0.09)">
       <defs>
        <path id="HelveticaNeue-53" d="M 3142 3232 
L 3718 3232 
Q 3706 3610 3574 3882 
Q 3443 4154 3216 4333 
Q 2989 4512 2688 4595 
Q 2387 4678 2035 4678 
Q 1722 4678 1424 4598 
Q 1126 4518 892 4355 
Q 659 4192 518 3939 
Q 378 3686 378 3341 
Q 378 3027 502 2819 
Q 627 2611 835 2480 
Q 1043 2349 1305 2269 
Q 1568 2189 1840 2128 
Q 2112 2067 2374 2009 
Q 2637 1952 2845 1859 
Q 3053 1766 3177 1619 
Q 3302 1472 3302 1235 
Q 3302 986 3200 826 
Q 3098 666 2931 573 
Q 2765 480 2557 441 
Q 2349 403 2144 403 
Q 1888 403 1645 467 
Q 1402 531 1219 665 
Q 1037 800 925 1008 
Q 813 1216 813 1504 
L 237 1504 
Q 237 1088 387 784 
Q 538 480 797 285 
Q 1056 90 1398 -6 
Q 1741 -102 2125 -102 
Q 2438 -102 2755 -28 
Q 3072 45 3328 208 
Q 3584 371 3747 630 
Q 3910 890 3910 1254 
Q 3910 1594 3785 1818 
Q 3661 2042 3453 2189 
Q 3245 2336 2982 2422 
Q 2720 2509 2448 2573 
Q 2176 2637 1913 2691 
Q 1651 2746 1443 2829 
Q 1235 2912 1110 3043 
Q 986 3174 986 3386 
Q 986 3610 1072 3760 
Q 1158 3910 1302 4000 
Q 1446 4090 1632 4128 
Q 1818 4166 2010 4166 
Q 2483 4166 2787 3945 
Q 3091 3725 3142 3232 
z
" transform="scale(0.015625)"/>
        <path id="HelveticaNeue-69" d="M 986 3904 
L 986 4570 
L 442 4570 
L 442 3904 
L 986 3904 
z
M 442 3309 
L 442 0 
L 986 0 
L 986 3309 
L 442 3309 
z
" transform="scale(0.015625)"/>
        <path id="HelveticaNeue-6e" d="M 410 3309 
L 410 0 
L 954 0 
L 954 1869 
Q 954 2093 1014 2281 
Q 1075 2470 1196 2611 
Q 1318 2752 1500 2829 
Q 1683 2906 1933 2906 
Q 2246 2906 2425 2726 
Q 2605 2547 2605 2240 
L 2605 0 
L 3149 0 
L 3149 2176 
Q 3149 2445 3094 2665 
Q 3040 2886 2905 3046 
Q 2771 3206 2553 3296 
Q 2336 3386 2010 3386 
Q 1274 3386 934 2784 
L 922 2784 
L 922 3309 
L 410 3309 
z
" transform="scale(0.015625)"/>
        <path id="HelveticaNeue-67" d="M 3264 282 
L 3264 3309 
L 2752 3309 
L 2752 2835 
L 2746 2835 
Q 2598 3110 2336 3248 
Q 2074 3386 1760 3386 
Q 1331 3386 1036 3222 
Q 742 3059 563 2806 
Q 384 2554 307 2243 
Q 230 1933 230 1638 
Q 230 1299 323 995 
Q 416 691 601 464 
Q 787 237 1062 102 
Q 1338 -32 1709 -32 
Q 2029 -32 2313 112 
Q 2598 256 2739 563 
L 2752 563 
L 2752 346 
Q 2752 70 2697 -160 
Q 2643 -390 2521 -553 
Q 2400 -717 2214 -809 
Q 2029 -902 1760 -902 
Q 1626 -902 1478 -873 
Q 1331 -845 1206 -781 
Q 1082 -717 995 -614 
Q 909 -512 902 -365 
L 358 -365 
Q 371 -634 499 -819 
Q 627 -1005 822 -1120 
Q 1018 -1235 1258 -1286 
Q 1498 -1338 1728 -1338 
Q 2522 -1338 2893 -934 
Q 3264 -531 3264 282 
z
M 1741 442 
Q 1472 442 1293 554 
Q 1114 666 1005 848 
Q 896 1030 851 1254 
Q 806 1478 806 1702 
Q 806 1939 860 2156 
Q 915 2374 1033 2540 
Q 1152 2707 1337 2806 
Q 1523 2906 1786 2906 
Q 2042 2906 2221 2803 
Q 2400 2701 2512 2531 
Q 2624 2362 2675 2150 
Q 2726 1939 2726 1722 
Q 2726 1491 2672 1260 
Q 2618 1030 2502 848 
Q 2387 666 2198 554 
Q 2010 442 1741 442 
z
" transform="scale(0.015625)"/>
        <path id="HelveticaNeue-6c" d="M 442 4570 
L 442 0 
L 986 0 
L 986 4570 
L 442 4570 
z
" transform="scale(0.015625)"/>
        <path id="HelveticaNeue-65" d="M 2707 1971 
L 806 1971 
Q 819 2163 889 2332 
Q 960 2502 1081 2630 
Q 1203 2758 1372 2832 
Q 1542 2906 1754 2906 
Q 1958 2906 2128 2832 
Q 2298 2758 2422 2633 
Q 2547 2509 2620 2336 
Q 2694 2163 2707 1971 
z
M 3232 1050 
L 2694 1050 
Q 2624 723 2403 563 
Q 2182 403 1837 403 
Q 1568 403 1369 492 
Q 1171 582 1043 732 
Q 915 883 857 1078 
Q 800 1274 806 1491 
L 3283 1491 
Q 3296 1792 3229 2125 
Q 3162 2458 2986 2739 
Q 2810 3021 2518 3203 
Q 2227 3386 1786 3386 
Q 1446 3386 1161 3258 
Q 877 3130 669 2899 
Q 461 2669 345 2355 
Q 230 2042 230 1664 
Q 243 1286 342 966 
Q 442 646 640 416 
Q 838 186 1129 58 
Q 1421 -70 1818 -70 
Q 2381 -70 2752 211 
Q 3123 493 3232 1050 
z
" transform="scale(0.015625)"/>
        <path id="HelveticaNeue-20" transform="scale(0.015625)"/>
        <path id="HelveticaNeue-54" d="M 1536 4058 
L 1536 0 
L 2144 0 
L 2144 4058 
L 3667 4058 
L 3667 4570 
L 13 4570 
L 13 4058 
L 1536 4058 
z
" transform="scale(0.015625)"/>
        <path id="HelveticaNeue-6f" d="M 806 1651 
Q 806 1952 886 2185 
Q 966 2419 1107 2579 
Q 1248 2739 1437 2822 
Q 1626 2906 1837 2906 
Q 2048 2906 2237 2822 
Q 2426 2739 2566 2579 
Q 2707 2419 2787 2185 
Q 2867 1952 2867 1651 
Q 2867 1350 2787 1116 
Q 2707 883 2566 726 
Q 2426 570 2237 486 
Q 2048 403 1837 403 
Q 1626 403 1437 486 
Q 1248 570 1107 726 
Q 966 883 886 1116 
Q 806 1350 806 1651 
z
M 230 1651 
Q 230 1286 332 972 
Q 435 659 640 425 
Q 845 192 1145 61 
Q 1446 -70 1837 -70 
Q 2234 -70 2531 61 
Q 2829 192 3033 425 
Q 3238 659 3340 972 
Q 3443 1286 3443 1651 
Q 3443 2016 3340 2333 
Q 3238 2650 3033 2883 
Q 2829 3117 2531 3251 
Q 2234 3386 1837 3386 
Q 1446 3386 1145 3251 
Q 845 3117 640 2883 
Q 435 2650 332 2333 
Q 230 2016 230 1651 
z
" transform="scale(0.015625)"/>
       </defs>
       <use xlink:href="#HelveticaNeue-53"/>
       <use xlink:href="#HelveticaNeue-69" x="64.799988"/>
       <use xlink:href="#HelveticaNeue-6e" x="86.999985"/>
       <use xlink:href="#HelveticaNeue-67" x="142.599976"/>
       <use xlink:href="#HelveticaNeue-6c" x="199.999969"/>
       <use xlink:href="#HelveticaNeue-65" x="222.199966"/>
       <use xlink:href="#HelveticaNeue-20" x="275.899963"/>
       <use xlink:href="#HelveticaNeue-54" x="303.699951"/>
       <use xlink:href="#HelveticaNeue-6f" x="349.974945"/>
       <use xlink:href="#HelveticaNeue-6f" x="407.374939"/>
       <use xlink:href="#HelveticaNeue-6c" x="464.774933"/>
      </g>
     </g>
    </g>
    <g id="xtick_2">
     <g id="line2d_3">
      <path d="M 184.217969 306 
L 184.217969 43.2 
" clip-path="url(#pa91866997d)" style="fill: none; stroke: #f0f0f0; stroke-width: 0.8; stroke-linecap: square"/>
     </g>
     <g id="line2d_4">
      <g>
       <use xlink:href="#m138bcc375e" x="184.217969" y="306" style="stroke: #000000; stroke-width: 0.8"/>
      </g>
     </g>
     <g id="text_2">
      <!-- Multi-Tool -->
      <g style="fill: #1f2937" transform="translate(164.382109 319.426562) scale(0.09 -0.09)">
       <defs>
        <path id="HelveticaNeue-4d" d="M 512 4570 
L 512 0 
L 1088 0 
L 1088 3802 
L 1101 3802 
L 2528 0 
L 3046 0 
L 4474 3802 
L 4486 3802 
L 4486 0 
L 5062 0 
L 5062 4570 
L 4230 4570 
L 2784 730 
L 1344 4570 
L 512 4570 
z
" transform="scale(0.015625)"/>
        <path id="HelveticaNeue-75" d="M 3149 0 
L 3149 3309 
L 2605 3309 
L 2605 1440 
Q 2605 1216 2544 1027 
Q 2483 838 2361 697 
Q 2240 557 2057 480 
Q 1875 403 1626 403 
Q 1312 403 1133 582 
Q 954 762 954 1069 
L 954 3309 
L 410 3309 
L 410 1133 
Q 410 864 464 643 
Q 518 422 652 262 
Q 787 102 1004 16 
Q 1222 -70 1549 -70 
Q 1914 -70 2182 74 
Q 2451 218 2624 525 
L 2637 525 
L 2637 0 
L 3149 0 
z
" transform="scale(0.015625)"/>
        <path id="HelveticaNeue-74" d="M 1165 3309 
L 1165 4301 
L 621 4301 
L 621 3309 
L 58 3309 
L 58 2829 
L 621 2829 
L 621 723 
Q 621 493 665 352 
Q 710 211 803 134 
Q 896 58 1046 29 
Q 1197 0 1408 0 
L 1824 0 
L 1824 480 
L 1574 480 
Q 1446 480 1366 489 
Q 1286 499 1241 531 
Q 1197 563 1181 620 
Q 1165 678 1165 774 
L 1165 2829 
L 1824 2829 
L 1824 3309 
L 1165 3309 
z
" transform="scale(0.015625)"/>
        <path id="HelveticaNeue-2d" d="M 320 2035 
L 320 1523 
L 2170 1523 
L 2170 2035 
L 320 2035 
z
" transform="scale(0.015625)"/>
       </defs>
       <use xlink:href="#HelveticaNeue-4d"/>
       <use xlink:href="#HelveticaNeue-75" x="87.099991"/>
       <use xlink:href="#HelveticaNeue-6c" x="142.699982"/>
       <use xlink:href="#HelveticaNeue-74" x="164.899979"/>
       <use xlink:href="#HelveticaNeue-69" x="196.399963"/>
       <use xlink:href="#HelveticaNeue-2d" x="218.59996"/>
       <use xlink:href="#HelveticaNeue-54" x="257.499954"/>
       <use xlink:href="#HelveticaNeue-6f" x="303.774948"/>
       <use xlink:href="#HelveticaNeue-6f" x="361.174942"/>
       <use xlink:href="#HelveticaNeue-6c" x="418.574936"/>
      </g>
      <!-- (3-5 tools) -->
      <g style="fill: #1f2937" transform="translate(164.048125 329.093969) scale(0.09 -0.09)">
       <defs>
        <path id="HelveticaNeue-28" d="M 1306 -1261 
L 1722 -1261 
Q 1267 -525 1072 198 
Q 877 922 877 1728 
Q 877 2515 1069 3232 
Q 1261 3949 1722 4678 
L 1306 4678 
Q 806 4019 553 3251 
Q 301 2483 301 1728 
Q 301 1306 371 922 
Q 442 538 573 173 
Q 704 -192 889 -547 
Q 1075 -902 1306 -1261 
z
" transform="scale(0.015625)"/>
        <path id="HelveticaNeue-33" d="M 1395 2592 
L 1395 2131 
Q 1549 2150 1722 2150 
Q 1926 2150 2102 2096 
Q 2278 2042 2406 1930 
Q 2534 1818 2611 1654 
Q 2688 1491 2688 1280 
Q 2688 1075 2608 912 
Q 2528 749 2393 637 
Q 2259 525 2080 464 
Q 1901 403 1702 403 
Q 1235 403 992 681 
Q 749 960 736 1402 
L 192 1402 
Q 186 1050 291 774 
Q 397 499 595 310 
Q 794 122 1075 26 
Q 1357 -70 1702 -70 
Q 2022 -70 2307 16 
Q 2592 102 2803 275 
Q 3014 448 3139 707 
Q 3264 966 3264 1306 
Q 3264 1715 3062 2016 
Q 2861 2317 2445 2406 
L 2445 2419 
Q 2714 2541 2893 2777 
Q 3072 3014 3072 3322 
Q 3072 3635 2966 3865 
Q 2861 4096 2675 4243 
Q 2490 4390 2237 4464 
Q 1984 4538 1690 4538 
Q 1350 4538 1091 4429 
Q 832 4320 659 4128 
Q 486 3936 393 3667 
Q 301 3398 288 3072 
L 832 3072 
Q 832 3270 883 3449 
Q 934 3629 1040 3763 
Q 1146 3898 1309 3978 
Q 1472 4058 1690 4058 
Q 2035 4058 2265 3875 
Q 2496 3693 2496 3328 
Q 2496 3149 2425 3008 
Q 2355 2867 2236 2774 
Q 2118 2682 1961 2634 
Q 1805 2586 1632 2586 
L 1517 2586 
Q 1485 2586 1453 2586 
Q 1427 2586 1395 2592 
z
" transform="scale(0.015625)"/>
        <path id="HelveticaNeue-35" d="M 3008 3981 
L 3008 4461 
L 768 4461 
L 346 2106 
L 813 2080 
Q 973 2272 1181 2390 
Q 1389 2509 1658 2509 
Q 1888 2509 2077 2432 
Q 2266 2355 2400 2217 
Q 2534 2080 2608 1891 
Q 2682 1702 2682 1478 
Q 2682 1210 2605 1008 
Q 2528 806 2397 672 
Q 2266 538 2090 470 
Q 1914 403 1722 403 
Q 1517 403 1347 464 
Q 1178 525 1053 637 
Q 928 749 854 899 
Q 781 1050 768 1222 
L 224 1222 
Q 230 915 345 672 
Q 461 429 659 265 
Q 858 102 1117 16 
Q 1376 -70 1670 -70 
Q 2067 -70 2364 54 
Q 2662 179 2860 390 
Q 3059 602 3158 874 
Q 3258 1146 3258 1434 
Q 3258 1824 3142 2115 
Q 3027 2406 2828 2601 
Q 2630 2797 2361 2893 
Q 2093 2989 1792 2989 
Q 1562 2989 1328 2909 
Q 1094 2829 947 2662 
L 934 2675 
L 1178 3981 
L 3008 3981 
z
" transform="scale(0.015625)"/>
        <path id="HelveticaNeue-73" d="M 742 1043 
L 198 1043 
Q 211 736 326 521 
Q 442 307 634 176 
Q 826 45 1075 -12 
Q 1325 -70 1600 -70 
Q 1850 -70 2102 -22 
Q 2355 26 2556 147 
Q 2758 269 2883 467 
Q 3008 666 3008 966 
Q 3008 1203 2915 1363 
Q 2822 1523 2672 1628 
Q 2522 1734 2326 1798 
Q 2131 1862 1926 1907 
Q 1734 1952 1542 1993 
Q 1350 2035 1196 2096 
Q 1043 2157 944 2249 
Q 845 2342 845 2483 
Q 845 2611 909 2691 
Q 973 2771 1075 2819 
Q 1178 2867 1302 2886 
Q 1427 2906 1549 2906 
Q 1683 2906 1814 2877 
Q 1946 2848 2054 2784 
Q 2163 2720 2233 2614 
Q 2304 2509 2317 2349 
L 2861 2349 
Q 2842 2650 2733 2851 
Q 2624 3053 2441 3171 
Q 2259 3290 2022 3338 
Q 1786 3386 1504 3386 
Q 1286 3386 1065 3331 
Q 845 3277 669 3165 
Q 493 3053 381 2873 
Q 269 2694 269 2445 
Q 269 2125 429 1945 
Q 589 1766 829 1667 
Q 1069 1568 1350 1513 
Q 1632 1459 1872 1392 
Q 2112 1325 2272 1216 
Q 2432 1107 2432 896 
Q 2432 742 2355 643 
Q 2278 544 2160 493 
Q 2042 442 1901 422 
Q 1760 403 1632 403 
Q 1466 403 1309 435 
Q 1152 467 1027 540 
Q 902 614 825 739 
Q 749 864 742 1043 
z
" transform="scale(0.015625)"/>
        <path id="HelveticaNeue-29" d="M -58 -1261 
L 352 -1261 
Q 851 -602 1104 163 
Q 1357 928 1357 1683 
Q 1357 2106 1286 2490 
Q 1216 2874 1085 3242 
Q 954 3610 768 3965 
Q 582 4320 352 4678 
L -58 4678 
Q 390 3942 585 3216 
Q 781 2490 781 1683 
Q 781 902 589 182 
Q 397 -538 -58 -1261 
z
" transform="scale(0.015625)"/>
       </defs>
       <use xlink:href="#HelveticaNeue-28"/>
       <use xlink:href="#HelveticaNeue-33" x="25.899994"/>
       <use xlink:href="#HelveticaNeue-2d" x="81.499985"/>
       <use xlink:href="#HelveticaNeue-35" x="120.399979"/>
       <use xlink:href="#HelveticaNeue-20" x="175.999969"/>
       <use xlink:href="#HelveticaNeue-74" x="203.799957"/>
       <use xlink:href="#HelveticaNeue-6f" x="235.299942"/>
       <use xlink:href="#HelveticaNeue-6f" x="292.699936"/>
       <use xlink:href="#HelveticaNeue-6c" x="350.09993"/>
       <use xlink:href="#HelveticaNeue-73" x="372.299927"/>
       <use xlink:href="#HelveticaNeue-29" x="422.299911"/>
      </g>
     </g>
    </g>
    <g id="xtick_3">
     <g id="line2d_5">
      <path d="M 281.187666 306 
L 281.187666 43.2 
" clip-path="url(#pa91866997d)" style="fill: none; stroke: #f0f0f0; stroke-width: 0.8; stroke-linecap: square"/>
     </g>
     <g id="line2d_6">
      <g>
       <use xlink:href="#m138bcc375e" x="281.187666" y="306" style="stroke: #000000; stroke-width: 0.8"/>
      </g>
     </g>
     <g id="text_3">
      <!-- Error Handling -->
      <g style="fill: #1f2937" transform="translate(252.268838 319.426562) scale(0.09 -0.09)">
       <defs>
        <path id="HelveticaNeue-45" d="M 499 4570 
L 499 0 
L 3674 0 
L 3674 512 
L 1107 512 
L 1107 2093 
L 3482 2093 
L 3482 2605 
L 1107 2605 
L 1107 4058 
L 3654 4058 
L 3654 4570 
L 499 4570 
z
" transform="scale(0.015625)"/>
        <path id="HelveticaNeue-72" d="M 390 3309 
L 390 0 
L 934 0 
L 934 1472 
Q 934 1792 998 2038 
Q 1062 2285 1203 2457 
Q 1344 2630 1574 2720 
Q 1805 2810 2131 2810 
L 2131 3386 
Q 1690 3398 1402 3206 
Q 1114 3014 915 2611 
L 902 2611 
L 902 3309 
L 390 3309 
z
" transform="scale(0.015625)"/>
        <path id="HelveticaNeue-48" d="M 499 4570 
L 499 0 
L 1107 0 
L 1107 2093 
L 3514 2093 
L 3514 0 
L 4122 0 
L 4122 4570 
L 3514 4570 
L 3514 2605 
L 1107 2605 
L 1107 4570 
L 499 4570 
z
" transform="scale(0.015625)"/>
        <path id="HelveticaNeue-61" d="M 3341 13 
Q 3200 -70 2950 -70 
Q 2739 -70 2614 48 
Q 2490 166 2490 435 
Q 2266 166 1968 48 
Q 1670 -70 1325 -70 
Q 1101 -70 899 -19 
Q 698 32 550 141 
Q 403 250 316 426 
Q 230 602 230 851 
Q 230 1133 326 1312 
Q 422 1491 579 1603 
Q 736 1715 937 1772 
Q 1139 1830 1350 1869 
Q 1574 1914 1776 1936 
Q 1978 1958 2131 2000 
Q 2285 2042 2374 2122 
Q 2464 2202 2464 2355 
Q 2464 2534 2397 2643 
Q 2330 2752 2224 2809 
Q 2118 2867 1987 2886 
Q 1856 2906 1728 2906 
Q 1382 2906 1152 2774 
Q 922 2643 902 2278 
L 358 2278 
Q 371 2586 486 2797 
Q 602 3008 794 3139 
Q 986 3270 1232 3328 
Q 1478 3386 1760 3386 
Q 1984 3386 2205 3354 
Q 2426 3322 2605 3222 
Q 2784 3123 2893 2944 
Q 3002 2765 3002 2477 
L 3002 774 
Q 3002 582 3024 492 
Q 3046 403 3174 403 
Q 3245 403 3341 435 
L 3341 13 
z
M 2458 1709 
Q 2355 1632 2188 1597 
Q 2022 1562 1840 1539 
Q 1658 1517 1472 1488 
Q 1286 1459 1139 1395 
Q 992 1331 899 1212 
Q 806 1094 806 890 
Q 806 755 860 662 
Q 915 570 1001 512 
Q 1088 454 1203 428 
Q 1318 403 1446 403 
Q 1715 403 1907 476 
Q 2099 550 2220 662 
Q 2342 774 2400 905 
Q 2458 1037 2458 1152 
L 2458 1709 
z
" transform="scale(0.015625)"/>
        <path id="HelveticaNeue-64" d="M 806 1626 
Q 806 1869 857 2099 
Q 909 2330 1024 2509 
Q 1139 2688 1331 2797 
Q 1523 2906 1798 2906 
Q 2080 2906 2278 2800 
Q 2477 2694 2601 2521 
Q 2726 2349 2784 2121 
Q 2842 1894 2842 1651 
Q 2842 1421 2787 1197 
Q 2733 973 2611 797 
Q 2490 621 2298 512 
Q 2106 403 1830 403 
Q 1568 403 1373 505 
Q 1178 608 1053 781 
Q 928 954 867 1174 
Q 806 1395 806 1626 
z
M 3366 0 
L 3366 4570 
L 2822 4570 
L 2822 2867 
L 2810 2867 
Q 2720 3014 2589 3113 
Q 2458 3213 2310 3273 
Q 2163 3334 2016 3360 
Q 1869 3386 1741 3386 
Q 1363 3386 1078 3248 
Q 794 3110 605 2876 
Q 416 2643 323 2329 
Q 230 2016 230 1664 
Q 230 1312 326 998 
Q 422 685 611 448 
Q 800 211 1085 70 
Q 1370 -70 1754 -70 
Q 2099 -70 2387 51 
Q 2675 173 2810 448 
L 2822 448 
L 2822 0 
L 3366 0 
z
" transform="scale(0.015625)"/>
       </defs>
       <use xlink:href="#HelveticaNeue-45"/>
       <use xlink:href="#HelveticaNeue-72" x="61.099991"/>
       <use xlink:href="#HelveticaNeue-72" x="94.399979"/>
       <use xlink:href="#HelveticaNeue-6f" x="125.949966"/>
       <use xlink:href="#HelveticaNeue-72" x="183.34996"/>
       <use xlink:href="#HelveticaNeue-20" x="216.649948"/>
       <use xlink:href="#HelveticaNeue-48" x="244.449936"/>
       <use xlink:href="#HelveticaNeue-61" x="316.649918"/>
       <use xlink:href="#HelveticaNeue-6e" x="370.349915"/>
       <use xlink:href="#HelveticaNeue-64" x="425.949905"/>
       <use xlink:href="#HelveticaNeue-6c" x="485.249893"/>
       <use xlink:href="#HelveticaNeue-69" x="507.44989"/>
       <use xlink:href="#HelveticaNeue-6e" x="529.649887"/>
       <use xlink:href="#HelveticaNeue-67" x="585.249878"/>
      </g>
     </g>
    </g>
   </g>
   <g id="matplotlib.axis_2">
    <g id="ytick_1">
     <g id="line2d_7">
      <path d="M 43.417969 306 
L 325.017969 306 
" clip-path="url(#pa91866997d)" style="fill: none; stroke: #f0f0f0; stroke-width: 0.8; stroke-linecap: square"/>
     </g>
     <g id="line2d_8">
      <defs>
       <path id="m16582e49f3" d="M 0 0 
L -3.5 0 
" style="stroke: #000000; stroke-width: 0.8"/>
      </defs>
      <g>
       <use xlink:href="#m16582e49f3" x="43.417969" y="306" style="stroke: #000000; stroke-width: 0.8"/>
      </g>
     </g>
     <g id="text_4">
      <!-- 0 -->
      <g transform="translate(31.414531 309.213281) scale(0.09 -0.09)">
       <defs>
        <path id="HelveticaNeue-30" d="M 845 2234 
Q 845 2400 848 2601 
Q 851 2803 880 3004 
Q 909 3206 963 3398 
Q 1018 3590 1123 3734 
Q 1229 3878 1389 3968 
Q 1549 4058 1779 4058 
Q 2010 4058 2170 3968 
Q 2330 3878 2435 3734 
Q 2541 3590 2595 3398 
Q 2650 3206 2678 3004 
Q 2707 2803 2710 2601 
Q 2714 2400 2714 2234 
Q 2714 1978 2698 1661 
Q 2682 1344 2595 1065 
Q 2509 787 2317 595 
Q 2125 403 1779 403 
Q 1434 403 1242 595 
Q 1050 787 963 1065 
Q 877 1344 861 1661 
Q 845 1978 845 2234 
z
M 269 2227 
Q 269 1978 281 1709 
Q 294 1440 345 1184 
Q 397 928 493 701 
Q 589 474 755 301 
Q 922 128 1174 29 
Q 1427 -70 1779 -70 
Q 2138 -70 2387 29 
Q 2637 128 2803 301 
Q 2970 474 3066 701 
Q 3162 928 3213 1184 
Q 3264 1440 3277 1709 
Q 3290 1978 3290 2227 
Q 3290 2477 3277 2745 
Q 3264 3014 3213 3270 
Q 3162 3526 3066 3756 
Q 2970 3987 2803 4160 
Q 2637 4333 2384 4435 
Q 2131 4538 1779 4538 
Q 1427 4538 1174 4435 
Q 922 4333 755 4160 
Q 589 3987 493 3756 
Q 397 3526 345 3270 
Q 294 3014 281 2745 
Q 269 2477 269 2227 
z
" transform="scale(0.015625)"/>
       </defs>
       <use xlink:href="#HelveticaNeue-30"/>
      </g>
     </g>
    </g>
    <g id="ytick_2">
     <g id="line2d_9">
      <path d="M 43.417969 255.942857 
L 325.017969 255.942857 
" clip-path="url(#pa91866997d)" style="fill: none; stroke: #f0f0f0; stroke-width: 0.8; stroke-linecap: square"/>
     </g>
     <g id="line2d_10">
      <g>
       <use xlink:href="#m16582e49f3" x="43.417969" y="255.942857" style="stroke: #000000; stroke-width: 0.8"/>
      </g>
     </g>
     <g id="text_5">
      <!-- 20 -->
      <g transform="translate(26.411094 259.156138) scale(0.09 -0.09)">
       <defs>
        <path id="HelveticaNeue-32" d="M 282 2931 
L 826 2931 
Q 819 3136 867 3337 
Q 915 3539 1024 3699 
Q 1133 3859 1302 3958 
Q 1472 4058 1709 4058 
Q 1888 4058 2048 4000 
Q 2208 3942 2326 3833 
Q 2445 3725 2515 3574 
Q 2586 3424 2586 3238 
Q 2586 3002 2512 2822 
Q 2438 2643 2294 2489 
Q 2150 2336 1932 2185 
Q 1715 2035 1427 1856 
Q 1190 1715 972 1555 
Q 755 1395 582 1184 
Q 410 973 298 688 
Q 186 403 154 0 
L 3117 0 
L 3117 480 
L 787 480 
Q 826 691 950 854 
Q 1075 1018 1251 1158 
Q 1427 1299 1638 1424 
Q 1850 1549 2061 1677 
Q 2272 1811 2470 1958 
Q 2669 2106 2822 2288 
Q 2976 2470 3069 2700 
Q 3162 2931 3162 3232 
Q 3162 3552 3050 3795 
Q 2938 4038 2746 4201 
Q 2554 4365 2294 4451 
Q 2035 4538 1741 4538 
Q 1382 4538 1100 4416 
Q 819 4294 630 4080 
Q 442 3866 352 3571 
Q 262 3277 282 2931 
z
" transform="scale(0.015625)"/>
       </defs>
       <use xlink:href="#HelveticaNeue-32"/>
       <use xlink:href="#HelveticaNeue-30" x="55.599991"/>
      </g>
     </g>
    </g>
    <g id="ytick_3">
     <g id="line2d_11">
      <path d="M 43.417969 205.885714 
L 325.017969 205.885714 
" clip-path="url(#pa91866997d)" style="fill: none; stroke: #f0f0f0; stroke-width: 0.8; stroke-linecap: square"/>
     </g>
     <g id="line2d_12">
      <g>
       <use xlink:href="#m16582e49f3" x="43.417969" y="205.885714" style="stroke: #000000; stroke-width: 0.8"/>
      </g>
     </g>
     <g id="text_6">
      <!-- 40 -->
      <g transform="translate(26.411094 209.098996) scale(0.09 -0.09)">
       <defs>
        <path id="HelveticaNeue-34" d="M 2170 1542 
L 646 1542 
L 2157 3763 
L 2170 3763 
L 2170 1542 
z
M 2682 1542 
L 2682 4538 
L 2246 4538 
L 179 1587 
L 179 1062 
L 2170 1062 
L 2170 0 
L 2682 0 
L 2682 1062 
L 3296 1062 
L 3296 1542 
L 2682 1542 
z
" transform="scale(0.015625)"/>
       </defs>
       <use xlink:href="#HelveticaNeue-34"/>
       <use xlink:href="#HelveticaNeue-30" x="55.599991"/>
      </g>
     </g>
    </g>
    <g id="ytick_4">
     <g id="line2d_13">
      <path d="M 43.417969 155.828571 
L 325.017969 155.828571 
" clip-path="url(#pa91866997d)" style="fill: none; stroke: #f0f0f0; stroke-width: 0.8; stroke-linecap: square"/>
     </g>
     <g id="line2d_14">
      <g>
       <use xlink:href="#m16582e49f3" x="43.417969" y="155.828571" style="stroke: #000000; stroke-width: 0.8"/>
      </g>
     </g>
     <g id="text_7">
      <!-- 60 -->
      <g transform="translate(26.411094 159.041853) scale(0.09 -0.09)">
       <defs>
        <path id="HelveticaNeue-36" d="M 2650 3379 
L 3194 3379 
Q 3142 3942 2809 4240 
Q 2477 4538 1914 4538 
Q 1427 4538 1107 4333 
Q 787 4128 595 3789 
Q 403 3450 323 3011 
Q 243 2573 243 2106 
Q 243 1747 297 1363 
Q 352 979 518 659 
Q 685 339 992 134 
Q 1299 -70 1805 -70 
Q 2234 -70 2525 74 
Q 2816 218 2992 438 
Q 3168 659 3245 928 
Q 3322 1197 3322 1446 
Q 3322 1760 3226 2029 
Q 3130 2298 2954 2496 
Q 2778 2694 2518 2806 
Q 2259 2918 1933 2918 
Q 1562 2918 1277 2777 
Q 992 2637 800 2323 
L 787 2336 
Q 794 2598 838 2899 
Q 883 3200 1001 3459 
Q 1120 3718 1331 3888 
Q 1542 4058 1888 4058 
Q 2214 4058 2412 3872 
Q 2611 3686 2650 3379 
z
M 1830 2438 
Q 2061 2438 2233 2355 
Q 2406 2272 2521 2134 
Q 2637 1997 2691 1808 
Q 2746 1619 2746 1408 
Q 2746 1210 2685 1027 
Q 2624 845 2509 704 
Q 2394 563 2224 483 
Q 2054 403 1830 403 
Q 1606 403 1430 483 
Q 1254 563 1136 697 
Q 1018 832 954 1017 
Q 890 1203 890 1414 
Q 890 1626 950 1814 
Q 1011 2003 1132 2140 
Q 1254 2278 1427 2358 
Q 1600 2438 1830 2438 
z
" transform="scale(0.015625)"/>
       </defs>
       <use xlink:href="#HelveticaNeue-36"/>
       <use xlink:href="#HelveticaNeue-30" x="55.599991"/>
      </g>
     </g>
    </g>
    <g id="ytick_5">
     <g id="line2d_15">
      <path d="M 43.417969 105.771429 
L 325.017969 105.771429 
" clip-path="url(#pa91866997d)" style="fill: none; stroke: #f0f0f0; stroke-width: 0.8; stroke-linecap: square"/>
     </g>
     <g id="line2d_16">
      <g>
       <use xlink:href="#m16582e49f3" x="43.417969" y="105.771429" style="stroke: #000000; stroke-width: 0.8"/>
      </g>
     </g>
     <g id="text_8">
      <!-- 80 -->
      <g transform="translate(26.411094 108.98471) scale(0.09 -0.09)">
       <defs>
        <path id="HelveticaNeue-38" d="M 992 3360 
Q 992 3533 1056 3661 
Q 1120 3789 1225 3878 
Q 1331 3968 1478 4013 
Q 1626 4058 1786 4058 
Q 2118 4058 2332 3882 
Q 2547 3706 2547 3360 
Q 2547 3014 2336 2822 
Q 2125 2630 1798 2630 
Q 1632 2630 1485 2675 
Q 1338 2720 1229 2809 
Q 1120 2899 1056 3036 
Q 992 3174 992 3360 
z
M 416 3379 
Q 416 3072 589 2813 
Q 762 2554 1050 2438 
Q 666 2304 461 2006 
Q 256 1709 256 1306 
Q 256 960 374 701 
Q 493 442 701 269 
Q 909 96 1190 13 
Q 1472 -70 1798 -70 
Q 2112 -70 2387 19 
Q 2662 109 2864 285 
Q 3066 461 3184 717 
Q 3302 973 3302 1306 
Q 3302 1728 3104 2019 
Q 2906 2310 2496 2438 
Q 2784 2566 2953 2819 
Q 3123 3072 3123 3379 
Q 3123 3597 3046 3805 
Q 2970 4013 2806 4176 
Q 2643 4339 2380 4438 
Q 2118 4538 1747 4538 
Q 1485 4538 1245 4461 
Q 1005 4384 819 4237 
Q 634 4090 525 3875 
Q 416 3661 416 3379 
z
M 832 1280 
Q 832 1478 905 1638 
Q 979 1798 1110 1913 
Q 1242 2029 1418 2089 
Q 1594 2150 1792 2150 
Q 1984 2150 2153 2083 
Q 2323 2016 2451 1901 
Q 2579 1786 2652 1629 
Q 2726 1472 2726 1286 
Q 2726 1094 2659 934 
Q 2592 774 2467 656 
Q 2342 538 2172 470 
Q 2003 403 1798 403 
Q 1376 403 1104 636 
Q 832 870 832 1280 
z
" transform="scale(0.015625)"/>
       </defs>
       <use xlink:href="#HelveticaNeue-38"/>
       <use xlink:href="#HelveticaNeue-30" x="55.599991"/>
      </g>
     </g>
    </g>
    <g id="ytick_6">
     <g id="line2d_17">
      <path d="M 43.417969 55.714286 
L 325.017969 55.714286 
" clip-path="url(#pa91866997d)" style="fill: none; stroke: #f0f0f0; stroke-width: 0.8; stroke-linecap: square"/>
     </g>
     <g id="line2d_18">
      <g>
       <use xlink:href="#m16582e49f3" x="43.417969" y="55.714286" style="stroke: #000000; stroke-width: 0.8"/>
      </g>
     </g>
     <g id="text_9">
      <!-- 100 -->
      <g transform="translate(21.407656 58.927567) scale(0.09 -0.09)">
       <defs>
        <path id="HelveticaNeue-31" d="M 2278 0 
L 2278 4538 
L 1862 4538 
Q 1818 4282 1696 4115 
Q 1574 3949 1398 3853 
Q 1222 3757 1004 3721 
Q 787 3686 557 3686 
L 557 3251 
L 1734 3251 
L 1734 0 
L 2278 0 
z
" transform="scale(0.015625)"/>
       </defs>
       <use xlink:href="#HelveticaNeue-31"/>
       <use xlink:href="#HelveticaNeue-30" x="55.599991"/>
       <use xlink:href="#HelveticaNeue-30" x="111.199982"/>
      </g>
     </g>
    </g>
    <g id="text_10">
     <!-- Success Rate (%) -->
     <g style="fill: #1f2937" transform="translate(15.240312 218.397187) rotate(-90) scale(0.11 -0.11)">
      <defs>
       <path id="HelveticaNeue-63" d="M 2656 2246 
L 3219 2246 
Q 3187 2541 3065 2755 
Q 2944 2970 2755 3110 
Q 2566 3251 2320 3318 
Q 2074 3386 1792 3386 
Q 1402 3386 1107 3248 
Q 813 3110 617 2870 
Q 422 2630 326 2307 
Q 230 1984 230 1613 
Q 230 1242 329 931 
Q 429 621 624 397 
Q 819 173 1110 51 
Q 1402 -70 1779 -70 
Q 2413 -70 2781 262 
Q 3149 595 3238 1210 
L 2682 1210 
Q 2630 826 2403 614 
Q 2176 403 1773 403 
Q 1517 403 1331 505 
Q 1146 608 1030 777 
Q 915 947 860 1164 
Q 806 1382 806 1613 
Q 806 1862 857 2096 
Q 909 2330 1027 2509 
Q 1146 2688 1344 2797 
Q 1542 2906 1837 2906 
Q 2182 2906 2387 2733 
Q 2592 2560 2656 2246 
z
" transform="scale(0.015625)"/>
       <path id="HelveticaNeue-52" d="M 499 4570 
L 499 0 
L 1107 0 
L 1107 1952 
L 2592 1952 
Q 2816 1952 2950 1885 
Q 3085 1818 3168 1706 
Q 3251 1594 3289 1443 
Q 3328 1293 3354 1126 
Q 3386 960 3392 787 
Q 3398 614 3404 464 
Q 3411 314 3433 192 
Q 3456 70 3520 0 
L 4198 0 
Q 4102 115 4054 265 
Q 4006 416 3980 582 
Q 3955 749 3948 921 
Q 3942 1094 3930 1261 
Q 3910 1427 3875 1580 
Q 3840 1734 3766 1859 
Q 3693 1984 3568 2073 
Q 3443 2163 3245 2202 
L 3245 2214 
Q 3661 2330 3849 2643 
Q 4038 2957 4038 3373 
Q 4038 3930 3670 4250 
Q 3302 4570 2650 4570 
L 499 4570 
z
M 2374 2464 
L 1107 2464 
L 1107 4058 
L 2618 4058 
Q 3046 4058 3238 3840 
Q 3430 3622 3430 3277 
Q 3430 3027 3344 2870 
Q 3258 2714 3114 2621 
Q 2970 2528 2778 2496 
Q 2586 2464 2374 2464 
z
" transform="scale(0.015625)"/>
       <path id="HelveticaNeue-25" d="M 1069 3251 
Q 1069 3398 1088 3561 
Q 1107 3725 1168 3862 
Q 1229 4000 1337 4093 
Q 1446 4186 1626 4186 
Q 1811 4186 1916 4093 
Q 2022 4000 2080 3862 
Q 2138 3725 2154 3561 
Q 2170 3398 2170 3258 
Q 2170 3110 2150 2944 
Q 2131 2778 2070 2640 
Q 2010 2502 1901 2412 
Q 1792 2323 1606 2323 
Q 1427 2323 1321 2416 
Q 1216 2509 1158 2646 
Q 1101 2784 1085 2947 
Q 1069 3110 1069 3251 
z
M 589 3238 
Q 589 2976 643 2745 
Q 698 2515 819 2342 
Q 941 2170 1139 2070 
Q 1338 1971 1626 1971 
Q 1907 1971 2099 2080 
Q 2291 2189 2416 2365 
Q 2541 2541 2595 2774 
Q 2650 3008 2650 3258 
Q 2650 3520 2602 3753 
Q 2554 3987 2435 4160 
Q 2317 4333 2121 4435 
Q 1926 4538 1626 4538 
Q 1331 4538 1132 4432 
Q 934 4326 812 4147 
Q 691 3968 640 3734 
Q 589 3501 589 3238 
z
M 4230 1203 
Q 4230 1350 4249 1513 
Q 4269 1677 4329 1814 
Q 4390 1952 4499 2045 
Q 4608 2138 4787 2138 
Q 4973 2138 5078 2045 
Q 5184 1952 5241 1814 
Q 5299 1677 5315 1513 
Q 5331 1350 5331 1210 
Q 5331 1062 5312 896 
Q 5293 730 5232 592 
Q 5171 454 5062 364 
Q 4954 275 4768 275 
Q 4589 275 4483 368 
Q 4378 461 4320 598 
Q 4262 736 4246 899 
Q 4230 1062 4230 1203 
z
M 3750 1190 
Q 3750 928 3804 697 
Q 3859 467 3980 297 
Q 4102 128 4300 29 
Q 4499 -70 4787 -70 
Q 5069 -70 5261 35 
Q 5453 141 5577 317 
Q 5702 493 5756 726 
Q 5811 960 5811 1210 
Q 5811 1472 5763 1705 
Q 5715 1939 5596 2112 
Q 5478 2285 5283 2387 
Q 5088 2490 4787 2490 
Q 4493 2490 4294 2384 
Q 4096 2278 3974 2099 
Q 3853 1920 3801 1686 
Q 3750 1453 3750 1190 
z
M 4646 4621 
L 1203 -134 
L 1754 -134 
L 5190 4621 
L 4646 4621 
z
" transform="scale(0.015625)"/>
      </defs>
      <use xlink:href="#HelveticaNeue-53"/>
      <use xlink:href="#HelveticaNeue-75" x="64.799988"/>
      <use xlink:href="#HelveticaNeue-63" x="120.399979"/>
      <use xlink:href="#HelveticaNeue-63" x="174.099976"/>
      <use xlink:href="#HelveticaNeue-65" x="227.799973"/>
      <use xlink:href="#HelveticaNeue-73" x="281.499969"/>
      <use xlink:href="#HelveticaNeue-73" x="331.499954"/>
      <use xlink:href="#HelveticaNeue-20" x="381.499939"/>
      <use xlink:href="#HelveticaNeue-52" x="409.299927"/>
      <use xlink:href="#HelveticaNeue-61" x="477.799911"/>
      <use xlink:href="#HelveticaNeue-74" x="531.499908"/>
      <use xlink:href="#HelveticaNeue-65" x="562.999893"/>
      <use xlink:href="#HelveticaNeue-20" x="616.69989"/>
      <use xlink:href="#HelveticaNeue-28" x="644.499878"/>
      <use xlink:href="#HelveticaNeue-25" x="670.399872"/>
      <use xlink:href="#HelveticaNeue-29" x="770.399857"/>
     </g>
    </g>
   </g>
   <g id="line2d_19">
    <path d="M 43.417969 80.742857 
L 325.017969 80.742857 
" clip-path="url(#pa91866997d)" style="fill: none; stroke-dasharray: 3.7,1.6; stroke-dashoffset: 0; stroke: #6b7280; stroke-opacity: 0.4"/>
   </g>
   <g id="patch_9">
    <path d="M 43.417969 306 
L 43.417969 43.2 
" style="fill: none; stroke: #e5e5e5; stroke-width: 0.8; stroke-linejoin: miter; stroke-linecap: square"/>
   </g>
   <g id="patch_10">
    <path d="M 43.417969 306 
L 325.017969 306 
" style="fill: none; stroke: #e5e5e5; stroke-width: 0.8; stroke-linejoin: miter; stroke-linecap: square"/>
   </g>
   <g id="text_11">
    <!-- 92% -->
    <g style="fill: #1f2937" transform="translate(63.28562 71.160893) scale(0.08 -0.08)">
     <defs>
      <path id="HelveticaNeue-39" d="M 858 1094 
L 314 1094 
Q 365 506 742 218 
Q 1120 -70 1690 -70 
Q 2515 -70 2889 560 
Q 3264 1190 3264 2368 
Q 3264 3014 3139 3433 
Q 3014 3853 2803 4096 
Q 2592 4339 2310 4438 
Q 2029 4538 1709 4538 
Q 1382 4538 1107 4429 
Q 832 4320 633 4125 
Q 435 3930 326 3658 
Q 218 3386 218 3059 
Q 218 2726 310 2444 
Q 403 2163 585 1964 
Q 768 1766 1037 1654 
Q 1306 1542 1651 1542 
Q 1984 1542 2265 1712 
Q 2547 1882 2701 2170 
L 2714 2157 
Q 2688 1267 2438 835 
Q 2189 403 1690 403 
Q 1363 403 1126 582 
Q 890 762 858 1094 
z
M 2618 3021 
Q 2618 2822 2554 2640 
Q 2490 2458 2368 2320 
Q 2246 2182 2073 2102 
Q 1901 2022 1690 2022 
Q 1491 2022 1328 2102 
Q 1165 2182 1046 2316 
Q 928 2451 861 2624 
Q 794 2797 794 2982 
Q 794 3194 842 3386 
Q 890 3578 995 3728 
Q 1101 3878 1270 3968 
Q 1440 4058 1683 4058 
Q 1914 4058 2086 3974 
Q 2259 3891 2377 3747 
Q 2496 3603 2557 3417 
Q 2618 3232 2618 3021 
z
" transform="scale(0.015625)"/>
     </defs>
     <use xlink:href="#HelveticaNeue-39"/>
     <use xlink:href="#HelveticaNeue-32" x="55.599991"/>
     <use xlink:href="#HelveticaNeue-25" x="111.199982"/>
    </g>
   </g>
   <g id="text_12">
    <!-- 92% -->
    <g style="fill: #1f2937" transform="translate(160.255317 71.160893) scale(0.08 -0.08)">
     <use xlink:href="#HelveticaNeue-39"/>
     <use xlink:href="#HelveticaNeue-32" x="55.599991"/>
     <use xlink:href="#HelveticaNeue-25" x="111.199982"/>
    </g>
   </g>
   <g id="text_13">
    <!-- 99% -->
    <g style="fill: #1f2937" transform="translate(257.225014 53.640893) scale(0.08 -0.08)">
     <use xlink:href="#HelveticaNeue-39"/>
     <use xlink:href="#HelveticaNeue-39" x="55.599991"/>
     <use xlink:href="#HelveticaNeue-25" x="111.199982"/>
    </g>
   </g>
   <g id="text_14">
    <!-- 95% -->
    <g style="fill: #1f2937" transform="translate(94.315923 63.652321) scale(0.08 -0.08)">
     <use xlink:href="#HelveticaNeue-39"/>
     <use xlink:href="#HelveticaNeue-35" x="55.599991"/>
     <use xlink:href="#HelveticaNeue-25" x="111.199982"/>
    </g>
   </g>
   <g id="text_15">
    <!-- 70% -->
    <g style="fill: #1f2937" transform="translate(191.28562 126.22375) scale(0.08 -0.08)">
     <defs>
      <path id="HelveticaNeue-37" d="M 3258 3994 
L 3258 4461 
L 320 4461 
L 320 3949 
L 2701 3949 
Q 2342 3571 2032 3123 
Q 1722 2675 1485 2172 
Q 1248 1670 1097 1123 
Q 947 576 909 0 
L 1517 0 
Q 1549 531 1696 1094 
Q 1843 1658 2076 2189 
Q 2310 2720 2611 3187 
Q 2912 3654 3258 3994 
z
" transform="scale(0.015625)"/>
     </defs>
     <use xlink:href="#HelveticaNeue-37"/>
     <use xlink:href="#HelveticaNeue-30" x="55.599991"/>
     <use xlink:href="#HelveticaNeue-25" x="111.199982"/>
    </g>
   </g>
   <g id="text_16">
    <!-- 85% -->
    <g style="fill: #1f2937" transform="translate(288.255317 88.680893) scale(0.08 -0.08)">
     <use xlink:href="#HelveticaNeue-38"/>
     <use xlink:href="#HelveticaNeue-35" x="55.599991"/>
     <use xlink:href="#HelveticaNeue-25" x="111.199982"/>
    </g>
   </g>
   <g id="text_17">
    <!-- Success Rate by Task Type -->
    <g style="fill: #1f2937" transform="translate(104.881406 28.2) scale(0.13 -0.13)">
     <defs>
      <path id="HelveticaNeue-62" d="M 429 4570 
L 429 0 
L 973 0 
L 973 442 
L 986 442 
Q 1075 294 1206 195 
Q 1338 96 1485 38 
Q 1632 -19 1782 -44 
Q 1933 -70 2054 -70 
Q 2432 -70 2717 64 
Q 3002 198 3190 432 
Q 3379 666 3472 979 
Q 3565 1293 3565 1645 
Q 3565 1997 3469 2310 
Q 3373 2624 3184 2864 
Q 2995 3104 2710 3245 
Q 2426 3386 2042 3386 
Q 1696 3386 1408 3261 
Q 1120 3136 986 2861 
L 973 2861 
L 973 4570 
L 429 4570 
z
M 2989 1683 
Q 2989 1440 2937 1209 
Q 2886 979 2771 800 
Q 2656 621 2467 512 
Q 2278 403 1997 403 
Q 1715 403 1516 508 
Q 1318 614 1193 787 
Q 1069 960 1011 1187 
Q 954 1414 954 1658 
Q 954 1888 1008 2112 
Q 1062 2336 1184 2512 
Q 1306 2688 1498 2797 
Q 1690 2906 1965 2906 
Q 2227 2906 2422 2803 
Q 2618 2701 2742 2528 
Q 2867 2355 2928 2134 
Q 2989 1914 2989 1683 
z
" transform="scale(0.015625)"/>
      <path id="HelveticaNeue-79" d="M 1709 -442 
Q 1613 -685 1520 -851 
Q 1427 -1018 1315 -1123 
Q 1203 -1229 1065 -1277 
Q 928 -1325 749 -1325 
Q 653 -1325 557 -1312 
Q 461 -1299 371 -1267 
L 371 -768 
Q 442 -800 534 -822 
Q 627 -845 691 -845 
Q 858 -845 970 -765 
Q 1082 -685 1139 -538 
L 1363 19 
L 51 3309 
L 666 3309 
L 1632 602 
L 1645 602 
L 2573 3309 
L 3149 3309 
L 1709 -442 
z
" transform="scale(0.015625)"/>
      <path id="HelveticaNeue-6b" d="M 442 4570 
L 442 0 
L 986 0 
L 986 1254 
L 1498 1728 
L 2630 0 
L 3322 0 
L 1914 2106 
L 3226 3309 
L 2496 3309 
L 986 1862 
L 986 4570 
L 442 4570 
z
" transform="scale(0.015625)"/>
      <path id="HelveticaNeue-70" d="M 429 3309 
L 429 -1261 
L 973 -1261 
L 973 442 
L 986 442 
Q 1075 294 1206 195 
Q 1338 96 1485 38 
Q 1632 -19 1782 -44 
Q 1933 -70 2054 -70 
Q 2432 -70 2717 64 
Q 3002 198 3190 432 
Q 3379 666 3472 979 
Q 3565 1293 3565 1645 
Q 3565 1997 3469 2310 
Q 3373 2624 3184 2864 
Q 2995 3104 2710 3245 
Q 2426 3386 2042 3386 
Q 1696 3386 1408 3261 
Q 1120 3136 986 2861 
L 973 2861 
L 973 3309 
L 429 3309 
z
M 2989 1683 
Q 2989 1440 2937 1209 
Q 2886 979 2771 800 
Q 2656 621 2467 512 
Q 2278 403 1997 403 
Q 1715 403 1516 508 
Q 1318 614 1193 787 
Q 1069 960 1011 1187 
Q 954 1414 954 1658 
Q 954 1888 1008 2112 
Q 1062 2336 1184 2512 
Q 1306 2688 1498 2797 
Q 1690 2906 1965 2906 
Q 2227 2906 2422 2803 
Q 2618 2701 2742 2528 
Q 2867 2355 2928 2134 
Q 2989 1914 2989 1683 
z
" transform="scale(0.015625)"/>
     </defs>
     <use xlink:href="#HelveticaNeue-53"/>
     <use xlink:href="#HelveticaNeue-75" x="64.799988"/>
     <use xlink:href="#HelveticaNeue-63" x="120.399979"/>
     <use xlink:href="#HelveticaNeue-63" x="174.099976"/>
     <use xlink:href="#HelveticaNeue-65" x="227.799973"/>
     <use xlink:href="#HelveticaNeue-73" x="281.499969"/>
     <use xlink:href="#HelveticaNeue-73" x="331.499954"/>
     <use xlink:href="#HelveticaNeue-20" x="381.499939"/>
     <use xlink:href="#HelveticaNeue-52" x="409.299927"/>
     <use xlink:href="#HelveticaNeue-61" x="477.799911"/>
     <use xlink:href="#HelveticaNeue-74" x="531.499908"/>
     <use xlink:href="#HelveticaNeue-65" x="562.999893"/>
     <use xlink:href="#HelveticaNeue-20" x="616.69989"/>
     <use xlink:href="#HelveticaNeue-62" x="644.499878"/>
     <use xlink:href="#HelveticaNeue-79" x="703.799866"/>
     <use xlink:href="#HelveticaNeue-20" x="753.79985"/>
     <use xlink:href="#HelveticaNeue-54" x="781.599838"/>
     <use xlink:href="#HelveticaNeue-61" x="827.874832"/>
     <use xlink:href="#HelveticaNeue-73" x="881.574829"/>
     <use xlink:href="#HelveticaNeue-6b" x="931.574814"/>
     <use xlink:href="#HelveticaNeue-20" x="983.474808"/>
     <use xlink:href="#HelveticaNeue-54" x="1011.274796"/>
     <use xlink:href="#HelveticaNeue-79" x="1057.549789"/>
     <use xlink:href="#HelveticaNeue-70" x="1107.549774"/>
     <use xlink:href="#HelveticaNeue-65" x="1166.849762"/>
    </g>
   </g>
   <g id="legend_1">
    <g id="patch_11">
     <path d="M 49.717969 301.5 
L 143.509219 301.5 
Q 145.309219 301.5 145.309219 299.7 
L 145.309219 274.896562 
Q 145.309219 273.096562 143.509219 273.096562 
L 49.717969 273.096562 
Q 47.917969 273.096562 47.917969 274.896562 
L 47.917969 299.7 
Q 47.917969 301.5 49.717969 301.5 
z
" style="fill: #ffffff; opacity: 0.8; stroke: #e5e7eb; stroke-linejoin: miter"/>
    </g>
    <g id="patch_12">
     <path d="M 51.517969 283.275 
L 69.517969 283.275 
L 69.517969 276.975 
L 51.517969 276.975 
z
" style="fill: #10b981; opacity: 0.9; stroke: #ffffff; stroke-linejoin: miter"/>
    </g>
    <g id="text_18">
     <!-- PTC (Code-first) -->
     <g transform="translate(76.717969 283.275) scale(0.09 -0.09)">
      <defs>
       <path id="HelveticaNeue-50" d="M 1107 2381 
L 1107 4058 
L 2298 4058 
Q 2816 4058 3056 3843 
Q 3296 3629 3296 3219 
Q 3296 2810 3056 2592 
Q 2816 2374 2298 2381 
L 1107 2381 
z
M 499 4570 
L 499 0 
L 1107 0 
L 1107 1869 
L 2502 1869 
Q 3194 1862 3549 2220 
Q 3904 2579 3904 3219 
Q 3904 3859 3549 4214 
Q 3194 4570 2502 4570 
L 499 4570 
z
" transform="scale(0.015625)"/>
       <path id="HelveticaNeue-43" d="M 3712 3194 
L 4320 3194 
Q 4269 3558 4102 3836 
Q 3936 4115 3686 4300 
Q 3437 4486 3117 4582 
Q 2797 4678 2438 4678 
Q 1914 4678 1507 4489 
Q 1101 4301 829 3974 
Q 557 3648 416 3209 
Q 275 2771 275 2272 
Q 275 1773 406 1337 
Q 538 902 800 582 
Q 1062 262 1459 80 
Q 1856 -102 2387 -102 
Q 3264 -102 3769 378 
Q 4275 858 4365 1722 
L 3757 1722 
Q 3738 1440 3642 1197 
Q 3546 954 3376 778 
Q 3206 602 2972 502 
Q 2739 403 2438 403 
Q 2029 403 1734 556 
Q 1440 710 1251 969 
Q 1062 1229 972 1577 
Q 883 1926 883 2317 
Q 883 2675 972 3008 
Q 1062 3341 1251 3600 
Q 1440 3859 1731 4012 
Q 2022 4166 2432 4166 
Q 2912 4166 3261 3923 
Q 3610 3680 3712 3194 
z
" transform="scale(0.015625)"/>
       <path id="HelveticaNeue-66" d="M 634 2829 
L 634 0 
L 1178 0 
L 1178 2829 
L 1818 2829 
L 1818 3309 
L 1178 3309 
L 1178 3770 
Q 1178 3987 1286 4064 
Q 1395 4141 1594 4141 
Q 1664 4141 1747 4131 
Q 1830 4122 1901 4096 
L 1901 4570 
Q 1824 4595 1725 4608 
Q 1626 4621 1549 4621 
Q 1101 4621 867 4413 
Q 634 4205 634 3802 
L 634 3309 
L 77 3309 
L 77 2829 
L 634 2829 
z
" transform="scale(0.015625)"/>
      </defs>
      <use xlink:href="#HelveticaNeue-50"/>
      <use xlink:href="#HelveticaNeue-54" x="64.799988"/>
      <use xlink:href="#HelveticaNeue-43" x="122.199982"/>
      <use xlink:href="#HelveticaNeue-20" x="194.399963"/>
      <use xlink:href="#HelveticaNeue-28" x="222.199951"/>
      <use xlink:href="#HelveticaNeue-43" x="248.099945"/>
      <use xlink:href="#HelveticaNeue-6f" x="320.299927"/>
      <use xlink:href="#HelveticaNeue-64" x="377.699921"/>
      <use xlink:href="#HelveticaNeue-65" x="436.999908"/>
      <use xlink:href="#HelveticaNeue-2d" x="490.699905"/>
      <use xlink:href="#HelveticaNeue-66" x="529.599899"/>
      <use xlink:href="#HelveticaNeue-69" x="559.19989"/>
      <use xlink:href="#HelveticaNeue-72" x="581.399887"/>
      <use xlink:href="#HelveticaNeue-73" x="614.699875"/>
      <use xlink:href="#HelveticaNeue-74" x="664.69986"/>
      <use xlink:href="#HelveticaNeue-29" x="696.199844"/>
     </g>
    </g>
    <g id="patch_13">
     <path d="M 51.517969 296.126719 
L 69.517969 296.126719 
L 69.517969 289.826719 
L 51.517969 289.826719 
z
" style="fill: #3b82f6; opacity: 0.9; stroke: #ffffff; stroke-linejoin: miter"/>
    </g>
    <g id="text_19">
     <!-- FC (JSON-first) -->
     <g transform="translate(76.717969 296.126719) scale(0.09 -0.09)">
      <defs>
       <path id="HelveticaNeue-46" d="M 499 4570 
L 499 0 
L 1107 0 
L 1107 2093 
L 3206 2093 
L 3206 2605 
L 1107 2605 
L 1107 4058 
L 3501 4058 
L 3501 4570 
L 499 4570 
z
" transform="scale(0.015625)"/>
       <path id="HelveticaNeue-4a" d="M 2822 1139 
L 2822 4570 
L 2214 4570 
L 2214 1229 
Q 2214 851 2057 627 
Q 1901 403 1485 403 
Q 1261 403 1117 470 
Q 973 538 893 659 
Q 813 781 781 947 
Q 749 1114 749 1312 
L 749 1504 
L 141 1504 
L 141 1222 
Q 141 570 486 234 
Q 832 -102 1472 -102 
Q 1856 -102 2115 3 
Q 2374 109 2531 285 
Q 2688 461 2755 685 
Q 2822 909 2822 1139 
z
" transform="scale(0.015625)"/>
       <path id="HelveticaNeue-4f" d="M 851 2285 
Q 851 2630 940 2966 
Q 1030 3302 1222 3571 
Q 1414 3840 1715 4003 
Q 2016 4166 2432 4166 
Q 2848 4166 3149 4003 
Q 3450 3840 3642 3571 
Q 3834 3302 3923 2966 
Q 4013 2630 4013 2285 
Q 4013 1939 3923 1603 
Q 3834 1267 3642 998 
Q 3450 730 3149 566 
Q 2848 403 2432 403 
Q 2016 403 1715 566 
Q 1414 730 1222 998 
Q 1030 1267 940 1603 
Q 851 1939 851 2285 
z
M 243 2285 
Q 243 1818 380 1386 
Q 518 954 793 621 
Q 1069 288 1478 93 
Q 1888 -102 2432 -102 
Q 2976 -102 3385 93 
Q 3795 288 4070 621 
Q 4346 954 4483 1386 
Q 4621 1818 4621 2285 
Q 4621 2752 4483 3184 
Q 4346 3616 4070 3949 
Q 3795 4282 3385 4480 
Q 2976 4678 2432 4678 
Q 1888 4678 1478 4480 
Q 1069 4282 793 3949 
Q 518 3616 380 3184 
Q 243 2752 243 2285 
z
" transform="scale(0.015625)"/>
       <path id="HelveticaNeue-4e" d="M 493 4570 
L 493 0 
L 1069 0 
L 1069 3667 
L 1082 3667 
L 3469 0 
L 4134 0 
L 4134 4570 
L 3558 4570 
L 3558 864 
L 3546 864 
L 1139 4570 
L 493 4570 
z
" transform="scale(0.015625)"/>
      </defs>
      <use xlink:href="#HelveticaNeue-46"/>
      <use xlink:href="#HelveticaNeue-43" x="57.399994"/>
      <use xlink:href="#HelveticaNeue-20" x="129.599976"/>
      <use xlink:href="#HelveticaNeue-28" x="157.399963"/>
      <use xlink:href="#HelveticaNeue-4a" x="183.299957"/>
      <use xlink:href="#HelveticaNeue-53" x="235.199951"/>
      <use xlink:href="#HelveticaNeue-4f" x="299.999939"/>
      <use xlink:href="#HelveticaNeue-4e" x="375.999924"/>
      <use xlink:href="#HelveticaNeue-2d" x="448.199905"/>
      <use xlink:href="#HelveticaNeue-66" x="487.099899"/>
      <use xlink:href="#HelveticaNeue-69" x="516.69989"/>
      <use xlink:href="#HelveticaNeue-72" x="538.899887"/>
      <use xlink:href="#HelveticaNeue-73" x="572.199875"/>
      <use xlink:href="#HelveticaNeue-74" x="622.19986"/>
      <use xlink:href="#HelveticaNeue-29" x="653.699844"/>
     </g>
    </g>
   </g>
  </g>
  <g id="axes_2">
   <g id="patch_14">
    <path d="M 409.497969 306 
L 691.097969 306 
L 691.097969 43.2 
L 409.497969 43.2 
z
" style="fill: #ffffff"/>
   </g>
   <g id="patch_15">
    <path d="M 422.297969 306 
L 453.328272 306 
L 453.328272 263.268293 
L 422.297969 263.268293 
z
" clip-path="url(#p39121dcece)" style="fill: #10b981; opacity: 0.9; stroke: #ffffff; stroke-linejoin: miter"/>
   </g>
   <g id="patch_16">
    <path d="M 519.267666 306 
L 550.297969 306 
L 550.297969 220.536585 
L 519.267666 220.536585 
z
" clip-path="url(#p39121dcece)" style="fill: #10b981; opacity: 0.9; stroke: #ffffff; stroke-linejoin: miter"/>
   </g>
   <g id="patch_17">
    <path d="M 616.237363 306 
L 647.267666 306 
L 647.267666 242.919861 
L 616.237363 242.919861 
z
" clip-path="url(#p39121dcece)" style="fill: #10b981; opacity: 0.9; stroke: #ffffff; stroke-linejoin: miter"/>
   </g>
   <g id="patch_18">
    <path d="M 453.328272 306 
L 484.358575 306 
L 484.358575 281.581882 
L 453.328272 281.581882 
z
" clip-path="url(#p39121dcece)" style="fill: #3b82f6; opacity: 0.9; stroke: #ffffff; stroke-linejoin: miter"/>
   </g>
   <g id="patch_19">
    <path d="M 550.297969 306 
L 581.328272 306 
L 581.328272 133.038328 
L 550.297969 133.038328 
z
" clip-path="url(#p39121dcece)" style="fill: #3b82f6; opacity: 0.9; stroke: #ffffff; stroke-linejoin: miter"/>
   </g>
   <g id="patch_20">
    <path d="M 647.267666 306 
L 678.297969 306 
L 678.297969 55.714286 
L 647.267666 55.714286 
z
" clip-path="url(#p39121dcece)" style="fill: #3b82f6; opacity: 0.9; stroke: #ffffff; stroke-linejoin: miter"/>
   </g>
   <g id="matplotlib.axis_3">
    <g id="xtick_4">
     <g id="line2d_20">
      <path d="M 453.328272 306 
L 453.328272 43.2 
" clip-path="url(#p39121dcece)" style="fill: none; stroke: #f0f0f0; stroke-width: 0.8; stroke-linecap: square"/>
     </g>
     <g id="line2d_21">
      <g>
       <use xlink:href="#m138bcc375e" x="453.328272" y="306" style="stroke: #000000; stroke-width: 0.8"/>
      </g>
     </g>
     <g id="text_20">
      <!-- Single Tool -->
      <g style="fill: #1f2937" transform="translate(431.413272 319.578437) scale(0.09 -0.09)">
       <use xlink:href="#HelveticaNeue-53"/>
       <use xlink:href="#HelveticaNeue-69" x="64.799988"/>
       <use xlink:href="#HelveticaNeue-6e" x="86.999985"/>
       <use xlink:href="#HelveticaNeue-67" x="142.599976"/>
       <use xlink:href="#HelveticaNeue-6c" x="199.999969"/>
       <use xlink:href="#HelveticaNeue-65" x="222.199966"/>
       <use xlink:href="#HelveticaNeue-20" x="275.899963"/>
       <use xlink:href="#HelveticaNeue-54" x="303.699951"/>
       <use xlink:href="#HelveticaNeue-6f" x="349.974945"/>
       <use xlink:href="#HelveticaNeue-6f" x="407.374939"/>
       <use xlink:href="#HelveticaNeue-6c" x="464.774933"/>
      </g>
     </g>
    </g>
    <g id="xtick_5">
     <g id="line2d_22">
      <path d="M 550.297969 306 
L 550.297969 43.2 
" clip-path="url(#p39121dcece)" style="fill: none; stroke: #f0f0f0; stroke-width: 0.8; stroke-linecap: square"/>
     </g>
     <g id="line2d_23">
      <g>
       <use xlink:href="#m138bcc375e" x="550.297969" y="306" style="stroke: #000000; stroke-width: 0.8"/>
      </g>
     </g>
     <g id="text_21">
      <!-- Multi-Tool -->
      <g style="fill: #1f2937" transform="translate(530.462109 319.426562) scale(0.09 -0.09)">
       <use xlink:href="#HelveticaNeue-4d"/>
       <use xlink:href="#HelveticaNeue-75" x="87.099991"/>
       <use xlink:href="#HelveticaNeue-6c" x="142.699982"/>
       <use xlink:href="#HelveticaNeue-74" x="164.899979"/>
       <use xlink:href="#HelveticaNeue-69" x="196.399963"/>
       <use xlink:href="#HelveticaNeue-2d" x="218.59996"/>
       <use xlink:href="#HelveticaNeue-54" x="257.499954"/>
       <use xlink:href="#HelveticaNeue-6f" x="303.774948"/>
       <use xlink:href="#HelveticaNeue-6f" x="361.174942"/>
       <use xlink:href="#HelveticaNeue-6c" x="418.574936"/>
      </g>
      <!-- (3-5 tools) -->
      <g style="fill: #1f2937" transform="translate(530.128125 329.093969) scale(0.09 -0.09)">
       <use xlink:href="#HelveticaNeue-28"/>
       <use xlink:href="#HelveticaNeue-33" x="25.899994"/>
       <use xlink:href="#HelveticaNeue-2d" x="81.499985"/>
       <use xlink:href="#HelveticaNeue-35" x="120.399979"/>
       <use xlink:href="#HelveticaNeue-20" x="175.999969"/>
       <use xlink:href="#HelveticaNeue-74" x="203.799957"/>
       <use xlink:href="#HelveticaNeue-6f" x="235.299942"/>
       <use xlink:href="#HelveticaNeue-6f" x="292.699936"/>
       <use xlink:href="#HelveticaNeue-6c" x="350.09993"/>
       <use xlink:href="#HelveticaNeue-73" x="372.299927"/>
       <use xlink:href="#HelveticaNeue-29" x="422.299911"/>
      </g>
     </g>
    </g>
    <g id="xtick_6">
     <g id="line2d_24">
      <path d="M 647.267666 306 
L 647.267666 43.2 
" clip-path="url(#p39121dcece)" style="fill: none; stroke: #f0f0f0; stroke-width: 0.8; stroke-linecap: square"/>
     </g>
     <g id="line2d_25">
      <g>
       <use xlink:href="#m138bcc375e" x="647.267666" y="306" style="stroke: #000000; stroke-width: 0.8"/>
      </g>
     </g>
     <g id="text_22">
      <!-- Error Handling -->
      <g style="fill: #1f2937" transform="translate(618.348838 319.426562) scale(0.09 -0.09)">
       <use xlink:href="#HelveticaNeue-45"/>
       <use xlink:href="#HelveticaNeue-72" x="61.099991"/>
       <use xlink:href="#HelveticaNeue-72" x="94.399979"/>
       <use xlink:href="#HelveticaNeue-6f" x="125.949966"/>
       <use xlink:href="#HelveticaNeue-72" x="183.34996"/>
       <use xlink:href="#HelveticaNeue-20" x="216.649948"/>
       <use xlink:href="#HelveticaNeue-48" x="244.449936"/>
       <use xlink:href="#HelveticaNeue-61" x="316.649918"/>
       <use xlink:href="#HelveticaNeue-6e" x="370.349915"/>
       <use xlink:href="#HelveticaNeue-64" x="425.949905"/>
       <use xlink:href="#HelveticaNeue-6c" x="485.249893"/>
       <use xlink:href="#HelveticaNeue-69" x="507.44989"/>
       <use xlink:href="#HelveticaNeue-6e" x="529.649887"/>
       <use xlink:href="#HelveticaNeue-67" x="585.249878"/>
      </g>
     </g>
    </g>
   </g>
   <g id="matplotlib.axis_4">
    <g id="ytick_7">
     <g id="line2d_26">
      <path d="M 409.497969 306 
L 691.097969 306 
" clip-path="url(#p39121dcece)" style="fill: none; stroke: #f0f0f0; stroke-width: 0.8; stroke-linecap: square"/>
     </g>
     <g id="line2d_27">
      <g>
       <use xlink:href="#m16582e49f3" x="409.497969" y="306" style="stroke: #000000; stroke-width: 0.8"/>
      </g>
     </g>
     <g id="text_23">
      <!-- 0 -->
      <g transform="translate(397.494531 309.213281) scale(0.09 -0.09)">
       <use xlink:href="#HelveticaNeue-30"/>
      </g>
     </g>
    </g>
    <g id="ytick_8">
     <g id="line2d_28">
      <path d="M 409.497969 265.303136 
L 691.097969 265.303136 
" clip-path="url(#p39121dcece)" style="fill: none; stroke: #f0f0f0; stroke-width: 0.8; stroke-linecap: square"/>
     </g>
     <g id="line2d_29">
      <g>
       <use xlink:href="#m16582e49f3" x="409.497969" y="265.303136" style="stroke: #000000; stroke-width: 0.8"/>
      </g>
     </g>
     <g id="text_24">
      <!-- 2 -->
      <g transform="translate(397.494531 268.516417) scale(0.09 -0.09)">
       <use xlink:href="#HelveticaNeue-32"/>
      </g>
     </g>
    </g>
    <g id="ytick_9">
     <g id="line2d_30">
      <path d="M 409.497969 224.606272 
L 691.097969 224.606272 
" clip-path="url(#p39121dcece)" style="fill: none; stroke: #f0f0f0; stroke-width: 0.8; stroke-linecap: square"/>
     </g>
     <g id="line2d_31">
      <g>
       <use xlink:href="#m16582e49f3" x="409.497969" y="224.606272" style="stroke: #000000; stroke-width: 0.8"/>
      </g>
     </g>
     <g id="text_25">
      <!-- 4 -->
      <g transform="translate(397.494531 227.819553) scale(0.09 -0.09)">
       <use xlink:href="#HelveticaNeue-34"/>
      </g>
     </g>
    </g>
    <g id="ytick_10">
     <g id="line2d_32">
      <path d="M 409.497969 183.909408 
L 691.097969 183.909408 
" clip-path="url(#p39121dcece)" style="fill: none; stroke: #f0f0f0; stroke-width: 0.8; stroke-linecap: square"/>
     </g>
     <g id="line2d_33">
      <g>
       <use xlink:href="#m16582e49f3" x="409.497969" y="183.909408" style="stroke: #000000; stroke-width: 0.8"/>
      </g>
     </g>
     <g id="text_26">
      <!-- 6 -->
      <g transform="translate(397.494531 187.122689) scale(0.09 -0.09)">
       <use xlink:href="#HelveticaNeue-36"/>
      </g>
     </g>
    </g>
    <g id="ytick_11">
     <g id="line2d_34">
      <path d="M 409.497969 143.212544 
L 691.097969 143.212544 
" clip-path="url(#p39121dcece)" style="fill: none; stroke: #f0f0f0; stroke-width: 0.8; stroke-linecap: square"/>
     </g>
     <g id="line2d_35">
      <g>
       <use xlink:href="#m16582e49f3" x="409.497969" y="143.212544" style="stroke: #000000; stroke-width: 0.8"/>
      </g>
     </g>
     <g id="text_27">
      <!-- 8 -->
      <g transform="translate(397.494531 146.425825) scale(0.09 -0.09)">
       <use xlink:href="#HelveticaNeue-38"/>
      </g>
     </g>
    </g>
    <g id="ytick_12">
     <g id="line2d_36">
      <path d="M 409.497969 102.515679 
L 691.097969 102.515679 
" clip-path="url(#p39121dcece)" style="fill: none; stroke: #f0f0f0; stroke-width: 0.8; stroke-linecap: square"/>
     </g>
     <g id="line2d_37">
      <g>
       <use xlink:href="#m16582e49f3" x="409.497969" y="102.515679" style="stroke: #000000; stroke-width: 0.8"/>
      </g>
     </g>
     <g id="text_28">
      <!-- 10 -->
      <g transform="translate(392.491094 105.728961) scale(0.09 -0.09)">
       <use xlink:href="#HelveticaNeue-31"/>
       <use xlink:href="#HelveticaNeue-30" x="55.599991"/>
      </g>
     </g>
    </g>
    <g id="ytick_13">
     <g id="line2d_38">
      <path d="M 409.497969 61.818815 
L 691.097969 61.818815 
" clip-path="url(#p39121dcece)" style="fill: none; stroke: #f0f0f0; stroke-width: 0.8; stroke-linecap: square"/>
     </g>
     <g id="line2d_39">
      <g>
       <use xlink:href="#m16582e49f3" x="409.497969" y="61.818815" style="stroke: #000000; stroke-width: 0.8"/>
      </g>
     </g>
     <g id="text_29">
      <!-- 12 -->
      <g transform="translate(392.491094 65.032097) scale(0.09 -0.09)">
       <use xlink:href="#HelveticaNeue-31"/>
       <use xlink:href="#HelveticaNeue-32" x="55.599991"/>
      </g>
     </g>
    </g>
    <g id="text_30">
     <!-- Time (seconds) -->
     <g style="fill: #1f2937" transform="translate(386.32375 211.885703) rotate(-90) scale(0.11 -0.11)">
      <defs>
       <path id="HelveticaNeue-6d" d="M 410 3309 
L 410 0 
L 954 0 
L 954 2061 
Q 954 2157 1002 2301 
Q 1050 2445 1155 2579 
Q 1261 2714 1430 2810 
Q 1600 2906 1837 2906 
Q 2022 2906 2140 2851 
Q 2259 2797 2329 2697 
Q 2400 2598 2429 2464 
Q 2458 2330 2458 2170 
L 2458 0 
L 3002 0 
L 3002 2061 
Q 3002 2445 3232 2675 
Q 3462 2906 3866 2906 
Q 4064 2906 4189 2848 
Q 4314 2790 4384 2691 
Q 4454 2592 4480 2457 
Q 4506 2323 4506 2170 
L 4506 0 
L 5050 0 
L 5050 2426 
Q 5050 2682 4970 2864 
Q 4890 3046 4746 3161 
Q 4602 3277 4400 3331 
Q 4198 3386 3949 3386 
Q 3622 3386 3350 3238 
Q 3078 3091 2912 2822 
Q 2810 3130 2560 3258 
Q 2310 3386 2003 3386 
Q 1306 3386 934 2822 
L 922 2822 
L 922 3309 
L 410 3309 
z
" transform="scale(0.015625)"/>
      </defs>
      <use xlink:href="#HelveticaNeue-54"/>
      <use xlink:href="#HelveticaNeue-69" x="57.399994"/>
      <use xlink:href="#HelveticaNeue-6d" x="79.599991"/>
      <use xlink:href="#HelveticaNeue-65" x="164.899979"/>
      <use xlink:href="#HelveticaNeue-20" x="218.599976"/>
      <use xlink:href="#HelveticaNeue-28" x="246.399963"/>
      <use xlink:href="#HelveticaNeue-73" x="272.299957"/>
      <use xlink:href="#HelveticaNeue-65" x="322.299942"/>
      <use xlink:href="#HelveticaNeue-63" x="375.999939"/>
      <use xlink:href="#HelveticaNeue-6f" x="429.699936"/>
      <use xlink:href="#HelveticaNeue-6e" x="487.09993"/>
      <use xlink:href="#HelveticaNeue-64" x="542.699921"/>
      <use xlink:href="#HelveticaNeue-73" x="601.999908"/>
      <use xlink:href="#HelveticaNeue-29" x="651.999893"/>
     </g>
    </g>
   </g>
   <g id="patch_21">
    <path d="M 409.497969 306 
L 409.497969 43.2 
" style="fill: none; stroke: #e5e5e5; stroke-width: 0.8; stroke-linejoin: miter; stroke-linecap: square"/>
   </g>
   <g id="patch_22">
    <path d="M 409.497969 306 
L 691.097969 306 
" style="fill: none; stroke: #e5e5e5; stroke-width: 0.8; stroke-linejoin: miter; stroke-linecap: square"/>
   </g>
   <g id="text_31">
    <!-- 2.1s -->
    <g style="fill: #1f2937" transform="translate(430.253745 258.692043) scale(0.08 -0.08)">
     <defs>
      <path id="HelveticaNeue-2e" d="M 531 710 
L 531 0 
L 1242 0 
L 1242 710 
L 531 710 
z
" transform="scale(0.015625)"/>
     </defs>
     <use xlink:href="#HelveticaNeue-32"/>
     <use xlink:href="#HelveticaNeue-2e" x="55.599991"/>
     <use xlink:href="#HelveticaNeue-31" x="83.399979"/>
     <use xlink:href="#HelveticaNeue-73" x="138.999969"/>
    </g>
   </g>
   <g id="text_32">
    <!-- 4.2s -->
    <g style="fill: #1f2937" transform="translate(527.223442 215.960335) scale(0.08 -0.08)">
     <use xlink:href="#HelveticaNeue-34"/>
     <use xlink:href="#HelveticaNeue-2e" x="55.599991"/>
     <use xlink:href="#HelveticaNeue-32" x="83.399979"/>
     <use xlink:href="#HelveticaNeue-73" x="138.999969"/>
    </g>
   </g>
   <g id="text_33">
    <!-- 3.1s -->
    <g style="fill: #1f2937" transform="translate(624.193139 238.343611) scale(0.08 -0.08)">
     <use xlink:href="#HelveticaNeue-33"/>
     <use xlink:href="#HelveticaNeue-2e" x="55.599991"/>
     <use xlink:href="#HelveticaNeue-31" x="83.399979"/>
     <use xlink:href="#HelveticaNeue-73" x="138.999969"/>
    </g>
   </g>
   <g id="text_34">
    <!-- 1.2s -->
    <g style="fill: #1f2937" transform="translate(461.284048 277.005632) scale(0.08 -0.08)">
     <use xlink:href="#HelveticaNeue-31"/>
     <use xlink:href="#HelveticaNeue-2e" x="55.599991"/>
     <use xlink:href="#HelveticaNeue-32" x="83.399979"/>
     <use xlink:href="#HelveticaNeue-73" x="138.999969"/>
    </g>
   </g>
   <g id="text_35">
    <!-- 8.5s -->
    <g style="fill: #1f2937" transform="translate(558.253745 128.462078) scale(0.08 -0.08)">
     <use xlink:href="#HelveticaNeue-38"/>
     <use xlink:href="#HelveticaNeue-2e" x="55.599991"/>
     <use xlink:href="#HelveticaNeue-35" x="83.399979"/>
     <use xlink:href="#HelveticaNeue-73" x="138.999969"/>
    </g>
   </g>
   <g id="text_36">
    <!-- 12.3s -->
    <g style="fill: #1f2937" transform="translate(652.999692 51.138036) scale(0.08 -0.08)">
     <use xlink:href="#HelveticaNeue-31"/>
     <use xlink:href="#HelveticaNeue-32" x="55.599991"/>
     <use xlink:href="#HelveticaNeue-2e" x="111.199982"/>
     <use xlink:href="#HelveticaNeue-33" x="138.999969"/>
     <use xlink:href="#HelveticaNeue-73" x="194.59996"/>
    </g>
   </g>
   <g id="text_37">
    <!-- Execution Time by Task Type -->
    <g style="fill: #1f2937" transform="translate(466.262109 28.2) scale(0.13 -0.13)">
     <defs>
      <path id="HelveticaNeue-78" d="M 1299 1741 
L 58 0 
L 717 0 
L 1638 1370 
L 2560 0 
L 3258 0 
L 1978 1786 
L 3117 3309 
L 2464 3309 
L 1638 2150 
L 845 3309 
L 147 3309 
L 1299 1741 
z
" transform="scale(0.015625)"/>
     </defs>
     <use xlink:href="#HelveticaNeue-45"/>
     <use xlink:href="#HelveticaNeue-78" x="61.099991"/>
     <use xlink:href="#HelveticaNeue-65" x="112.899979"/>
     <use xlink:href="#HelveticaNeue-63" x="166.599976"/>
     <use xlink:href="#HelveticaNeue-75" x="220.299973"/>
     <use xlink:href="#HelveticaNeue-74" x="275.899963"/>
     <use xlink:href="#HelveticaNeue-69" x="307.399948"/>
     <use xlink:href="#HelveticaNeue-6f" x="329.599945"/>
     <use xlink:href="#HelveticaNeue-6e" x="386.999939"/>
     <use xlink:href="#HelveticaNeue-20" x="442.59993"/>
     <use xlink:href="#HelveticaNeue-54" x="470.399918"/>
     <use xlink:href="#HelveticaNeue-69" x="527.799911"/>
     <use xlink:href="#HelveticaNeue-6d" x="549.999908"/>
     <use xlink:href="#HelveticaNeue-65" x="635.299896"/>
     <use xlink:href="#HelveticaNeue-20" x="688.999893"/>
     <use xlink:href="#HelveticaNeue-62" x="716.799881"/>
     <use xlink:href="#HelveticaNeue-79" x="776.099869"/>
     <use xlink:href="#HelveticaNeue-20" x="826.099854"/>
     <use xlink:href="#HelveticaNeue-54" x="853.899841"/>
     <use xlink:href="#HelveticaNeue-61" x="900.174835"/>
     <use xlink:href="#HelveticaNeue-73" x="953.874832"/>
     <use xlink:href="#HelveticaNeue-6b" x="1003.874817"/>
     <use xlink:href="#HelveticaNeue-20" x="1055.774811"/>
     <use xlink:href="#HelveticaNeue-54" x="1083.574799"/>
     <use xlink:href="#HelveticaNeue-79" x="1129.849792"/>
     <use xlink:href="#HelveticaNeue-70" x="1179.849777"/>
     <use xlink:href="#HelveticaNeue-65" x="1239.149765"/>
    </g>
   </g>
   <g id="legend_2">
    <g id="patch_23">
     <path d="M 415.797969 76.103437 
L 509.589219 76.103437 
Q 511.389219 76.103437 511.389219 74.303437 
L 511.389219 49.5 
Q 511.389219 47.7 509.589219 47.7 
L 415.797969 47.7 
Q 413.997969 47.7 413.997969 49.5 
L 413.997969 74.303437 
Q 413.997969 76.103437 415.797969 76.103437 
z
" style="fill: #ffffff; opacity: 0.8; stroke: #e5e7eb; stroke-linejoin: miter"/>
    </g>
    <g id="patch_24">
     <path d="M 417.597969 57.878437 
L 435.597969 57.878437 
L 435.597969 51.578437 
L 417.597969 51.578437 
z
" style="fill: #10b981; opacity: 0.9; stroke: #ffffff; stroke-linejoin: miter"/>
    </g>
    <g id="text_38">
     <!-- PTC (Code-first) -->
     <g transform="translate(442.797969 57.878437) scale(0.09 -0.09)">
      <use xlink:href="#HelveticaNeue-50"/>
      <use xlink:href="#HelveticaNeue-54" x="64.799988"/>
      <use xlink:href="#HelveticaNeue-43" x="122.199982"/>
      <use xlink:href="#HelveticaNeue-20" x="194.399963"/>
      <use xlink:href="#HelveticaNeue-28" x="222.199951"/>
      <use xlink:href="#HelveticaNeue-43" x="248.099945"/>
      <use xlink:href="#HelveticaNeue-6f" x="320.299927"/>
      <use xlink:href="#HelveticaNeue-64" x="377.699921"/>
      <use xlink:href="#HelveticaNeue-65" x="436.999908"/>
      <use xlink:href="#HelveticaNeue-2d" x="490.699905"/>
      <use xlink:href="#HelveticaNeue-66" x="529.599899"/>
      <use xlink:href="#HelveticaNeue-69" x="559.19989"/>
      <use xlink:href="#HelveticaNeue-72" x="581.399887"/>
      <use xlink:href="#HelveticaNeue-73" x="614.699875"/>
      <use xlink:href="#HelveticaNeue-74" x="664.69986"/>
      <use xlink:href="#HelveticaNeue-29" x="696.199844"/>
     </g>
    </g>
    <g id="patch_25">
     <path d="M 417.597969 70.730156 
L 435.597969 70.730156 
L 435.597969 64.430156 
L 417.597969 64.430156 
z
" style="fill: #3b82f6; opacity: 0.9; stroke: #ffffff; stroke-linejoin: miter"/>
    </g>
    <g id="text_39">
     <!-- FC (JSON-first) -->
     <g transform="translate(442.797969 70.730156) scale(0.09 -0.09)">
      <use xlink:href="#HelveticaNeue-46"/>
      <use xlink:href="#HelveticaNeue-43" x="57.399994"/>
      <use xlink:href="#HelveticaNeue-20" x="129.599976"/>
      <use xlink:href="#HelveticaNeue-28" x="157.399963"/>
      <use xlink:href="#HelveticaNeue-4a" x="183.299957"/>
      <use xlink:href="#HelveticaNeue-53" x="235.199951"/>
      <use xlink:href="#HelveticaNeue-4f" x="299.999939"/>
      <use xlink:href="#HelveticaNeue-4e" x="375.999924"/>
      <use xlink:href="#HelveticaNeue-2d" x="448.199905"/>
      <use xlink:href="#HelveticaNeue-66" x="487.099899"/>
      <use xlink:href="#HelveticaNeue-69" x="516.69989"/>
      <use xlink:href="#HelveticaNeue-72" x="538.899887"/>
      <use xlink:href="#HelveticaNeue-73" x="572.199875"/>
      <use xlink:href="#HelveticaNeue-74" x="622.19986"/>
      <use xlink:href="#HelveticaNeue-29" x="653.699844"/>
     </g>
    </g>
   </g>
  </g>
  <g id="axes_3">
   <g id="patch_26">
    <path d="M 775.577969 306 
L 1057.177969 306 
L 1057.177969 43.2 
L 775.577969 43.2 
z
" style="fill: #ffffff"/>
   </g>
   <g id="patch_27">
    <path d="M 788.377969 306 
L 819.408272 306 
L 819.408272 264.285714 
L 788.377969 264.285714 
z
" clip-path="url(#p3151d8c56b)" style="fill: #10b981; opacity: 0.9; stroke: #ffffff; stroke-linejoin: miter"/>
   </g>
   <g id="patch_28">
    <path d="M 885.347666 306 
L 916.377969 306 
L 916.377969 250.380952 
L 885.347666 250.380952 
z
" clip-path="url(#p3151d8c56b)" style="fill: #10b981; opacity: 0.9; stroke: #ffffff; stroke-linejoin: miter"/>
   </g>
   <g id="patch_29">
    <path d="M 982.317363 306 
L 1013.347666 306 
L 1013.347666 264.285714 
L 982.317363 264.285714 
z
" clip-path="url(#p3151d8c56b)" style="fill: #10b981; opacity: 0.9; stroke: #ffffff; stroke-linejoin: miter"/>
   </g>
   <g id="patch_30">
    <path d="M 819.408272 306 
L 850.438575 306 
L 850.438575 278.190476 
L 819.408272 278.190476 
z
" clip-path="url(#p3151d8c56b)" style="fill: #3b82f6; opacity: 0.9; stroke: #ffffff; stroke-linejoin: miter"/>
   </g>
   <g id="patch_31">
    <path d="M 916.377969 306 
L 947.408272 306 
L 947.408272 139.142857 
L 916.377969 139.142857 
z
" clip-path="url(#p3151d8c56b)" style="fill: #3b82f6; opacity: 0.9; stroke: #ffffff; stroke-linejoin: miter"/>
   </g>
   <g id="patch_32">
    <path d="M 1013.347666 306 
L 1044.377969 306 
L 1044.377969 55.714286 
L 1013.347666 55.714286 
z
" clip-path="url(#p3151d8c56b)" style="fill: #3b82f6; opacity: 0.9; stroke: #ffffff; stroke-linejoin: miter"/>
   </g>
   <g id="matplotlib.axis_5">
    <g id="xtick_7">
     <g id="line2d_40">
      <path d="M 819.408272 306 
L 819.408272 43.2 
" clip-path="url(#p3151d8c56b)" style="fill: none; stroke: #f0f0f0; stroke-width: 0.8; stroke-linecap: square"/>
     </g>
     <g id="line2d_41">
      <g>
       <use xlink:href="#m138bcc375e" x="819.408272" y="306" style="stroke: #000000; stroke-width: 0.8"/>
      </g>
     </g>
     <g id="text_40">
      <!-- Single Tool -->
      <g style="fill: #1f2937" transform="translate(797.493272 319.578437) scale(0.09 -0.09)">
       <use xlink:href="#HelveticaNeue-53"/>
       <use xlink:href="#HelveticaNeue-69" x="64.799988"/>
       <use xlink:href="#HelveticaNeue-6e" x="86.999985"/>
       <use xlink:href="#HelveticaNeue-67" x="142.599976"/>
       <use xlink:href="#HelveticaNeue-6c" x="199.999969"/>
       <use xlink:href="#HelveticaNeue-65" x="222.199966"/>
       <use xlink:href="#HelveticaNeue-20" x="275.899963"/>
       <use xlink:href="#HelveticaNeue-54" x="303.699951"/>
       <use xlink:href="#HelveticaNeue-6f" x="349.974945"/>
       <use xlink:href="#HelveticaNeue-6f" x="407.374939"/>
       <use xlink:href="#HelveticaNeue-6c" x="464.774933"/>
      </g>
     </g>
    </g>
    <g id="xtick_8">
     <g id="line2d_42">
      <path d="M 916.377969 306 
L 916.377969 43.2 
" clip-path="url(#p3151d8c56b)" style="fill: none; stroke: #f0f0f0; stroke-width: 0.8; stroke-linecap: square"/>
     </g>
     <g id="line2d_43">
      <g>
       <use xlink:href="#m138bcc375e" x="916.377969" y="306" style="stroke: #000000; stroke-width: 0.8"/>
      </g>
     </g>
     <g id="text_41">
      <!-- Multi-Tool -->
      <g style="fill: #1f2937" transform="translate(896.542109 319.426562) scale(0.09 -0.09)">
       <use xlink:href="#HelveticaNeue-4d"/>
       <use xlink:href="#HelveticaNeue-75" x="87.099991"/>
       <use xlink:href="#HelveticaNeue-6c" x="142.699982"/>
       <use xlink:href="#HelveticaNeue-74" x="164.899979"/>
       <use xlink:href="#HelveticaNeue-69" x="196.399963"/>
       <use xlink:href="#HelveticaNeue-2d" x="218.59996"/>
       <use xlink:href="#HelveticaNeue-54" x="257.499954"/>
       <use xlink:href="#HelveticaNeue-6f" x="303.774948"/>
       <use xlink:href="#HelveticaNeue-6f" x="361.174942"/>
       <use xlink:href="#HelveticaNeue-6c" x="418.574936"/>
      </g>
      <!-- (3-5 tools) -->
      <g style="fill: #1f2937" transform="translate(896.208125 329.093969) scale(0.09 -0.09)">
       <use xlink:href="#HelveticaNeue-28"/>
       <use xlink:href="#HelveticaNeue-33" x="25.899994"/>
       <use xlink:href="#HelveticaNeue-2d" x="81.499985"/>
       <use xlink:href="#HelveticaNeue-35" x="120.399979"/>
       <use xlink:href="#HelveticaNeue-20" x="175.999969"/>
       <use xlink:href="#HelveticaNeue-74" x="203.799957"/>
       <use xlink:href="#HelveticaNeue-6f" x="235.299942"/>
       <use xlink:href="#HelveticaNeue-6f" x="292.699936"/>
       <use xlink:href="#HelveticaNeue-6c" x="350.09993"/>
       <use xlink:href="#HelveticaNeue-73" x="372.299927"/>
       <use xlink:href="#HelveticaNeue-29" x="422.299911"/>
      </g>
     </g>
    </g>
    <g id="xtick_9">
     <g id="line2d_44">
      <path d="M 1013.347666 306 
L 1013.347666 43.2 
" clip-path="url(#p3151d8c56b)" style="fill: none; stroke: #f0f0f0; stroke-width: 0.8; stroke-linecap: square"/>
     </g>
     <g id="line2d_45">
      <g>
       <use xlink:href="#m138bcc375e" x="1013.347666" y="306" style="stroke: #000000; stroke-width: 0.8"/>
      </g>
     </g>
     <g id="text_42">
      <!-- Error Handling -->
      <g style="fill: #1f2937" transform="translate(984.428838 319.426562) scale(0.09 -0.09)">
       <use xlink:href="#HelveticaNeue-45"/>
       <use xlink:href="#HelveticaNeue-72" x="61.099991"/>
       <use xlink:href="#HelveticaNeue-72" x="94.399979"/>
       <use xlink:href="#HelveticaNeue-6f" x="125.949966"/>
       <use xlink:href="#HelveticaNeue-72" x="183.34996"/>
       <use xlink:href="#HelveticaNeue-20" x="216.649948"/>
       <use xlink:href="#HelveticaNeue-48" x="244.449936"/>
       <use xlink:href="#HelveticaNeue-61" x="316.649918"/>
       <use xlink:href="#HelveticaNeue-6e" x="370.349915"/>
       <use xlink:href="#HelveticaNeue-64" x="425.949905"/>
       <use xlink:href="#HelveticaNeue-6c" x="485.249893"/>
       <use xlink:href="#HelveticaNeue-69" x="507.44989"/>
       <use xlink:href="#HelveticaNeue-6e" x="529.649887"/>
       <use xlink:href="#HelveticaNeue-67" x="585.249878"/>
      </g>
     </g>
    </g>
   </g>
   <g id="matplotlib.axis_6">
    <g id="ytick_14">
     <g id="line2d_46">
      <path d="M 775.577969 306 
L 1057.177969 306 
" clip-path="url(#p3151d8c56b)" style="fill: none; stroke: #f0f0f0; stroke-width: 0.8; stroke-linecap: square"/>
     </g>
     <g id="line2d_47">
      <g>
       <use xlink:href="#m16582e49f3" x="775.577969" y="306" style="stroke: #000000; stroke-width: 0.8"/>
      </g>
     </g>
     <g id="text_43">
      <!-- 0.0 -->
      <g transform="translate(756.069375 309.213281) scale(0.09 -0.09)">
       <use xlink:href="#HelveticaNeue-30"/>
       <use xlink:href="#HelveticaNeue-2e" x="55.599991"/>
       <use xlink:href="#HelveticaNeue-30" x="83.399979"/>
      </g>
     </g>
    </g>
    <g id="ytick_15">
     <g id="line2d_48">
      <path d="M 775.577969 271.238095 
L 1057.177969 271.238095 
" clip-path="url(#p3151d8c56b)" style="fill: none; stroke: #f0f0f0; stroke-width: 0.8; stroke-linecap: square"/>
     </g>
     <g id="line2d_49">
      <g>
       <use xlink:href="#m16582e49f3" x="775.577969" y="271.238095" style="stroke: #000000; stroke-width: 0.8"/>
      </g>
     </g>
     <g id="text_44">
      <!-- 2.5 -->
      <g transform="translate(756.069375 274.451376) scale(0.09 -0.09)">
       <use xlink:href="#HelveticaNeue-32"/>
       <use xlink:href="#HelveticaNeue-2e" x="55.599991"/>
       <use xlink:href="#HelveticaNeue-35" x="83.399979"/>
      </g>
     </g>
    </g>
    <g id="ytick_16">
     <g id="line2d_50">
      <path d="M 775.577969 236.47619 
L 1057.177969 236.47619 
" clip-path="url(#p3151d8c56b)" style="fill: none; stroke: #f0f0f0; stroke-width: 0.8; stroke-linecap: square"/>
     </g>
     <g id="line2d_51">
      <g>
       <use xlink:href="#m16582e49f3" x="775.577969" y="236.47619" style="stroke: #000000; stroke-width: 0.8"/>
      </g>
     </g>
     <g id="text_45">
      <!-- 5.0 -->
      <g transform="translate(756.069375 239.689472) scale(0.09 -0.09)">
       <use xlink:href="#HelveticaNeue-35"/>
       <use xlink:href="#HelveticaNeue-2e" x="55.599991"/>
       <use xlink:href="#HelveticaNeue-30" x="83.399979"/>
      </g>
     </g>
    </g>
    <g id="ytick_17">
     <g id="line2d_52">
      <path d="M 775.577969 201.714286 
L 1057.177969 201.714286 
" clip-path="url(#p3151d8c56b)" style="fill: none; stroke: #f0f0f0; stroke-width: 0.8; stroke-linecap: square"/>
     </g>
     <g id="line2d_53">
      <g>
       <use xlink:href="#m16582e49f3" x="775.577969" y="201.714286" style="stroke: #000000; stroke-width: 0.8"/>
      </g>
     </g>
     <g id="text_46">
      <!-- 7.5 -->
      <g transform="translate(756.069375 204.927567) scale(0.09 -0.09)">
       <use xlink:href="#HelveticaNeue-37"/>
       <use xlink:href="#HelveticaNeue-2e" x="55.599991"/>
       <use xlink:href="#HelveticaNeue-35" x="83.399979"/>
      </g>
     </g>
    </g>
    <g id="ytick_18">
     <g id="line2d_54">
      <path d="M 775.577969 166.952381 
L 1057.177969 166.952381 
" clip-path="url(#p3151d8c56b)" style="fill: none; stroke: #f0f0f0; stroke-width: 0.8; stroke-linecap: square"/>
     </g>
     <g id="line2d_55">
      <g>
       <use xlink:href="#m16582e49f3" x="775.577969" y="166.952381" style="stroke: #000000; stroke-width: 0.8"/>
      </g>
     </g>
     <g id="text_47">
      <!-- 10.0 -->
      <g transform="translate(751.065938 170.165662) scale(0.09 -0.09)">
       <use xlink:href="#HelveticaNeue-31"/>
       <use xlink:href="#HelveticaNeue-30" x="55.599991"/>
       <use xlink:href="#HelveticaNeue-2e" x="111.199982"/>
       <use xlink:href="#HelveticaNeue-30" x="138.999969"/>
      </g>
     </g>
    </g>
    <g id="ytick_19">
     <g id="line2d_56">
      <path d="M 775.577969 132.190476 
L 1057.177969 132.190476 
" clip-path="url(#p3151d8c56b)" style="fill: none; stroke: #f0f0f0; stroke-width: 0.8; stroke-linecap: square"/>
     </g>
     <g id="line2d_57">
      <g>
       <use xlink:href="#m16582e49f3" x="775.577969" y="132.190476" style="stroke: #000000; stroke-width: 0.8"/>
      </g>
     </g>
     <g id="text_48">
      <!-- 12.5 -->
      <g transform="translate(751.065938 135.403757) scale(0.09 -0.09)">
       <use xlink:href="#HelveticaNeue-31"/>
       <use xlink:href="#HelveticaNeue-32" x="55.599991"/>
       <use xlink:href="#HelveticaNeue-2e" x="111.199982"/>
       <use xlink:href="#HelveticaNeue-35" x="138.999969"/>
      </g>
     </g>
    </g>
    <g id="ytick_20">
     <g id="line2d_58">
      <path d="M 775.577969 97.428571 
L 1057.177969 97.428571 
" clip-path="url(#p3151d8c56b)" style="fill: none; stroke: #f0f0f0; stroke-width: 0.8; stroke-linecap: square"/>
     </g>
     <g id="line2d_59">
      <g>
       <use xlink:href="#m16582e49f3" x="775.577969" y="97.428571" style="stroke: #000000; stroke-width: 0.8"/>
      </g>
     </g>
     <g id="text_49">
      <!-- 15.0 -->
      <g transform="translate(751.065938 100.641853) scale(0.09 -0.09)">
       <use xlink:href="#HelveticaNeue-31"/>
       <use xlink:href="#HelveticaNeue-35" x="55.599991"/>
       <use xlink:href="#HelveticaNeue-2e" x="111.199982"/>
       <use xlink:href="#HelveticaNeue-30" x="138.999969"/>
      </g>
     </g>
    </g>
    <g id="ytick_21">
     <g id="line2d_60">
      <path d="M 775.577969 62.666667 
L 1057.177969 62.666667 
" clip-path="url(#p3151d8c56b)" style="fill: none; stroke: #f0f0f0; stroke-width: 0.8; stroke-linecap: square"/>
     </g>
     <g id="line2d_61">
      <g>
       <use xlink:href="#m16582e49f3" x="775.577969" y="62.666667" style="stroke: #000000; stroke-width: 0.8"/>
      </g>
     </g>
     <g id="text_50">
      <!-- 17.5 -->
      <g transform="translate(751.065938 65.879948) scale(0.09 -0.09)">
       <use xlink:href="#HelveticaNeue-31"/>
       <use xlink:href="#HelveticaNeue-37" x="55.599991"/>
       <use xlink:href="#HelveticaNeue-2e" x="111.199982"/>
       <use xlink:href="#HelveticaNeue-35" x="138.999969"/>
      </g>
     </g>
    </g>
    <g id="text_51">
     <!-- Cost (cents × 10⁻³) -->
     <g style="fill: #1f2937" transform="translate(744.898594 219.716328) rotate(-90) scale(0.11 -0.11)">
      <defs>
       <path id="HelveticaNeue-d7" d="M 454 461 
L 762 154 
L 1926 1318 
L 3085 154 
L 3392 461 
L 2234 1626 
L 3386 2778 
L 3078 3085 
L 1926 1933 
L 768 3085 
L 461 2778 
L 1619 1626 
L 454 461 
z
" transform="scale(0.015625)"/>
       <path id="HelveticaNeue-207b" d="M 224 3802 
L 1376 3802 
L 1376 3392 
L 224 3392 
L 224 3802 
z
" transform="scale(0.015625)"/>
       <path id="HelveticaNeue-b3" d="M 845 3373 
L 845 3053 
L 1056 3053 
Q 1171 3053 1276 3027 
Q 1382 3002 1465 2941 
Q 1549 2880 1600 2787 
Q 1651 2694 1651 2560 
Q 1651 2342 1472 2220 
Q 1293 2099 1050 2099 
Q 474 2099 461 2650 
L 26 2650 
Q 26 2426 106 2256 
Q 186 2086 323 1974 
Q 461 1862 649 1804 
Q 838 1747 1050 1747 
Q 1254 1747 1440 1798 
Q 1626 1850 1770 1952 
Q 1914 2054 2000 2211 
Q 2086 2368 2086 2579 
Q 2086 2822 1952 3001 
Q 1818 3181 1530 3232 
L 1530 3245 
Q 1709 3315 1837 3459 
Q 1965 3603 1965 3789 
Q 1965 3974 1894 4115 
Q 1824 4256 1699 4349 
Q 1574 4442 1404 4490 
Q 1235 4538 1037 4538 
Q 608 4538 361 4298 
Q 115 4058 90 3635 
L 525 3635 
Q 525 3872 646 4029 
Q 768 4186 1037 4186 
Q 1248 4186 1389 4083 
Q 1530 3981 1530 3789 
Q 1530 3565 1370 3469 
Q 1210 3373 998 3373 
L 845 3373 
z
" transform="scale(0.015625)"/>
      </defs>
      <use xlink:href="#HelveticaNeue-43"/>
      <use xlink:href="#HelveticaNeue-6f" x="72.199982"/>
      <use xlink:href="#HelveticaNeue-73" x="129.599976"/>
      <use xlink:href="#HelveticaNeue-74" x="179.59996"/>
      <use xlink:href="#HelveticaNeue-20" x="211.099945"/>
      <use xlink:href="#HelveticaNeue-28" x="238.899933"/>
      <use xlink:href="#HelveticaNeue-63" x="264.799927"/>
      <use xlink:href="#HelveticaNeue-65" x="318.499924"/>
      <use xlink:href="#HelveticaNeue-6e" x="372.199921"/>
      <use xlink:href="#HelveticaNeue-74" x="427.799911"/>
      <use xlink:href="#HelveticaNeue-73" x="459.299896"/>
      <use xlink:href="#HelveticaNeue-20" x="509.299881"/>
      <use xlink:href="#HelveticaNeue-d7" x="537.099869"/>
      <use xlink:href="#HelveticaNeue-20" x="597.099854"/>
      <use xlink:href="#HelveticaNeue-31" x="624.899841"/>
      <use xlink:href="#HelveticaNeue-30" x="680.499832"/>
      <use xlink:href="#HelveticaNeue-207b" x="736.099823"/>
      <use xlink:href="#HelveticaNeue-b3" x="761.099808"/>
      <use xlink:href="#HelveticaNeue-29" x="794.399796"/>
     </g>
    </g>
   </g>
   <g id="patch_33">
    <path d="M 775.577969 306 
L 775.577969 43.2 
" style="fill: none; stroke: #e5e5e5; stroke-width: 0.8; stroke-linejoin: miter; stroke-linecap: square"/>
   </g>
   <g id="patch_34">
    <path d="M 775.577969 306 
L 1057.177969 306 
" style="fill: none; stroke: #e5e5e5; stroke-width: 0.8; stroke-linejoin: miter; stroke-linecap: square"/>
   </g>
   <g id="text_52">
    <!-- $0.003 -->
    <g style="fill: #1f2937" transform="translate(791.662495 259.709464) scale(0.08 -0.08)">
     <defs>
      <path id="HelveticaNeue-24" d="M 704 1395 
L 160 1395 
Q 211 723 588 342 
Q 966 -38 1606 -102 
L 1606 -627 
L 1958 -627 
L 1958 -102 
Q 2266 -77 2522 25 
Q 2778 128 2963 304 
Q 3149 480 3254 723 
Q 3360 966 3360 1280 
Q 3360 1574 3248 1785 
Q 3136 1997 2976 2137 
Q 2816 2278 2643 2358 
Q 2470 2438 2342 2470 
L 1958 2573 
L 1958 4147 
Q 2547 4038 2675 3405 
L 3219 3405 
Q 3091 3968 2784 4288 
Q 2477 4608 1958 4672 
L 1958 5101 
L 1606 5101 
L 1606 4678 
Q 1331 4659 1091 4556 
Q 851 4454 675 4278 
Q 499 4102 396 3862 
Q 294 3622 294 3334 
Q 294 3053 371 2854 
Q 448 2656 611 2518 
Q 774 2381 1020 2281 
Q 1267 2182 1606 2099 
L 1606 403 
Q 1222 467 969 716 
Q 717 966 704 1395 
z
M 1958 403 
L 1958 2010 
Q 2131 1958 2284 1897 
Q 2438 1837 2547 1747 
Q 2656 1658 2720 1533 
Q 2784 1408 2784 1222 
Q 2784 1018 2723 867 
Q 2662 717 2550 617 
Q 2438 518 2288 467 
Q 2138 416 1958 403 
z
M 1606 4166 
L 1606 2669 
Q 1446 2714 1312 2771 
Q 1178 2829 1078 2909 
Q 979 2989 924 3107 
Q 870 3226 870 3392 
Q 870 3757 1084 3945 
Q 1299 4134 1606 4166 
z
" transform="scale(0.015625)"/>
     </defs>
     <use xlink:href="#HelveticaNeue-24"/>
     <use xlink:href="#HelveticaNeue-30" x="55.599991"/>
     <use xlink:href="#HelveticaNeue-2e" x="111.199982"/>
     <use xlink:href="#HelveticaNeue-30" x="138.999969"/>
     <use xlink:href="#HelveticaNeue-30" x="194.59996"/>
     <use xlink:href="#HelveticaNeue-33" x="250.199951"/>
    </g>
   </g>
   <g id="text_53">
    <!-- $0.004 -->
    <g style="fill: #1f2937" transform="translate(888.632192 245.804702) scale(0.08 -0.08)">
     <use xlink:href="#HelveticaNeue-24"/>
     <use xlink:href="#HelveticaNeue-30" x="55.599991"/>
     <use xlink:href="#HelveticaNeue-2e" x="111.199982"/>
     <use xlink:href="#HelveticaNeue-30" x="138.999969"/>
     <use xlink:href="#HelveticaNeue-30" x="194.59996"/>
     <use xlink:href="#HelveticaNeue-34" x="250.199951"/>
    </g>
   </g>
   <g id="text_54">
    <!-- $0.003 -->
    <g style="fill: #1f2937" transform="translate(985.601889 259.709464) scale(0.08 -0.08)">
     <use xlink:href="#HelveticaNeue-24"/>
     <use xlink:href="#HelveticaNeue-30" x="55.599991"/>
     <use xlink:href="#HelveticaNeue-2e" x="111.199982"/>
     <use xlink:href="#HelveticaNeue-30" x="138.999969"/>
     <use xlink:href="#HelveticaNeue-30" x="194.59996"/>
     <use xlink:href="#HelveticaNeue-33" x="250.199951"/>
    </g>
   </g>
   <g id="text_55">
    <!-- $0.002 -->
    <g style="fill: #1f2937" transform="translate(822.692798 273.614226) scale(0.08 -0.08)">
     <use xlink:href="#HelveticaNeue-24"/>
     <use xlink:href="#HelveticaNeue-30" x="55.599991"/>
     <use xlink:href="#HelveticaNeue-2e" x="111.199982"/>
     <use xlink:href="#HelveticaNeue-30" x="138.999969"/>
     <use xlink:href="#HelveticaNeue-30" x="194.59996"/>
     <use xlink:href="#HelveticaNeue-32" x="250.199951"/>
    </g>
   </g>
   <g id="text_56">
    <!-- $0.012 -->
    <g style="fill: #1f2937" transform="translate(919.662495 134.566607) scale(0.08 -0.08)">
     <use xlink:href="#HelveticaNeue-24"/>
     <use xlink:href="#HelveticaNeue-30" x="55.599991"/>
     <use xlink:href="#HelveticaNeue-2e" x="111.199982"/>
     <use xlink:href="#HelveticaNeue-30" x="138.999969"/>
     <use xlink:href="#HelveticaNeue-31" x="194.59996"/>
     <use xlink:href="#HelveticaNeue-32" x="250.199951"/>
    </g>
   </g>
   <g id="text_57">
    <!-- $0.018 -->
    <g style="fill: #1f2937" transform="translate(1016.632192 51.138036) scale(0.08 -0.08)">
     <use xlink:href="#HelveticaNeue-24"/>
     <use xlink:href="#HelveticaNeue-30" x="55.599991"/>
     <use xlink:href="#HelveticaNeue-2e" x="111.199982"/>
     <use xlink:href="#HelveticaNeue-30" x="138.999969"/>
     <use xlink:href="#HelveticaNeue-31" x="194.59996"/>
     <use xlink:href="#HelveticaNeue-38" x="250.199951"/>
    </g>
   </g>
   <g id="text_58">
    <!-- Cost per Task by Type -->
    <g style="fill: #1f2937" transform="translate(852.088906 28.2) scale(0.13 -0.13)">
     <use xlink:href="#HelveticaNeue-43"/>
     <use xlink:href="#HelveticaNeue-6f" x="72.199982"/>
     <use xlink:href="#HelveticaNeue-73" x="129.599976"/>
     <use xlink:href="#HelveticaNeue-74" x="179.59996"/>
     <use xlink:href="#HelveticaNeue-20" x="211.099945"/>
     <use xlink:href="#HelveticaNeue-70" x="238.899933"/>
     <use xlink:href="#HelveticaNeue-65" x="298.199921"/>
     <use xlink:href="#HelveticaNeue-72" x="351.899918"/>
     <use xlink:href="#HelveticaNeue-20" x="385.199905"/>
     <use xlink:href="#HelveticaNeue-54" x="412.999893"/>
     <use xlink:href="#HelveticaNeue-61" x="459.274887"/>
     <use xlink:href="#HelveticaNeue-73" x="512.974884"/>
     <use xlink:href="#HelveticaNeue-6b" x="562.974869"/>
     <use xlink:href="#HelveticaNeue-20" x="614.874863"/>
     <use xlink:href="#HelveticaNeue-62" x="642.67485"/>
     <use xlink:href="#HelveticaNeue-79" x="701.974838"/>
     <use xlink:href="#HelveticaNeue-20" x="751.974823"/>
     <use xlink:href="#HelveticaNeue-54" x="779.774811"/>
     <use xlink:href="#HelveticaNeue-79" x="826.049805"/>
     <use xlink:href="#HelveticaNeue-70" x="876.049789"/>
     <use xlink:href="#HelveticaNeue-65" x="935.349777"/>
    </g>
   </g>
   <g id="legend_3">
    <g id="patch_35">
     <path d="M 781.877969 76.103437 
L 875.669219 76.103437 
Q 877.469219 76.103437 877.469219 74.303437 
L 877.469219 49.5 
Q 877.469219 47.7 875.669219 47.7 
L 781.877969 47.7 
Q 780.077969 47.7 780.077969 49.5 
L 780.077969 74.303437 
Q 780.077969 76.103437 781.877969 76.103437 
z
" style="fill: #ffffff; opacity: 0.8; stroke: #e5e7eb; stroke-linejoin: miter"/>
    </g>
    <g id="patch_36">
     <path d="M 783.677969 57.878437 
L 801.677969 57.878437 
L 801.677969 51.578437 
L 783.677969 51.578437 
z
" style="fill: #10b981; opacity: 0.9; stroke: #ffffff; stroke-linejoin: miter"/>
    </g>
    <g id="text_59">
     <!-- PTC (Code-first) -->
     <g transform="translate(808.877969 57.878437) scale(0.09 -0.09)">
      <use xlink:href="#HelveticaNeue-50"/>
      <use xlink:href="#HelveticaNeue-54" x="64.799988"/>
      <use xlink:href="#HelveticaNeue-43" x="122.199982"/>
      <use xlink:href="#HelveticaNeue-20" x="194.399963"/>
      <use xlink:href="#HelveticaNeue-28" x="222.199951"/>
      <use xlink:href="#HelveticaNeue-43" x="248.099945"/>
      <use xlink:href="#HelveticaNeue-6f" x="320.299927"/>
      <use xlink:href="#HelveticaNeue-64" x="377.699921"/>
      <use xlink:href="#HelveticaNeue-65" x="436.999908"/>
      <use xlink:href="#HelveticaNeue-2d" x="490.699905"/>
      <use xlink:href="#HelveticaNeue-66" x="529.599899"/>
      <use xlink:href="#HelveticaNeue-69" x="559.19989"/>
      <use xlink:href="#HelveticaNeue-72" x="581.399887"/>
      <use xlink:href="#HelveticaNeue-73" x="614.699875"/>
      <use xlink:href="#HelveticaNeue-74" x="664.69986"/>
      <use xlink:href="#HelveticaNeue-29" x="696.199844"/>
     </g>
    </g>
    <g id="patch_37">
     <path d="M 783.677969 70.730156 
L 801.677969 70.730156 
L 801.677969 64.430156 
L 783.677969 64.430156 
z
" style="fill: #3b82f6; opacity: 0.9; stroke: #ffffff; stroke-linejoin: miter"/>
    </g>
    <g id="text_60">
     <!-- FC (JSON-first) -->
     <g transform="translate(808.877969 70.730156) scale(0.09 -0.09)">
      <use xlink:href="#HelveticaNeue-46"/>
      <use xlink:href="#HelveticaNeue-43" x="57.399994"/>
      <use xlink:href="#HelveticaNeue-20" x="129.599976"/>
      <use xlink:href="#HelveticaNeue-28" x="157.399963"/>
      <use xlink:href="#HelveticaNeue-4a" x="183.299957"/>
      <use xlink:href="#HelveticaNeue-53" x="235.199951"/>
      <use xlink:href="#HelveticaNeue-4f" x="299.999939"/>
      <use xlink:href="#HelveticaNeue-4e" x="375.999924"/>
      <use xlink:href="#HelveticaNeue-2d" x="448.199905"/>
      <use xlink:href="#HelveticaNeue-66" x="487.099899"/>
      <use xlink:href="#HelveticaNeue-69" x="516.69989"/>
      <use xlink:href="#HelveticaNeue-72" x="538.899887"/>
      <use xlink:href="#HelveticaNeue-73" x="572.199875"/>
      <use xlink:href="#HelveticaNeue-74" x="622.19986"/>
      <use xlink:href="#HelveticaNeue-29" x="653.699844"/>
     </g>
    </g>
   </g>
  </g>
  <g id="text_61">
   <!-- PTC vs Function Calling: Expected Performance Comparison -->
   <g style="fill: #1f2937" transform="translate(345.690938 18.164062) scale(0.15 -0.15)">
    <defs>
     <path id="HelveticaNeue-76" d="M 1901 0 
L 3110 3309 
L 2541 3309 
L 1638 550 
L 1626 550 
L 698 3309 
L 90 3309 
L 1318 0 
L 1901 0 
z
" transform="scale(0.015625)"/>
     <path id="HelveticaNeue-3a" d="M 1242 2598 
L 1242 3309 
L 531 3309 
L 531 2598 
L 1242 2598 
z
M 531 710 
L 531 0 
L 1242 0 
L 1242 710 
L 531 710 
z
" transform="scale(0.015625)"/>
    </defs>
    <use xlink:href="#HelveticaNeue-50"/>
    <use xlink:href="#HelveticaNeue-54" x="64.799988"/>
    <use xlink:href="#HelveticaNeue-43" x="122.199982"/>
    <use xlink:href="#HelveticaNeue-20" x="194.399963"/>
    <use xlink:href="#HelveticaNeue-76" x="222.199951"/>
    <use xlink:href="#HelveticaNeue-73" x="272.199936"/>
    <use xlink:href="#HelveticaNeue-20" x="322.199921"/>
    <use xlink:href="#HelveticaNeue-46" x="349.999908"/>
    <use xlink:href="#HelveticaNeue-75" x="407.399902"/>
    <use xlink:href="#HelveticaNeue-6e" x="462.999893"/>
    <use xlink:href="#HelveticaNeue-63" x="518.599884"/>
    <use xlink:href="#HelveticaNeue-74" x="572.299881"/>
    <use xlink:href="#HelveticaNeue-69" x="603.799866"/>
    <use xlink:href="#HelveticaNeue-6f" x="625.999863"/>
    <use xlink:href="#HelveticaNeue-6e" x="683.399857"/>
    <use xlink:href="#HelveticaNeue-20" x="738.999847"/>
    <use xlink:href="#HelveticaNeue-43" x="766.799835"/>
    <use xlink:href="#HelveticaNeue-61" x="838.999817"/>
    <use xlink:href="#HelveticaNeue-6c" x="892.699814"/>
    <use xlink:href="#HelveticaNeue-6c" x="914.899811"/>
    <use xlink:href="#HelveticaNeue-69" x="937.099808"/>
    <use xlink:href="#HelveticaNeue-6e" x="959.299805"/>
    <use xlink:href="#HelveticaNeue-67" x="1014.899796"/>
    <use xlink:href="#HelveticaNeue-3a" x="1072.299789"/>
    <use xlink:href="#HelveticaNeue-20" x="1100.099777"/>
    <use xlink:href="#HelveticaNeue-45" x="1127.899765"/>
    <use xlink:href="#HelveticaNeue-78" x="1188.999756"/>
    <use xlink:href="#HelveticaNeue-70" x="1240.799744"/>
    <use xlink:href="#HelveticaNeue-65" x="1300.099731"/>
    <use xlink:href="#HelveticaNeue-63" x="1353.799728"/>
    <use xlink:href="#HelveticaNeue-74" x="1407.499725"/>
    <use xlink:href="#HelveticaNeue-65" x="1438.99971"/>
    <use xlink:href="#HelveticaNeue-64" x="1492.699707"/>
    <use xlink:href="#HelveticaNeue-20" x="1551.999695"/>
    <use xlink:href="#HelveticaNeue-50" x="1579.799683"/>
    <use xlink:href="#HelveticaNeue-65" x="1644.59967"/>
    <use xlink:href="#HelveticaNeue-72" x="1698.299667"/>
    <use xlink:href="#HelveticaNeue-66" x="1731.599655"/>
    <use xlink:href="#HelveticaNeue-6f" x="1761.199646"/>
    <use xlink:href="#HelveticaNeue-72" x="1818.59964"/>
    <use xlink:href="#HelveticaNeue-6d" x="1851.899628"/>
    <use xlink:href="#HelveticaNeue-61" x="1937.199615"/>
    <use xlink:href="#HelveticaNeue-6e" x="1990.899612"/>
    <use xlink:href="#HelveticaNeue-63" x="2046.499603"/>
    <use xlink:href="#HelveticaNeue-65" x="2100.1996"/>
    <use xlink:href="#HelveticaNeue-20" x="2153.899597"/>
    <use xlink:href="#HelveticaNeue-43" x="2181.699585"/>
    <use xlink:href="#HelveticaNeue-6f" x="2253.899567"/>
    <use xlink:href="#HelveticaNeue-6d" x="2311.299561"/>
    <use xlink:href="#HelveticaNeue-70" x="2396.599548"/>
    <use xlink:href="#HelveticaNeue-61" x="2455.899536"/>
    <use xlink:href="#HelveticaNeue-72" x="2509.599533"/>
    <use xlink:href="#HelveticaNeue-69" x="2542.899521"/>
    <use xlink:href="#HelveticaNeue-73" x="2565.099518"/>
    <use xlink:href="#HelveticaNeue-6f" x="2615.099503"/>
    <use xlink:href="#HelveticaNeue-6e" x="2672.499496"/>
   </g>
  </g>
 </g>
 <defs>
  <clipPath id="pa91866997d">
   <rect x="43.417969" y="43.2" width="281.6" height="262.8"/>
  </clipPath>
  <clipPath id="p39121dcece">
   <rect x="409.497969" y="43.2" width="281.6" height="262.8"/>
  </clipPath>
  <clipPath id="p3151d8c56b">
   <rect x="775.577969" y="43.2" width="281.6" height="262.8"/>
  </clipPath>
 </defs>
</svg>
