<?xml version="1.0" encoding="utf-8" standalone="no"?>
<!DOCTYPE svg PUBLIC "-//W3C//DTD SVG 1.1//EN"
  "http://www.w3.org/Graphics/SVG/1.1/DTD/svg11.dtd">
<svg xmlns:xlink="http://www.w3.org/1999/xlink" width="1031.76pt" height="527.608437pt" viewBox="0 0 1031.76 527.608437" xmlns="http://www.w3.org/2000/svg" version="1.1">
 <metadata>
  <rdf:RDF xmlns:dc="http://purl.org/dc/elements/1.1/" xmlns:cc="http://creativecommons.org/ns#" xmlns:rdf="http://www.w3.org/1999/02/22-rdf-syntax-ns#">
   <cc:Work>
    <dc:type rdf:resource="http://purl.org/dc/dcmitype/StillImage"/>
    <dc:date>2026-03-07T11:45:44.154191</dc:date>
    <dc:format>image/svg+xml</dc:format>
    <dc:creator>
     <cc:Agent>
      <dc:title>Matplotlib v3.8.0, https://matplotlib.org/</dc:title>
     </cc:Agent>
    </dc:creator>
   </cc:Work>
  </rdf:RDF>
 </metadata>
 <defs>
  <style type="text/css">*{stroke-linejoin: round; stroke-linecap: butt}</style>
 </defs>
 <g id="figure_1">
  <g id="patch_1">
   <path d="M 0 527.608437 
L 1031.76 527.608437 
L 1031.76 0 
L 0 0 
z
" style="fill: #f6f8fa"/>
  </g>
  <g id="axes_1">
   <g id="patch_2">
    <path d="M 46.071 467.500037 
L 486.549 467.500037 
Q 493.8903 467.500037 493.8903 460.704437 
L 493.8903 98.272437 
Q 493.8903 91.476837 486.549 91.476837 
L 46.071 91.476837 
Q 38.7297 91.476837 38.7297 98.272437 
L 38.7297 460.704437 
Q 38.7297 467.500037 46.071 467.500037 
z
" clip-path="url(#p712b6b7a3c)" style="fill: #ffffff; stroke: #d0d7de; stroke-width: 2; stroke-linejoin: miter"/>
   </g>
   <g id="patch_3">
    <path d="M 46.071 123.189637 
L 486.549 123.189637 
Q 488.9961 123.189637 488.9961 120.924437 
L 488.9961 84.681237 
Q 488.9961 82.416037 486.549 82.416037 
L 46.071 82.416037 
Q 43.6239 82.416037 43.6239 84.681237 
L 43.6239 120.924437 
Q 43.6239 123.189637 46.071 123.189637 
z
" clip-path="url(#p712b6b7a3c)" style="fill: #f6f8fa; stroke: #d0d7de; stroke-linejoin: miter"/>
   </g>
   <g id="text_1">
    <!-- Agent Execution -->
    <g style="fill: #57606a" transform="translate(221.157656 102.802837) scale(0.1 -0.1)">
     <defs>
      <path id="DejaVuSansMono-41" d="M 1925 4109 
L 1259 1722 
L 2591 1722 
L 1925 4109 
z
M 1544 4666 
L 2309 4666 
L 3738 0 
L 3084 0 
L 2741 1216 
L 1106 1216 
L 769 0 
L 116 0 
L 1544 4666 
z
" transform="scale(0.015625)"/>
      <path id="DejaVuSansMono-67" d="M 2681 1778 
Q 2681 2425 2470 2761 
Q 2259 3097 1856 3097 
Q 1434 3097 1212 2761 
Q 991 2425 991 1778 
Q 991 1131 1214 792 
Q 1438 453 1863 453 
Q 2259 453 2470 793 
Q 2681 1134 2681 1778 
z
M 3256 225 
Q 3256 -563 2884 -969 
Q 2513 -1375 1791 -1375 
Q 1553 -1375 1293 -1331 
Q 1034 -1288 775 -1203 
L 775 -634 
Q 1081 -778 1331 -847 
Q 1581 -916 1791 -916 
Q 2256 -916 2468 -662 
Q 2681 -409 2681 141 
L 2681 166 
L 2681 556 
Q 2544 263 2306 119 
Q 2069 -25 1728 -25 
Q 1116 -25 750 465 
Q 384 956 384 1778 
Q 384 2603 750 3093 
Q 1116 3584 1728 3584 
Q 2066 3584 2300 3450 
Q 2534 3316 2681 3034 
L 2681 3488 
L 3256 3488 
L 3256 225 
z
" transform="scale(0.015625)"/>
      <path id="DejaVuSansMono-65" d="M 3475 1894 
L 3475 1613 
L 984 1613 
L 984 1594 
Q 984 1022 1282 709 
Q 1581 397 2125 397 
Q 2400 397 2700 484 
Q 3000 572 3341 750 
L 3341 178 
Q 3013 44 2708 -23 
Q 2403 -91 2119 -91 
Q 1303 -91 843 398 
Q 384 888 384 1747 
Q 384 2584 834 3084 
Q 1284 3584 2034 3584 
Q 2703 3584 3089 3131 
Q 3475 2678 3475 1894 
z
M 2900 2063 
Q 2888 2569 2661 2833 
Q 2434 3097 2009 3097 
Q 1594 3097 1325 2822 
Q 1056 2547 1006 2059 
L 2900 2063 
z
" transform="scale(0.015625)"/>
      <path id="DejaVuSansMono-6e" d="M 3284 2169 
L 3284 0 
L 2706 0 
L 2706 2169 
Q 2706 2641 2540 2862 
Q 2375 3084 2022 3084 
Q 1619 3084 1401 2798 
Q 1184 2513 1184 1978 
L 1184 0 
L 609 0 
L 609 3500 
L 1184 3500 
L 1184 2975 
Q 1338 3275 1600 3429 
Q 1863 3584 2222 3584 
Q 2756 3584 3020 3232 
Q 3284 2881 3284 2169 
z
" transform="scale(0.015625)"/>
      <path id="DejaVuSansMono-74" d="M 1919 4494 
L 1919 3500 
L 3225 3500 
L 3225 3053 
L 1919 3053 
L 1919 1153 
Q 1919 766 2066 612 
Q 2213 459 2578 459 
L 3225 459 
L 3225 0 
L 2522 0 
Q 1875 0 1609 259 
Q 1344 519 1344 1153 
L 1344 3053 
L 409 3053 
L 409 3500 
L 1344 3500 
L 1344 4494 
L 1919 4494 
z
" transform="scale(0.015625)"/>
      <path id="DejaVuSansMono-20" transform="scale(0.015625)"/>
      <path id="DejaVuSansMono-45" d="M 616 4666 
L 3384 4666 
L 3384 4134 
L 1247 4134 
L 1247 2753 
L 3291 2753 
L 3291 2222 
L 1247 2222 
L 1247 531 
L 3444 531 
L 3444 0 
L 616 0 
L 616 4666 
z
" transform="scale(0.015625)"/>
      <path id="DejaVuSansMono-78" d="M 3494 3500 
L 2241 1825 
L 3616 0 
L 2950 0 
L 1925 1403 
L 903 0 
L 238 0 
L 1613 1825 
L 359 3500 
L 997 3500 
L 1925 2234 
L 2847 3500 
L 3494 3500 
z
" transform="scale(0.015625)"/>
      <path id="DejaVuSansMono-63" d="M 3316 178 
Q 3084 44 2839 -23 
Q 2594 -91 2338 -91 
Q 1525 -91 1067 396 
Q 609 884 609 1747 
Q 609 2609 1067 3096 
Q 1525 3584 2338 3584 
Q 2591 3584 2831 3518 
Q 3072 3453 3316 3316 
L 3316 2713 
Q 3088 2916 2858 3006 
Q 2628 3097 2338 3097 
Q 1797 3097 1506 2747 
Q 1216 2397 1216 1747 
Q 1216 1100 1508 748 
Q 1800 397 2338 397 
Q 2638 397 2875 489 
Q 3113 581 3316 775 
L 3316 178 
z
" transform="scale(0.015625)"/>
      <path id="DejaVuSansMono-75" d="M 609 1325 
L 609 3494 
L 1184 3494 
L 1184 1325 
Q 1184 853 1351 631 
Q 1519 409 1869 409 
Q 2275 409 2490 695 
Q 2706 981 2706 1516 
L 2706 3494 
L 3284 3494 
L 3284 0 
L 2706 0 
L 2706 525 
Q 2553 222 2289 65 
Q 2025 -91 1672 -91 
Q 1134 -91 871 261 
Q 609 613 609 1325 
z
" transform="scale(0.015625)"/>
      <path id="DejaVuSansMono-69" d="M 800 3500 
L 2272 3500 
L 2272 447 
L 3413 447 
L 3413 0 
L 556 0 
L 556 447 
L 1697 447 
L 1697 3053 
L 800 3053 
L 800 3500 
z
M 1697 4863 
L 2272 4863 
L 2272 4134 
L 1697 4134 
L 1697 4863 
z
" transform="scale(0.015625)"/>
      <path id="DejaVuSansMono-6f" d="M 1925 3097 
Q 1488 3097 1263 2756 
Q 1038 2416 1038 1747 
Q 1038 1081 1263 739 
Q 1488 397 1925 397 
Q 2366 397 2591 739 
Q 2816 1081 2816 1747 
Q 2816 2416 2591 2756 
Q 2366 3097 1925 3097 
z
M 1925 3584 
Q 2653 3584 3039 3112 
Q 3425 2641 3425 1747 
Q 3425 850 3040 379 
Q 2656 -91 1925 -91 
Q 1197 -91 812 379 
Q 428 850 428 1747 
Q 428 2641 812 3112 
Q 1197 3584 1925 3584 
z
" transform="scale(0.015625)"/>
     </defs>
     <use xlink:href="#DejaVuSansMono-41"/>
     <use xlink:href="#DejaVuSansMono-67" x="60.205078"/>
     <use xlink:href="#DejaVuSansMono-65" x="120.410156"/>
     <use xlink:href="#DejaVuSansMono-6e" x="180.615234"/>
     <use xlink:href="#DejaVuSansMono-74" x="240.820312"/>
     <use xlink:href="#DejaVuSansMono-20" x="301.025391"/>
     <use xlink:href="#DejaVuSansMono-45" x="361.230469"/>
     <use xlink:href="#DejaVuSansMono-78" x="421.435547"/>
     <use xlink:href="#DejaVuSansMono-65" x="481.640625"/>
     <use xlink:href="#DejaVuSansMono-63" x="541.845703"/>
     <use xlink:href="#DejaVuSansMono-75" x="602.050781"/>
     <use xlink:href="#DejaVuSansMono-74" x="662.255859"/>
     <use xlink:href="#DejaVuSansMono-69" x="722.460938"/>
     <use xlink:href="#DejaVuSansMono-6f" x="782.666016"/>
     <use xlink:href="#DejaVuSansMono-6e" x="842.871094"/>
    </g>
   </g>
   <g id="text_2">
    <!-- ⏳ -->
    <g style="fill: #8c959f" transform="translate(251.86125 234.184437) scale(0.48 -0.48)">
     <defs>
      <path id="DejaVuSansMono-23f3" d="M 325 -1131 
L 325 4513 
L 3525 4513 
L 3525 -1131 
L 325 -1131 
z
M 684 -775 
L 3169 -775 
L 3169 4153 
L 684 4153 
L 684 -775 
z
" transform="scale(0.015625)"/>
     </defs>
     <use xlink:href="#DejaVuSansMono-23f3"/>
    </g>
   </g>
   <g id="text_3">
    <!-- Waiting... -->
    <g style="fill: #6e7781" transform="translate(230.188125 302.140437) scale(0.12 -0.12)">
     <defs>
      <path id="DejaVuSansMono-57" d="M 0 4666 
L 616 4666 
L 1063 878 
L 1594 3384 
L 2253 3384 
L 2791 872 
L 3238 4666 
L 3853 4666 
L 3156 0 
L 2559 0 
L 1925 2772 
L 1294 0 
L 697 0 
L 0 4666 
z
" transform="scale(0.015625)"/>
      <path id="DejaVuSansMono-61" d="M 2194 1759 
L 2003 1759 
Q 1500 1759 1245 1582 
Q 991 1406 991 1056 
Q 991 741 1181 566 
Q 1372 391 1709 391 
Q 2184 391 2456 720 
Q 2728 1050 2731 1631 
L 2731 1759 
L 2194 1759 
z
M 3309 1997 
L 3309 0 
L 2731 0 
L 2731 519 
Q 2547 206 2267 57 
Q 1988 -91 1588 -91 
Q 1053 -91 734 211 
Q 416 513 416 1019 
Q 416 1603 808 1906 
Q 1200 2209 1959 2209 
L 2731 2209 
L 2731 2300 
Q 2728 2719 2518 2908 
Q 2309 3097 1850 3097 
Q 1556 3097 1256 3012 
Q 956 2928 672 2766 
L 672 3341 
Q 991 3463 1283 3523 
Q 1575 3584 1850 3584 
Q 2284 3584 2592 3456 
Q 2900 3328 3091 3072 
Q 3209 2916 3259 2686 
Q 3309 2456 3309 1997 
z
" transform="scale(0.015625)"/>
      <path id="DejaVuSansMono-2e" d="M 1528 953 
L 2316 953 
L 2316 0 
L 1528 0 
L 1528 953 
z
" transform="scale(0.015625)"/>
     </defs>
     <use xlink:href="#DejaVuSansMono-57"/>
     <use xlink:href="#DejaVuSansMono-61" x="60.205078"/>
     <use xlink:href="#DejaVuSansMono-69" x="120.410156"/>
     <use xlink:href="#DejaVuSansMono-74" x="180.615234"/>
     <use xlink:href="#DejaVuSansMono-69" x="240.820312"/>
     <use xlink:href="#DejaVuSansMono-6e" x="301.025391"/>
     <use xlink:href="#DejaVuSansMono-67" x="361.230469"/>
     <use xlink:href="#DejaVuSansMono-2e" x="421.435547"/>
     <use xlink:href="#DejaVuSansMono-2e" x="481.640625"/>
     <use xlink:href="#DejaVuSansMono-2e" x="541.845703"/>
    </g>
   </g>
   <g id="text_4">
    <!-- No visibility until completion -->
    <g style="fill: #8c959f" transform="translate(176.005313 347.444437) scale(0.1 -0.1)">
     <defs>
      <path id="DejaVuSansMono-Oblique-4e" d="M 891 4666 
L 1691 4666 
L 2516 825 
L 3263 4666 
L 3872 4666 
L 2963 0 
L 2163 0 
L 1338 3841 
L 588 0 
L -19 0 
L 891 4666 
z
" transform="scale(0.015625)"/>
      <path id="DejaVuSansMono-Oblique-6f" d="M 2175 3097 
Q 1663 3097 1320 2562 
Q 978 2028 978 1203 
Q 978 800 1153 598 
Q 1328 397 1678 397 
Q 2191 397 2533 931 
Q 2875 1466 2875 2291 
Q 2875 2694 2700 2895 
Q 2525 3097 2175 3097 
z
M 2228 3584 
Q 2841 3584 3161 3250 
Q 3481 2916 3481 2272 
Q 3481 1841 3353 1414 
Q 3225 988 2994 647 
Q 2747 278 2394 93 
Q 2041 -91 1581 -91 
Q 997 -91 681 251 
Q 366 594 366 1228 
Q 366 1650 494 2072 
Q 622 2494 856 2847 
Q 1103 3209 1451 3396 
Q 1800 3584 2228 3584 
z
" transform="scale(0.015625)"/>
      <path id="DejaVuSansMono-Oblique-20" transform="scale(0.015625)"/>
      <path id="DejaVuSansMono-Oblique-76" d="M 569 3500 
L 1125 3500 
L 1606 513 
L 3175 3500 
L 3794 3500 
L 1875 0 
L 1131 0 
L 569 3500 
z
" transform="scale(0.015625)"/>
      <path id="DejaVuSansMono-Oblique-69" d="M 1119 3500 
L 2591 3500 
L 1997 447 
L 3138 447 
L 3047 0 
L 191 0 
L 281 447 
L 1422 447 
L 1925 3053 
L 1031 3053 
L 1119 3500 
z
M 2278 4863 
L 2853 4863 
L 2713 4134 
L 2138 4134 
L 2278 4863 
z
" transform="scale(0.015625)"/>
      <path id="DejaVuSansMono-Oblique-73" d="M 3366 3378 
L 3256 2816 
Q 3034 2956 2789 3029 
Q 2544 3103 2303 3103 
Q 1875 3103 1639 2943 
Q 1403 2784 1403 2497 
Q 1403 2191 2094 2016 
Q 2141 2003 2163 1997 
L 2388 1941 
Q 2753 1844 2934 1651 
Q 3116 1459 3116 1172 
Q 3116 606 2666 257 
Q 2216 -91 1472 -91 
Q 1219 -91 944 -36 
Q 669 19 359 128 
L 475 722 
Q 769 556 1045 473 
Q 1322 391 1581 391 
Q 1997 391 2259 577 
Q 2522 763 2522 1050 
Q 2522 1359 1909 1522 
Q 1853 1534 1822 1544 
L 1613 1600 
Q 1209 1703 1020 1903 
Q 831 2103 831 2425 
Q 831 2956 1243 3270 
Q 1656 3584 2356 3584 
Q 2631 3584 2884 3532 
Q 3138 3481 3366 3378 
z
" transform="scale(0.015625)"/>
      <path id="DejaVuSansMono-Oblique-62" d="M 1684 397 
Q 1947 397 2159 537 
Q 2372 678 2516 947 
Q 2669 1241 2758 1603 
Q 2847 1966 2847 2303 
Q 2847 2703 2689 2903 
Q 2531 3103 2216 3103 
Q 1956 3103 1742 2959 
Q 1528 2816 1369 2541 
Q 1219 2272 1128 1908 
Q 1038 1544 1038 1197 
Q 1038 813 1205 605 
Q 1372 397 1684 397 
z
M 1356 3053 
Q 1550 3316 1806 3450 
Q 2063 3584 2381 3584 
Q 2894 3584 3178 3261 
Q 3463 2938 3463 2356 
Q 3463 1903 3334 1453 
Q 3206 1003 2981 666 
Q 2744 306 2401 107 
Q 2059 -91 1672 -91 
Q 1366 -91 1158 43 
Q 950 178 844 441 
L 763 0 
L 184 0 
L 1131 4863 
L 1709 4863 
L 1356 3053 
z
" transform="scale(0.015625)"/>
      <path id="DejaVuSansMono-Oblique-6c" d="M 1875 1275 
Q 1853 1166 1842 1081 
Q 1831 997 1831 941 
Q 1831 713 1970 600 
Q 2109 488 2394 488 
L 3053 488 
L 2956 0 
L 2309 0 
Q 1769 0 1505 198 
Q 1241 397 1241 806 
Q 1241 894 1256 1019 
Q 1272 1144 1300 1288 
L 1959 4447 
L 972 4447 
L 1063 4897 
L 2625 4897 
L 1875 1275 
z
" transform="scale(0.015625)"/>
      <path id="DejaVuSansMono-Oblique-74" d="M 2400 4494 
L 2209 3500 
L 3513 3500 
L 3425 3053 
L 2119 3053 
L 1747 1153 
Q 1728 1059 1718 979 
Q 1709 900 1709 831 
Q 1709 625 1831 542 
Q 1953 459 2272 459 
L 2919 459 
L 2828 0 
L 2131 0 
Q 1609 0 1364 173 
Q 1119 347 1119 716 
Q 1119 794 1131 900 
Q 1144 1006 1172 1153 
L 1544 3053 
L 609 3053 
L 697 3500 
L 1631 3500 
L 1825 4494 
L 2400 4494 
z
" transform="scale(0.015625)"/>
      <path id="DejaVuSansMono-Oblique-79" d="M 2456 1125 
Q 2263 791 1941 225 
Q 1456 -634 1288 -863 
Q 1106 -1100 873 -1215 
Q 641 -1331 341 -1331 
L -122 -1331 
L -31 -850 
L 306 -850 
Q 559 -850 742 -704 
Q 925 -559 1113 -206 
L 1247 56 
L 569 3500 
L 1141 3500 
L 1678 806 
L 3188 3500 
L 3828 3500 
L 2456 1125 
z
" transform="scale(0.015625)"/>
      <path id="DejaVuSansMono-Oblique-75" d="M 447 1331 
L 863 3500 
L 1441 3500 
L 1019 1331 
Q 997 1216 984 1109 
Q 972 1003 972 928 
Q 972 681 1117 548 
Q 1263 416 1528 416 
Q 1925 416 2200 705 
Q 2475 994 2578 1522 
L 2963 3500 
L 3541 3500 
L 2859 0 
L 2284 0 
L 2388 525 
Q 2159 219 1881 67 
Q 1603 -84 1275 -84 
Q 866 -84 628 145 
Q 391 375 391 769 
Q 391 891 405 1036 
Q 419 1181 447 1331 
z
" transform="scale(0.015625)"/>
      <path id="DejaVuSansMono-Oblique-6e" d="M 3359 2169 
L 2938 0 
L 2363 0 
L 2784 2172 
Q 2788 2184 2794 2216 
Q 2841 2438 2841 2559 
Q 2841 2813 2695 2948 
Q 2550 3084 2278 3084 
Q 1881 3084 1603 2793 
Q 1325 2503 1222 1978 
L 838 0 
L 263 0 
L 947 3500 
L 1522 3500 
L 1422 2975 
Q 1656 3278 1929 3431 
Q 2203 3584 2509 3584 
Q 2944 3584 3184 3357 
Q 3425 3131 3425 2725 
Q 3425 2625 3408 2478 
Q 3391 2331 3359 2169 
z
" transform="scale(0.015625)"/>
      <path id="DejaVuSansMono-Oblique-63" d="M 2938 159 
Q 2709 38 2448 -26 
Q 2188 -91 1906 -91 
Q 1206 -91 847 261 
Q 488 613 488 1300 
Q 488 1766 655 2214 
Q 822 2663 1106 2969 
Q 1397 3278 1745 3431 
Q 2094 3584 2509 3584 
Q 2788 3584 3047 3517 
Q 3306 3450 3553 3316 
L 3438 2747 
Q 3231 2928 3012 3012 
Q 2794 3097 2528 3097 
Q 2184 3097 1918 2958 
Q 1653 2819 1466 2541 
Q 1291 2284 1192 1954 
Q 1094 1625 1094 1300 
Q 1094 850 1308 623 
Q 1522 397 1947 397 
Q 2247 397 2523 494 
Q 2800 591 3059 788 
L 2938 159 
z
" transform="scale(0.015625)"/>
      <path id="DejaVuSansMono-Oblique-6d" d="M 2338 3144 
Q 2459 3356 2654 3470 
Q 2850 3584 3091 3584 
Q 3359 3584 3520 3414 
Q 3681 3244 3681 2956 
Q 3681 2788 3653 2575 
Q 3625 2363 3559 2028 
L 3163 0 
L 2638 0 
L 3028 2003 
Q 3084 2291 3114 2473 
Q 3144 2656 3144 2731 
Q 3144 2928 3072 3015 
Q 3000 3103 2841 3103 
Q 2606 3103 2475 2901 
Q 2344 2700 2209 2003 
L 1819 0 
L 1294 0 
L 1684 2003 
Q 1744 2306 1770 2482 
Q 1797 2659 1797 2731 
Q 1797 2922 1723 3012 
Q 1650 3103 1497 3103 
Q 1266 3103 1139 2917 
Q 1013 2731 872 2003 
L 481 0 
L -44 0 
L 634 3500 
L 1159 3500 
L 1100 3200 
Q 1238 3388 1411 3486 
Q 1584 3584 1784 3584 
Q 2019 3584 2162 3467 
Q 2306 3350 2338 3144 
z
" transform="scale(0.015625)"/>
      <path id="DejaVuSansMono-Oblique-70" d="M 916 441 
L 569 -1331 
L -6 -1331 
L 934 3500 
L 1509 3500 
L 1422 3053 
Q 1613 3309 1881 3446 
Q 2150 3584 2463 3584 
Q 2969 3584 3247 3259 
Q 3525 2934 3525 2350 
Q 3525 1903 3401 1453 
Q 3278 1003 3059 659 
Q 2825 291 2506 100 
Q 2188 -91 1806 -91 
Q 1494 -91 1273 40 
Q 1053 172 916 441 
z
M 1778 397 
Q 2031 397 2240 536 
Q 2450 675 2591 941 
Q 2744 1228 2831 1589 
Q 2919 1950 2919 2303 
Q 2919 2700 2758 2898 
Q 2597 3097 2278 3097 
Q 2013 3097 1798 2956 
Q 1584 2816 1434 2541 
Q 1281 2266 1193 1909 
Q 1106 1553 1106 1197 
Q 1106 813 1281 605 
Q 1456 397 1778 397 
z
" transform="scale(0.015625)"/>
      <path id="DejaVuSansMono-Oblique-65" d="M 2931 2059 
Q 2950 2144 2956 2198 
Q 2963 2253 2963 2303 
Q 2963 2678 2759 2887 
Q 2556 3097 2194 3097 
Q 1809 3097 1492 2815 
Q 1175 2534 1038 2059 
L 2931 2059 
z
M 3003 178 
Q 2675 44 2362 -23 
Q 2050 -91 1728 -91 
Q 1031 -91 668 257 
Q 306 606 306 1275 
Q 306 1763 493 2231 
Q 681 2700 1013 3041 
Q 1272 3309 1586 3450 
Q 1900 3591 2241 3591 
Q 2822 3591 3170 3233 
Q 3519 2875 3519 2278 
Q 3519 2172 3503 2014 
Q 3488 1856 3450 1613 
L 928 1613 
Q 909 1513 900 1431 
Q 891 1350 891 1288 
Q 891 853 1131 625 
Q 1372 397 1831 397 
Q 2106 397 2432 486 
Q 2759 575 3116 750 
L 3003 178 
z
" transform="scale(0.015625)"/>
     </defs>
     <use xlink:href="#DejaVuSansMono-Oblique-4e"/>
     <use xlink:href="#DejaVuSansMono-Oblique-6f" x="60.205078"/>
     <use xlink:href="#DejaVuSansMono-Oblique-20" x="120.410156"/>
     <use xlink:href="#DejaVuSansMono-Oblique-76" x="180.615234"/>
     <use xlink:href="#DejaVuSansMono-Oblique-69" x="240.820312"/>
     <use xlink:href="#DejaVuSansMono-Oblique-73" x="301.025391"/>
     <use xlink:href="#DejaVuSansMono-Oblique-69" x="361.230469"/>
     <use xlink:href="#DejaVuSansMono-Oblique-62" x="421.435547"/>
     <use xlink:href="#DejaVuSansMono-Oblique-69" x="481.640625"/>
     <use xlink:href="#DejaVuSansMono-Oblique-6c" x="541.845703"/>
     <use xlink:href="#DejaVuSansMono-Oblique-69" x="602.050781"/>
     <use xlink:href="#DejaVuSansMono-Oblique-74" x="662.255859"/>
     <use xlink:href="#DejaVuSansMono-Oblique-79" x="722.460938"/>
     <use xlink:href="#DejaVuSansMono-Oblique-20" x="782.666016"/>
     <use xlink:href="#DejaVuSansMono-Oblique-75" x="842.871094"/>
     <use xlink:href="#DejaVuSansMono-Oblique-6e" x="903.076172"/>
     <use xlink:href="#DejaVuSansMono-Oblique-74" x="963.28125"/>
     <use xlink:href="#DejaVuSansMono-Oblique-69" x="1023.486328"/>
     <use xlink:href="#DejaVuSansMono-Oblique-6c" x="1083.691406"/>
     <use xlink:href="#DejaVuSansMono-Oblique-20" x="1143.896484"/>
     <use xlink:href="#DejaVuSansMono-Oblique-63" x="1204.101562"/>
     <use xlink:href="#DejaVuSansMono-Oblique-6f" x="1264.306641"/>
     <use xlink:href="#DejaVuSansMono-Oblique-6d" x="1324.511719"/>
     <use xlink:href="#DejaVuSansMono-Oblique-70" x="1384.716797"/>
     <use xlink:href="#DejaVuSansMono-Oblique-6c" x="1444.921875"/>
     <use xlink:href="#DejaVuSansMono-Oblique-65" x="1505.126953"/>
     <use xlink:href="#DejaVuSansMono-Oblique-74" x="1565.332031"/>
     <use xlink:href="#DejaVuSansMono-Oblique-69" x="1625.537109"/>
     <use xlink:href="#DejaVuSansMono-Oblique-6f" x="1685.742188"/>
     <use xlink:href="#DejaVuSansMono-Oblique-6e" x="1745.947266"/>
    </g>
   </g>
   <g id="text_5">
    <!-- ❌ Timeout risk: 30s limit -->
    <g style="fill: #cf222e" transform="translate(191.056094 415.400437) scale(0.1 -0.1)">
     <defs>
      <path id="DejaVuSansMono-274c" d="M 325 -1131 
L 325 4513 
L 3525 4513 
L 3525 -1131 
L 325 -1131 
z
M 684 -775 
L 3169 -775 
L 3169 4153 
L 684 4153 
L 684 -775 
z
" transform="scale(0.015625)"/>
      <path id="DejaVuSansMono-54" d="M 147 4666 
L 3706 4666 
L 3706 4134 
L 2247 4134 
L 2247 0 
L 1613 0 
L 1613 4134 
L 147 4134 
L 147 4666 
z
" transform="scale(0.015625)"/>
      <path id="DejaVuSansMono-6d" d="M 2113 3144 
Q 2219 3369 2383 3476 
Q 2547 3584 2778 3584 
Q 3200 3584 3373 3257 
Q 3547 2931 3547 2028 
L 3547 0 
L 3022 0 
L 3022 2003 
Q 3022 2744 2939 2923 
Q 2856 3103 2638 3103 
Q 2388 3103 2295 2911 
Q 2203 2719 2203 2003 
L 2203 0 
L 1678 0 
L 1678 2003 
Q 1678 2753 1589 2928 
Q 1500 3103 1269 3103 
Q 1041 3103 952 2911 
Q 863 2719 863 2003 
L 863 0 
L 341 0 
L 341 3500 
L 863 3500 
L 863 3200 
Q 966 3388 1120 3486 
Q 1275 3584 1472 3584 
Q 1709 3584 1867 3475 
Q 2025 3366 2113 3144 
z
" transform="scale(0.015625)"/>
      <path id="DejaVuSansMono-72" d="M 3609 2778 
Q 3425 2922 3234 2987 
Q 3044 3053 2816 3053 
Q 2278 3053 1993 2715 
Q 1709 2378 1709 1741 
L 1709 0 
L 1131 0 
L 1131 3500 
L 1709 3500 
L 1709 2816 
Q 1853 3188 2151 3386 
Q 2450 3584 2859 3584 
Q 3072 3584 3256 3531 
Q 3441 3478 3609 3366 
L 3609 2778 
z
" transform="scale(0.015625)"/>
      <path id="DejaVuSansMono-73" d="M 3041 3378 
L 3041 2816 
Q 2794 2959 2544 3031 
Q 2294 3103 2034 3103 
Q 1644 3103 1451 2976 
Q 1259 2850 1259 2591 
Q 1259 2356 1403 2240 
Q 1547 2125 2119 2016 
L 2350 1972 
Q 2778 1891 2998 1647 
Q 3219 1403 3219 1013 
Q 3219 494 2850 201 
Q 2481 -91 1825 -91 
Q 1566 -91 1281 -36 
Q 997 19 666 128 
L 666 722 
Q 988 556 1281 473 
Q 1575 391 1838 391 
Q 2219 391 2428 545 
Q 2638 700 2638 978 
Q 2638 1378 1872 1531 
L 1847 1538 
L 1631 1581 
Q 1134 1678 906 1908 
Q 678 2138 678 2534 
Q 678 3038 1018 3311 
Q 1359 3584 1991 3584 
Q 2272 3584 2531 3532 
Q 2791 3481 3041 3378 
z
" transform="scale(0.015625)"/>
      <path id="DejaVuSansMono-6b" d="M 738 4863 
L 1331 4863 
L 1331 2047 
L 2841 3500 
L 3541 3500 
L 2163 2181 
L 3756 0 
L 3053 0 
L 1759 1806 
L 1331 1403 
L 1331 0 
L 738 0 
L 738 4863 
z
" transform="scale(0.015625)"/>
      <path id="DejaVuSansMono-3a" d="M 1528 3322 
L 2316 3322 
L 2316 2375 
L 1528 2375 
L 1528 3322 
z
M 1528 953 
L 2316 953 
L 2316 0 
L 1528 0 
L 1528 953 
z
" transform="scale(0.015625)"/>
      <path id="DejaVuSansMono-33" d="M 2425 2497 
Q 2884 2375 3128 2064 
Q 3372 1753 3372 1288 
Q 3372 644 2939 276 
Q 2506 -91 1741 -91 
Q 1419 -91 1084 -31 
Q 750 28 428 141 
L 428 769 
Q 747 603 1056 522 
Q 1366 441 1672 441 
Q 2191 441 2469 675 
Q 2747 909 2747 1350 
Q 2747 1756 2469 1995 
Q 2191 2234 1716 2234 
L 1234 2234 
L 1234 2753 
L 1716 2753 
Q 2150 2753 2394 2943 
Q 2638 3134 2638 3475 
Q 2638 3834 2411 4026 
Q 2184 4219 1766 4219 
Q 1488 4219 1191 4156 
Q 894 4094 569 3969 
L 569 4550 
Q 947 4650 1242 4700 
Q 1538 4750 1766 4750 
Q 2447 4750 2855 4408 
Q 3263 4066 3263 3500 
Q 3263 3116 3048 2859 
Q 2834 2603 2425 2497 
z
" transform="scale(0.015625)"/>
      <path id="DejaVuSansMono-30" d="M 1509 2344 
Q 1509 2516 1629 2641 
Q 1750 2766 1919 2766 
Q 2094 2766 2219 2641 
Q 2344 2516 2344 2344 
Q 2344 2169 2220 2047 
Q 2097 1925 1919 1925 
Q 1744 1925 1626 2044 
Q 1509 2163 1509 2344 
z
M 1925 4250 
Q 1484 4250 1267 3775 
Q 1050 3300 1050 2328 
Q 1050 1359 1267 884 
Q 1484 409 1925 409 
Q 2369 409 2586 884 
Q 2803 1359 2803 2328 
Q 2803 3300 2586 3775 
Q 2369 4250 1925 4250 
z
M 1925 4750 
Q 2672 4750 3055 4137 
Q 3438 3525 3438 2328 
Q 3438 1134 3055 521 
Q 2672 -91 1925 -91 
Q 1178 -91 797 521 
Q 416 1134 416 2328 
Q 416 3525 797 4137 
Q 1178 4750 1925 4750 
z
" transform="scale(0.015625)"/>
      <path id="DejaVuSansMono-6c" d="M 1997 1269 
Q 1997 881 2139 684 
Q 2281 488 2559 488 
L 3231 488 
L 3231 0 
L 2503 0 
Q 1988 0 1705 331 
Q 1422 663 1422 1269 
L 1422 4447 
L 500 4447 
L 500 4897 
L 1997 4897 
L 1997 1269 
z
" transform="scale(0.015625)"/>
     </defs>
     <use xlink:href="#DejaVuSansMono-274c"/>
     <use xlink:href="#DejaVuSansMono-20" x="60.205078"/>
     <use xlink:href="#DejaVuSansMono-54" x="120.410156"/>
     <use xlink:href="#DejaVuSansMono-69" x="180.615234"/>
     <use xlink:href="#DejaVuSansMono-6d" x="240.820312"/>
     <use xlink:href="#DejaVuSansMono-65" x="301.025391"/>
     <use xlink:href="#DejaVuSansMono-6f" x="361.230469"/>
     <use xlink:href="#DejaVuSansMono-75" x="421.435547"/>
     <use xlink:href="#DejaVuSansMono-74" x="481.640625"/>
     <use xlink:href="#DejaVuSansMono-20" x="541.845703"/>
     <use xlink:href="#DejaVuSansMono-72" x="602.050781"/>
     <use xlink:href="#DejaVuSansMono-69" x="662.255859"/>
     <use xlink:href="#DejaVuSansMono-73" x="722.460938"/>
     <use xlink:href="#DejaVuSansMono-6b" x="782.666016"/>
     <use xlink:href="#DejaVuSansMono-3a" x="842.871094"/>
     <use xlink:href="#DejaVuSansMono-20" x="903.076172"/>
     <use xlink:href="#DejaVuSansMono-33" x="963.28125"/>
     <use xlink:href="#DejaVuSansMono-30" x="1023.486328"/>
     <use xlink:href="#DejaVuSansMono-73" x="1083.691406"/>
     <use xlink:href="#DejaVuSansMono-20" x="1143.896484"/>
     <use xlink:href="#DejaVuSansMono-6c" x="1204.101562"/>
     <use xlink:href="#DejaVuSansMono-69" x="1264.306641"/>
     <use xlink:href="#DejaVuSansMono-6d" x="1324.511719"/>
     <use xlink:href="#DejaVuSansMono-69" x="1384.716797"/>
     <use xlink:href="#DejaVuSansMono-74" x="1444.921875"/>
    </g>
   </g>
   <g id="text_6">
    <!-- Agent Execution -->
    <g style="fill: #c9d1d9" transform="translate(221.157656 102.802837) scale(0.1 -0.1)">
     <use xlink:href="#DejaVuSansMono-41"/>
     <use xlink:href="#DejaVuSansMono-67" x="60.205078"/>
     <use xlink:href="#DejaVuSansMono-65" x="120.410156"/>
     <use xlink:href="#DejaVuSansMono-6e" x="180.615234"/>
     <use xlink:href="#DejaVuSansMono-74" x="240.820312"/>
     <use xlink:href="#DejaVuSansMono-20" x="301.025391"/>
     <use xlink:href="#DejaVuSansMono-45" x="361.230469"/>
     <use xlink:href="#DejaVuSansMono-78" x="421.435547"/>
     <use xlink:href="#DejaVuSansMono-65" x="481.640625"/>
     <use xlink:href="#DejaVuSansMono-63" x="541.845703"/>
     <use xlink:href="#DejaVuSansMono-75" x="602.050781"/>
     <use xlink:href="#DejaVuSansMono-74" x="662.255859"/>
     <use xlink:href="#DejaVuSansMono-69" x="722.460938"/>
     <use xlink:href="#DejaVuSansMono-6f" x="782.666016"/>
     <use xlink:href="#DejaVuSansMono-6e" x="842.871094"/>
    </g>
   </g>
   <g id="text_7">
    <!-- Traditional Execution -->
    <g style="fill: #24292f" transform="translate(177.811406 32.968437) scale(0.14 -0.14)">
     <defs>
      <path id="DejaVuSansMono-Bold-54" d="M 2388 0 
L 1466 0 
L 1466 3859 
L 281 3859 
L 281 4666 
L 3572 4666 
L 3572 3859 
L 2388 3859 
L 2388 0 
z
" transform="scale(0.015625)"/>
      <path id="DejaVuSansMono-Bold-72" d="M 3597 2534 
Q 3447 2672 3245 2740 
Q 3044 2809 2803 2809 
Q 2513 2809 2295 2707 
Q 2078 2606 1959 2413 
Q 1884 2294 1854 2125 
Q 1825 1956 1825 1613 
L 1825 0 
L 909 0 
L 909 3500 
L 1825 3500 
L 1825 2956 
Q 1959 3256 2237 3420 
Q 2516 3584 2888 3584 
Q 3075 3584 3254 3539 
Q 3434 3494 3597 3406 
L 3597 2534 
z
" transform="scale(0.015625)"/>
      <path id="DejaVuSansMono-Bold-61" d="M 2188 1644 
Q 1675 1644 1472 1512 
Q 1269 1381 1269 1063 
Q 1269 825 1409 684 
Q 1550 544 1791 544 
Q 2153 544 2353 817 
Q 2553 1091 2553 1581 
L 2553 1644 
L 2188 1644 
z
M 3463 1997 
L 3463 0 
L 2553 0 
L 2553 391 
Q 2388 159 2128 34 
Q 1869 -91 1556 -91 
Q 959 -91 626 225 
Q 294 541 294 1106 
Q 294 1719 691 2011 
Q 1088 2303 1919 2303 
L 2553 2303 
L 2553 2456 
Q 2553 2678 2392 2792 
Q 2231 2906 1919 2906 
Q 1591 2906 1283 2823 
Q 975 2741 641 2559 
L 641 3341 
Q 944 3466 1256 3525 
Q 1569 3584 1919 3584 
Q 2772 3584 3117 3237 
Q 3463 2891 3463 1997 
z
" transform="scale(0.015625)"/>
      <path id="DejaVuSansMono-Bold-64" d="M 2472 3003 
L 2472 4863 
L 3384 4863 
L 3384 0 
L 2472 0 
L 2472 519 
Q 2325 216 2092 62 
Q 1859 -91 1544 -91 
Q 944 -91 612 390 
Q 281 872 281 1747 
Q 281 2634 617 3109 
Q 953 3584 1575 3584 
Q 1856 3584 2079 3439 
Q 2303 3294 2472 3003 
z
M 1197 1741 
Q 1197 1234 1365 946 
Q 1534 659 1831 659 
Q 2128 659 2300 946 
Q 2472 1234 2472 1741 
Q 2472 2247 2300 2534 
Q 2128 2822 1831 2822 
Q 1534 2822 1365 2534 
Q 1197 2247 1197 1741 
z
" transform="scale(0.015625)"/>
      <path id="DejaVuSansMono-Bold-69" d="M 691 3500 
L 2503 3500 
L 2503 703 
L 3641 703 
L 3641 0 
L 447 0 
L 447 703 
L 1588 703 
L 1588 2797 
L 691 2797 
L 691 3500 
z
M 1588 5203 
L 2503 5203 
L 2503 4134 
L 1588 4134 
L 1588 5203 
z
" transform="scale(0.015625)"/>
      <path id="DejaVuSansMono-Bold-74" d="M 2156 4494 
L 2156 3500 
L 3353 3500 
L 3353 2797 
L 2156 2797 
L 2156 1141 
Q 2156 906 2270 804 
Q 2384 703 2650 703 
L 3353 703 
L 3353 0 
L 2584 0 
Q 1797 0 1519 251 
Q 1241 503 1241 1184 
L 1241 2797 
L 347 2797 
L 347 3500 
L 1241 3500 
L 1241 4494 
L 2156 4494 
z
" transform="scale(0.015625)"/>
      <path id="DejaVuSansMono-Bold-6f" d="M 1925 2841 
Q 1597 2841 1409 2552 
Q 1222 2263 1222 1747 
Q 1222 1231 1409 942 
Q 1597 653 1925 653 
Q 2256 653 2443 942 
Q 2631 1231 2631 1747 
Q 2631 2263 2443 2552 
Q 2256 2841 1925 2841 
z
M 306 1747 
Q 306 2594 745 3089 
Q 1184 3584 1925 3584 
Q 2669 3584 3108 3089 
Q 3547 2594 3547 1747 
Q 3547 900 3108 404 
Q 2669 -91 1925 -91 
Q 1184 -91 745 404 
Q 306 900 306 1747 
z
" transform="scale(0.015625)"/>
      <path id="DejaVuSansMono-Bold-6e" d="M 3347 2272 
L 3347 0 
L 2438 0 
L 2438 2131 
Q 2438 2513 2330 2677 
Q 2222 2841 1978 2841 
Q 1731 2841 1589 2619 
Q 1447 2397 1447 2003 
L 1447 0 
L 538 0 
L 538 3500 
L 1447 3500 
L 1447 2975 
Q 1544 3266 1778 3425 
Q 2013 3584 2344 3584 
Q 2841 3584 3094 3254 
Q 3347 2925 3347 2272 
z
" transform="scale(0.015625)"/>
      <path id="DejaVuSansMono-Bold-6c" d="M 1209 1459 
L 1209 4159 
L 281 4159 
L 281 4863 
L 2125 4863 
L 2125 1459 
Q 2125 1047 2253 875 
Q 2381 703 2688 703 
L 3419 703 
L 3419 0 
L 2431 0 
Q 1778 0 1493 337 
Q 1209 675 1209 1459 
z
" transform="scale(0.015625)"/>
      <path id="DejaVuSansMono-Bold-20" transform="scale(0.015625)"/>
      <path id="DejaVuSansMono-Bold-45" d="M 3431 0 
L 525 0 
L 525 4666 
L 3431 4666 
L 3431 3853 
L 1447 3853 
L 1447 2847 
L 3244 2847 
L 3244 2034 
L 1447 2034 
L 1447 813 
L 3431 813 
L 3431 0 
z
" transform="scale(0.015625)"/>
      <path id="DejaVuSansMono-Bold-78" d="M 3578 3500 
L 2400 1825 
L 3681 0 
L 2613 0 
L 1925 1178 
L 1241 0 
L 172 0 
L 1466 1825 
L 275 3500 
L 1344 3500 
L 1925 2456 
L 2509 3500 
L 3578 3500 
z
" transform="scale(0.015625)"/>
      <path id="DejaVuSansMono-Bold-65" d="M 3444 172 
Q 3125 41 2794 -25 
Q 2463 -91 2094 -91 
Q 1216 -91 752 379 
Q 288 850 288 1734 
Q 288 2591 734 3087 
Q 1181 3584 1953 3584 
Q 2731 3584 3161 3123 
Q 3591 2663 3591 1825 
L 3591 1453 
L 1219 1453 
Q 1222 1041 1462 837 
Q 1703 634 2181 634 
Q 2497 634 2803 725 
Q 3109 816 3444 1013 
L 3444 172 
z
M 2669 2141 
Q 2663 2503 2483 2689 
Q 2303 2875 1953 2875 
Q 1638 2875 1450 2683 
Q 1263 2491 1228 2138 
L 2669 2141 
z
" transform="scale(0.015625)"/>
      <path id="DejaVuSansMono-Bold-63" d="M 3316 178 
Q 3084 44 2818 -23 
Q 2553 -91 2247 -91 
Q 1438 -91 981 396 
Q 525 884 525 1747 
Q 525 2613 984 3102 
Q 1444 3591 2253 3591 
Q 2534 3591 2795 3525 
Q 3056 3459 3316 3322 
L 3316 2484 
Q 3116 2656 2877 2748 
Q 2638 2841 2381 2841 
Q 1934 2841 1693 2556 
Q 1453 2272 1453 1747 
Q 1453 1222 1693 940 
Q 1934 659 2381 659 
Q 2647 659 2878 748 
Q 3109 838 3316 1019 
L 3316 178 
z
" transform="scale(0.015625)"/>
      <path id="DejaVuSansMono-Bold-75" d="M 500 1222 
L 500 3500 
L 1416 3500 
L 1416 1363 
Q 1416 984 1522 821 
Q 1628 659 1875 659 
Q 2122 659 2261 878 
Q 2400 1097 2400 1491 
L 2400 3500 
L 3316 3500 
L 3316 0 
L 2400 0 
L 2400 519 
Q 2303 228 2070 68 
Q 1838 -91 1509 -91 
Q 1009 -91 754 240 
Q 500 572 500 1222 
z
" transform="scale(0.015625)"/>
     </defs>
     <use xlink:href="#DejaVuSansMono-Bold-54"/>
     <use xlink:href="#DejaVuSansMono-Bold-72" x="60.205078"/>
     <use xlink:href="#DejaVuSansMono-Bold-61" x="120.410156"/>
     <use xlink:href="#DejaVuSansMono-Bold-64" x="180.615234"/>
     <use xlink:href="#DejaVuSansMono-Bold-69" x="240.820312"/>
     <use xlink:href="#DejaVuSansMono-Bold-74" x="301.025391"/>
     <use xlink:href="#DejaVuSansMono-Bold-69" x="361.230469"/>
     <use xlink:href="#DejaVuSansMono-Bold-6f" x="421.435547"/>
     <use xlink:href="#DejaVuSansMono-Bold-6e" x="481.640625"/>
     <use xlink:href="#DejaVuSansMono-Bold-61" x="541.845703"/>
     <use xlink:href="#DejaVuSansMono-Bold-6c" x="602.050781"/>
     <use xlink:href="#DejaVuSansMono-Bold-20" x="662.255859"/>
     <use xlink:href="#DejaVuSansMono-Bold-45" x="722.460938"/>
     <use xlink:href="#DejaVuSansMono-Bold-78" x="782.666016"/>
     <use xlink:href="#DejaVuSansMono-Bold-65" x="842.871094"/>
     <use xlink:href="#DejaVuSansMono-Bold-63" x="903.076172"/>
     <use xlink:href="#DejaVuSansMono-Bold-75" x="963.28125"/>
     <use xlink:href="#DejaVuSansMono-Bold-74" x="1023.486328"/>
     <use xlink:href="#DejaVuSansMono-Bold-69" x="1083.691406"/>
     <use xlink:href="#DejaVuSansMono-Bold-6f" x="1143.896484"/>
     <use xlink:href="#DejaVuSansMono-Bold-6e" x="1204.101562"/>
    </g>
   </g>
  </g>
  <g id="axes_2">
   <g id="patch_4">
    <path d="M 545.211 467.500037 
L 985.689 467.500037 
Q 993.0303 467.500037 993.0303 460.704437 
L 993.0303 98.272437 
Q 993.0303 91.476837 985.689 91.476837 
L 545.211 91.476837 
Q 537.8697 91.476837 537.8697 98.272437 
L 537.8697 460.704437 
Q 537.8697 467.500037 545.211 467.500037 
z
" clip-path="url(#p36c39fac1a)" style="fill: #0d1117; stroke: #238636; stroke-width: 3; stroke-linejoin: miter"/>
   </g>
   <g id="patch_5">
    <path d="M 545.211 123.189637 
L 985.689 123.189637 
Q 988.1361 123.189637 988.1361 120.924437 
L 988.1361 84.681237 
Q 988.1361 82.416037 985.689 82.416037 
L 545.211 82.416037 
Q 542.7639 82.416037 542.7639 84.681237 
L 542.7639 120.924437 
Q 542.7639 123.189637 545.211 123.189637 
z
" clip-path="url(#p36c39fac1a)" style="fill: #161b22; stroke: #30363d; stroke-linejoin: miter"/>
   </g>
   <g id="patch_6">
    <path d="M 569.682 442.582837 
L 961.218 442.582837 
Q 966.1122 442.582837 966.1122 438.052437 
L 966.1122 383.687637 
Q 966.1122 379.157237 961.218 379.157237 
L 569.682 379.157237 
Q 564.7878 379.157237 564.7878 383.687637 
L 564.7878 438.052437 
Q 564.7878 442.582837 569.682 442.582837 
z
" clip-path="url(#p36c39fac1a)" style="fill: #161b22; stroke: #30363d; stroke-linejoin: miter"/>
   </g>
   <g id="text_8">
    <!-- → Spawning sandbox... -->
    <g style="fill: #8b949e" transform="translate(569.682 197.941237) scale(0.1 -0.1)">
     <defs>
      <path id="DejaVuSansMono-2192" d="M 3647 1625 
L 2738 716 
L 2456 997 
L 2956 1497 
L 206 1497 
L 206 2009 
L 2956 2009 
L 2456 2509 
L 2738 2791 
L 3647 1881 
L 3647 1625 
z
" transform="scale(0.015625)"/>
      <path id="DejaVuSansMono-53" d="M 3163 4506 
L 3163 3866 
Q 2875 4050 2586 4144 
Q 2297 4238 2003 4238 
Q 1556 4238 1297 4030 
Q 1038 3822 1038 3469 
Q 1038 3159 1208 2996 
Q 1378 2834 1844 2725 
L 2175 2650 
Q 2831 2497 3131 2169 
Q 3431 1841 3431 1275 
Q 3431 609 3018 259 
Q 2606 -91 1819 -91 
Q 1491 -91 1159 -20 
Q 828 50 494 191 
L 494 863 
Q 853 634 1173 528 
Q 1494 422 1819 422 
Q 2297 422 2562 636 
Q 2828 850 2828 1234 
Q 2828 1584 2645 1768 
Q 2463 1953 2009 2053 
L 1672 2131 
Q 1022 2278 728 2575 
Q 434 2872 434 3372 
Q 434 3997 854 4373 
Q 1275 4750 1972 4750 
Q 2241 4750 2537 4689 
Q 2834 4628 3163 4506 
z
" transform="scale(0.015625)"/>
      <path id="DejaVuSansMono-70" d="M 1172 441 
L 1172 -1331 
L 594 -1331 
L 594 3500 
L 1172 3500 
L 1172 3053 
Q 1316 3313 1555 3448 
Q 1794 3584 2106 3584 
Q 2741 3584 3102 3093 
Q 3463 2603 3463 1734 
Q 3463 881 3100 395 
Q 2738 -91 2106 -91 
Q 1788 -91 1548 45 
Q 1309 181 1172 441 
z
M 2859 1747 
Q 2859 2416 2648 2756 
Q 2438 3097 2022 3097 
Q 1603 3097 1387 2755 
Q 1172 2413 1172 1747 
Q 1172 1084 1387 740 
Q 1603 397 2022 397 
Q 2438 397 2648 737 
Q 2859 1078 2859 1747 
z
" transform="scale(0.015625)"/>
      <path id="DejaVuSansMono-77" d="M 0 3500 
L 569 3500 
L 1178 672 
L 1678 2478 
L 2169 2478 
L 2675 672 
L 3284 3500 
L 3853 3500 
L 3034 0 
L 2484 0 
L 1925 1919 
L 1369 0 
L 819 0 
L 0 3500 
z
" transform="scale(0.015625)"/>
      <path id="DejaVuSansMono-64" d="M 2681 3053 
L 2681 4863 
L 3256 4863 
L 3256 0 
L 2681 0 
L 2681 441 
Q 2538 181 2298 45 
Q 2059 -91 1747 -91 
Q 1113 -91 748 401 
Q 384 894 384 1759 
Q 384 2613 750 3098 
Q 1116 3584 1747 3584 
Q 2063 3584 2303 3448 
Q 2544 3313 2681 3053 
z
M 991 1747 
Q 991 1078 1203 737 
Q 1416 397 1831 397 
Q 2247 397 2464 740 
Q 2681 1084 2681 1747 
Q 2681 2413 2464 2755 
Q 2247 3097 1831 3097 
Q 1416 3097 1203 2756 
Q 991 2416 991 1747 
z
" transform="scale(0.015625)"/>
      <path id="DejaVuSansMono-62" d="M 2869 1747 
Q 2869 2416 2656 2756 
Q 2444 3097 2028 3097 
Q 1609 3097 1393 2755 
Q 1178 2413 1178 1747 
Q 1178 1084 1393 740 
Q 1609 397 2028 397 
Q 2444 397 2656 737 
Q 2869 1078 2869 1747 
z
M 1178 3053 
Q 1316 3309 1558 3446 
Q 1800 3584 2119 3584 
Q 2750 3584 3112 3098 
Q 3475 2613 3475 1759 
Q 3475 894 3111 401 
Q 2747 -91 2113 -91 
Q 1800 -91 1561 45 
Q 1322 181 1178 441 
L 1178 0 
L 603 0 
L 603 4863 
L 1178 4863 
L 1178 3053 
z
" transform="scale(0.015625)"/>
     </defs>
     <use xlink:href="#DejaVuSansMono-2192"/>
     <use xlink:href="#DejaVuSansMono-20" x="60.205078"/>
     <use xlink:href="#DejaVuSansMono-53" x="120.410156"/>
     <use xlink:href="#DejaVuSansMono-70" x="180.615234"/>
     <use xlink:href="#DejaVuSansMono-61" x="240.820312"/>
     <use xlink:href="#DejaVuSansMono-77" x="301.025391"/>
     <use xlink:href="#DejaVuSansMono-6e" x="361.230469"/>
     <use xlink:href="#DejaVuSansMono-69" x="421.435547"/>
     <use xlink:href="#DejaVuSansMono-6e" x="481.640625"/>
     <use xlink:href="#DejaVuSansMono-67" x="541.845703"/>
     <use xlink:href="#DejaVuSansMono-20" x="602.050781"/>
     <use xlink:href="#DejaVuSansMono-73" x="662.255859"/>
     <use xlink:href="#DejaVuSansMono-61" x="722.460938"/>
     <use xlink:href="#DejaVuSansMono-6e" x="782.666016"/>
     <use xlink:href="#DejaVuSansMono-64" x="842.871094"/>
     <use xlink:href="#DejaVuSansMono-62" x="903.076172"/>
     <use xlink:href="#DejaVuSansMono-6f" x="963.28125"/>
     <use xlink:href="#DejaVuSansMono-78" x="1023.486328"/>
     <use xlink:href="#DejaVuSansMono-2e" x="1083.691406"/>
     <use xlink:href="#DejaVuSansMono-2e" x="1143.896484"/>
     <use xlink:href="#DejaVuSansMono-2e" x="1204.101562"/>
    </g>
   </g>
   <g id="text_9">
    <!-- → Importing tools... -->
    <g style="fill: #8b949e" transform="translate(569.682 234.184437) scale(0.1 -0.1)">
     <defs>
      <path id="DejaVuSansMono-49" d="M 628 4666 
L 3219 4666 
L 3219 4134 
L 2241 4134 
L 2241 531 
L 3219 531 
L 3219 0 
L 628 0 
L 628 531 
L 1606 531 
L 1606 4134 
L 628 4134 
L 628 4666 
z
" transform="scale(0.015625)"/>
     </defs>
     <use xlink:href="#DejaVuSansMono-2192"/>
     <use xlink:href="#DejaVuSansMono-20" x="60.205078"/>
     <use xlink:href="#DejaVuSansMono-49" x="120.410156"/>
     <use xlink:href="#DejaVuSansMono-6d" x="180.615234"/>
     <use xlink:href="#DejaVuSansMono-70" x="240.820312"/>
     <use xlink:href="#DejaVuSansMono-6f" x="301.025391"/>
     <use xlink:href="#DejaVuSansMono-72" x="361.230469"/>
     <use xlink:href="#DejaVuSansMono-74" x="421.435547"/>
     <use xlink:href="#DejaVuSansMono-69" x="481.640625"/>
     <use xlink:href="#DejaVuSansMono-6e" x="541.845703"/>
     <use xlink:href="#DejaVuSansMono-67" x="602.050781"/>
     <use xlink:href="#DejaVuSansMono-20" x="662.255859"/>
     <use xlink:href="#DejaVuSansMono-74" x="722.460938"/>
     <use xlink:href="#DejaVuSansMono-6f" x="782.666016"/>
     <use xlink:href="#DejaVuSansMono-6f" x="842.871094"/>
     <use xlink:href="#DejaVuSansMono-6c" x="903.076172"/>
     <use xlink:href="#DejaVuSansMono-73" x="963.28125"/>
     <use xlink:href="#DejaVuSansMono-2e" x="1023.486328"/>
     <use xlink:href="#DejaVuSansMono-2e" x="1083.691406"/>
     <use xlink:href="#DejaVuSansMono-2e" x="1143.896484"/>
    </g>
   </g>
   <g id="text_10">
    <!-- → Executing: sum([10, 20, 30, 40, 50]) -->
    <g style="fill: #58a6ff" transform="translate(569.682 270.427637) scale(0.1 -0.1)">
     <defs>
      <path id="DejaVuSansMono-28" d="M 2766 4856 
Q 2350 4144 2145 3436 
Q 1941 2728 1941 2009 
Q 1941 1294 2145 584 
Q 2350 -125 2766 -844 
L 2266 -844 
Q 1794 -100 1562 604 
Q 1331 1309 1331 2009 
Q 1331 2706 1562 3412 
Q 1794 4119 2266 4856 
L 2766 4856 
z
" transform="scale(0.015625)"/>
      <path id="DejaVuSansMono-5b" d="M 1447 4863 
L 2772 4863 
L 2772 4416 
L 2022 4416 
L 2022 -397 
L 2772 -397 
L 2772 -844 
L 1447 -844 
L 1447 4863 
z
" transform="scale(0.015625)"/>
      <path id="DejaVuSansMono-31" d="M 844 531 
L 1825 531 
L 1825 4097 
L 769 3859 
L 769 4434 
L 1819 4666 
L 2450 4666 
L 2450 531 
L 3419 531 
L 3419 0 
L 844 0 
L 844 531 
z
" transform="scale(0.015625)"/>
      <path id="DejaVuSansMono-2c" d="M 1569 947 
L 2356 947 
L 2356 300 
L 1741 -897 
L 1259 -897 
L 1569 300 
L 1569 947 
z
" transform="scale(0.015625)"/>
      <path id="DejaVuSansMono-32" d="M 1166 531 
L 3309 531 
L 3309 0 
L 475 0 
L 475 531 
Q 1059 1147 1496 1619 
Q 1934 2091 2100 2284 
Q 2413 2666 2522 2902 
Q 2631 3138 2631 3384 
Q 2631 3775 2401 3997 
Q 2172 4219 1772 4219 
Q 1488 4219 1175 4116 
Q 863 4013 513 3803 
L 513 4441 
Q 834 4594 1145 4672 
Q 1456 4750 1759 4750 
Q 2444 4750 2861 4386 
Q 3278 4022 3278 3431 
Q 3278 3131 3139 2831 
Q 3000 2531 2688 2169 
Q 2513 1966 2180 1606 
Q 1847 1247 1166 531 
z
" transform="scale(0.015625)"/>
      <path id="DejaVuSansMono-34" d="M 2297 4091 
L 825 1625 
L 2297 1625 
L 2297 4091 
z
M 2194 4666 
L 2925 4666 
L 2925 1625 
L 3547 1625 
L 3547 1113 
L 2925 1113 
L 2925 0 
L 2297 0 
L 2297 1113 
L 319 1113 
L 319 1709 
L 2194 4666 
z
" transform="scale(0.015625)"/>
      <path id="DejaVuSansMono-35" d="M 647 4666 
L 3009 4666 
L 3009 4134 
L 1222 4134 
L 1222 2988 
Q 1356 3038 1492 3061 
Q 1628 3084 1766 3084 
Q 2491 3084 2916 2656 
Q 3341 2228 3341 1497 
Q 3341 759 2895 334 
Q 2450 -91 1678 -91 
Q 1306 -91 998 -41 
Q 691 9 447 109 
L 447 750 
Q 734 594 1025 517 
Q 1316 441 1619 441 
Q 2141 441 2423 716 
Q 2706 991 2706 1497 
Q 2706 1997 2414 2275 
Q 2122 2553 1600 2553 
Q 1347 2553 1106 2495 
Q 866 2438 647 2322 
L 647 4666 
z
" transform="scale(0.015625)"/>
      <path id="DejaVuSansMono-5d" d="M 2406 4863 
L 2406 -844 
L 1081 -844 
L 1081 -397 
L 1831 -397 
L 1831 4416 
L 1081 4416 
L 1081 4863 
L 2406 4863 
z
" transform="scale(0.015625)"/>
      <path id="DejaVuSansMono-29" d="M 1088 4856 
L 1588 4856 
Q 2059 4119 2290 3412 
Q 2522 2706 2522 2009 
Q 2522 1306 2290 600 
Q 2059 -106 1588 -844 
L 1088 -844 
Q 1503 -119 1708 590 
Q 1913 1300 1913 2009 
Q 1913 2722 1708 3431 
Q 1503 4141 1088 4856 
z
" transform="scale(0.015625)"/>
     </defs>
     <use xlink:href="#DejaVuSansMono-2192"/>
     <use xlink:href="#DejaVuSansMono-20" x="60.205078"/>
     <use xlink:href="#DejaVuSansMono-45" x="120.410156"/>
     <use xlink:href="#DejaVuSansMono-78" x="180.615234"/>
     <use xlink:href="#DejaVuSansMono-65" x="240.820312"/>
     <use xlink:href="#DejaVuSansMono-63" x="301.025391"/>
     <use xlink:href="#DejaVuSansMono-75" x="361.230469"/>
     <use xlink:href="#DejaVuSansMono-74" x="421.435547"/>
     <use xlink:href="#DejaVuSansMono-69" x="481.640625"/>
     <use xlink:href="#DejaVuSansMono-6e" x="541.845703"/>
     <use xlink:href="#DejaVuSansMono-67" x="602.050781"/>
     <use xlink:href="#DejaVuSansMono-3a" x="662.255859"/>
     <use xlink:href="#DejaVuSansMono-20" x="722.460938"/>
     <use xlink:href="#DejaVuSansMono-73" x="782.666016"/>
     <use xlink:href="#DejaVuSansMono-75" x="842.871094"/>
     <use xlink:href="#DejaVuSansMono-6d" x="903.076172"/>
     <use xlink:href="#DejaVuSansMono-28" x="963.28125"/>
     <use xlink:href="#DejaVuSansMono-5b" x="1023.486328"/>
     <use xlink:href="#DejaVuSansMono-31" x="1083.691406"/>
     <use xlink:href="#DejaVuSansMono-30" x="1143.896484"/>
     <use xlink:href="#DejaVuSansMono-2c" x="1204.101562"/>
     <use xlink:href="#DejaVuSansMono-20" x="1264.306641"/>
     <use xlink:href="#DejaVuSansMono-32" x="1324.511719"/>
     <use xlink:href="#DejaVuSansMono-30" x="1384.716797"/>
     <use xlink:href="#DejaVuSansMono-2c" x="1444.921875"/>
     <use xlink:href="#DejaVuSansMono-20" x="1505.126953"/>
     <use xlink:href="#DejaVuSansMono-33" x="1565.332031"/>
     <use xlink:href="#DejaVuSansMono-30" x="1625.537109"/>
     <use xlink:href="#DejaVuSansMono-2c" x="1685.742188"/>
     <use xlink:href="#DejaVuSansMono-20" x="1745.947266"/>
     <use xlink:href="#DejaVuSansMono-34" x="1806.152344"/>
     <use xlink:href="#DejaVuSansMono-30" x="1866.357422"/>
     <use xlink:href="#DejaVuSansMono-2c" x="1926.5625"/>
     <use xlink:href="#DejaVuSansMono-20" x="1986.767578"/>
     <use xlink:href="#DejaVuSansMono-35" x="2046.972656"/>
     <use xlink:href="#DejaVuSansMono-30" x="2107.177734"/>
     <use xlink:href="#DejaVuSansMono-5d" x="2167.382812"/>
     <use xlink:href="#DejaVuSansMono-29" x="2227.587891"/>
    </g>
   </g>
   <g id="text_11">
    <!-- → Result: 150 -->
    <g style="fill: #3fb950" transform="translate(569.682 306.670837) scale(0.1 -0.1)">
     <defs>
      <path id="DejaVuSansMono-52" d="M 2375 2203 
Q 2619 2141 2791 1967 
Q 2963 1794 3219 1275 
L 3853 0 
L 3175 0 
L 2619 1178 
Q 2378 1681 2186 1826 
Q 1994 1972 1684 1972 
L 1081 1972 
L 1081 0 
L 447 0 
L 447 4666 
L 1747 4666 
Q 2516 4666 2925 4319 
Q 3334 3972 3334 3316 
Q 3334 2853 3082 2561 
Q 2831 2269 2375 2203 
z
M 1081 4147 
L 1081 2491 
L 1772 2491 
Q 2225 2491 2447 2694 
Q 2669 2897 2669 3316 
Q 2669 3719 2433 3933 
Q 2197 4147 1747 4147 
L 1081 4147 
z
" transform="scale(0.015625)"/>
     </defs>
     <use xlink:href="#DejaVuSansMono-2192"/>
     <use xlink:href="#DejaVuSansMono-20" x="60.205078"/>
     <use xlink:href="#DejaVuSansMono-52" x="120.410156"/>
     <use xlink:href="#DejaVuSansMono-65" x="180.615234"/>
     <use xlink:href="#DejaVuSansMono-73" x="240.820312"/>
     <use xlink:href="#DejaVuSansMono-75" x="301.025391"/>
     <use xlink:href="#DejaVuSansMono-6c" x="361.230469"/>
     <use xlink:href="#DejaVuSansMono-74" x="421.435547"/>
     <use xlink:href="#DejaVuSansMono-3a" x="481.640625"/>
     <use xlink:href="#DejaVuSansMono-20" x="541.845703"/>
     <use xlink:href="#DejaVuSansMono-31" x="602.050781"/>
     <use xlink:href="#DejaVuSansMono-35" x="662.255859"/>
     <use xlink:href="#DejaVuSansMono-30" x="722.460938"/>
    </g>
   </g>
   <g id="text_12">
    <!-- ✓ Complete in 1.28s -->
    <g style="fill: #3fb950" transform="translate(569.682 342.914037) scale(0.1 -0.1)">
     <defs>
      <path id="DejaVuSansMono-2713" d="M 875 1850 
Q 981 1850 1038 1675 
Q 1147 1344 1194 1344 
Q 1231 1344 1269 1400 
Q 2034 2631 2691 3391 
Q 2859 3588 3228 3588 
Q 3316 3588 3345 3572 
Q 3375 3556 3375 3531 
Q 3375 3491 3284 3381 
Q 2228 2113 1328 700 
Q 1266 600 1072 600 
Q 875 600 838 619 
Q 744 659 619 1038 
Q 478 1456 478 1563 
Q 478 1675 669 1781 
Q 784 1850 875 1850 
z
" transform="scale(0.015625)"/>
      <path id="DejaVuSansMono-43" d="M 3353 166 
Q 3113 38 2859 -26 
Q 2606 -91 2322 -91 
Q 1425 -91 929 543 
Q 434 1178 434 2328 
Q 434 3472 932 4111 
Q 1431 4750 2322 4750 
Q 2606 4750 2859 4686 
Q 3113 4622 3353 4494 
L 3353 3847 
Q 3122 4038 2856 4138 
Q 2591 4238 2322 4238 
Q 1706 4238 1400 3763 
Q 1094 3288 1094 2328 
Q 1094 1372 1400 897 
Q 1706 422 2322 422 
Q 2597 422 2861 522 
Q 3125 622 3353 813 
L 3353 166 
z
" transform="scale(0.015625)"/>
      <path id="DejaVuSansMono-38" d="M 1925 2216 
Q 1503 2216 1273 1980 
Q 1044 1744 1044 1313 
Q 1044 881 1276 642 
Q 1509 403 1925 403 
Q 2350 403 2579 639 
Q 2809 875 2809 1313 
Q 2809 1741 2576 1978 
Q 2344 2216 1925 2216 
z
M 1375 2478 
Q 972 2581 745 2862 
Q 519 3144 519 3541 
Q 519 4097 897 4423 
Q 1275 4750 1925 4750 
Q 2578 4750 2956 4423 
Q 3334 4097 3334 3541 
Q 3334 3144 3107 2862 
Q 2881 2581 2478 2478 
Q 2947 2375 3195 2062 
Q 3444 1750 3444 1253 
Q 3444 622 3041 265 
Q 2638 -91 1925 -91 
Q 1213 -91 811 264 
Q 409 619 409 1247 
Q 409 1747 657 2061 
Q 906 2375 1375 2478 
z
M 1147 3481 
Q 1147 3106 1347 2909 
Q 1547 2713 1925 2713 
Q 2306 2713 2506 2909 
Q 2706 3106 2706 3481 
Q 2706 3863 2507 4063 
Q 2309 4263 1925 4263 
Q 1547 4263 1347 4061 
Q 1147 3859 1147 3481 
z
" transform="scale(0.015625)"/>
     </defs>
     <use xlink:href="#DejaVuSansMono-2713"/>
     <use xlink:href="#DejaVuSansMono-20" x="60.205078"/>
     <use xlink:href="#DejaVuSansMono-43" x="120.410156"/>
     <use xlink:href="#DejaVuSansMono-6f" x="180.615234"/>
     <use xlink:href="#DejaVuSansMono-6d" x="240.820312"/>
     <use xlink:href="#DejaVuSansMono-70" x="301.025391"/>
     <use xlink:href="#DejaVuSansMono-6c" x="361.230469"/>
     <use xlink:href="#DejaVuSansMono-65" x="421.435547"/>
     <use xlink:href="#DejaVuSansMono-74" x="481.640625"/>
     <use xlink:href="#DejaVuSansMono-65" x="541.845703"/>
     <use xlink:href="#DejaVuSansMono-20" x="602.050781"/>
     <use xlink:href="#DejaVuSansMono-69" x="662.255859"/>
     <use xlink:href="#DejaVuSansMono-6e" x="722.460938"/>
     <use xlink:href="#DejaVuSansMono-20" x="782.666016"/>
     <use xlink:href="#DejaVuSansMono-31" x="842.871094"/>
     <use xlink:href="#DejaVuSansMono-2e" x="903.076172"/>
     <use xlink:href="#DejaVuSansMono-32" x="963.28125"/>
     <use xlink:href="#DejaVuSansMono-38" x="1023.486328"/>
     <use xlink:href="#DejaVuSansMono-73" x="1083.691406"/>
    </g>
   </g>
   <g id="text_13">
    <!-- Real-time visibility • Progress tracking • Partial results -->
    <g style="fill: #3fb950" transform="translate(608.319844 397.278837) scale(0.09 -0.09)">
     <defs>
      <path id="DejaVuSansMono-2d" d="M 1113 2009 
L 2741 2009 
L 2741 1497 
L 1113 1497 
L 1113 2009 
z
" transform="scale(0.015625)"/>
      <path id="DejaVuSansMono-76" d="M 313 3500 
L 909 3500 
L 1925 563 
L 2944 3500 
L 3541 3500 
L 2297 0 
L 1556 0 
L 313 3500 
z
" transform="scale(0.015625)"/>
      <path id="DejaVuSansMono-79" d="M 2681 1125 
Q 2538 759 2316 163 
Q 2006 -663 1900 -844 
Q 1756 -1088 1540 -1209 
Q 1325 -1331 1038 -1331 
L 575 -1331 
L 575 -850 
L 916 -850 
Q 1169 -850 1312 -703 
Q 1456 -556 1678 56 
L 325 3500 
L 934 3500 
L 1972 763 
L 2994 3500 
L 3603 3500 
L 2681 1125 
z
" transform="scale(0.015625)"/>
      <path id="DejaVuSansMono-2022" d="M 997 2381 
Q 997 2769 1265 3036 
Q 1534 3303 1925 3303 
Q 2313 3303 2583 3034 
Q 2853 2766 2853 2381 
Q 2853 1994 2581 1723 
Q 2309 1453 1919 1453 
Q 1531 1453 1264 1720 
Q 997 1988 997 2381 
z
" transform="scale(0.015625)"/>
      <path id="DejaVuSansMono-50" d="M 1247 4147 
L 1247 2394 
L 1978 2394 
Q 2416 2394 2661 2625 
Q 2906 2856 2906 3272 
Q 2906 3688 2662 3917 
Q 2419 4147 1978 4147 
L 1247 4147 
z
M 616 4666 
L 1978 4666 
Q 2759 4666 3162 4311 
Q 3566 3956 3566 3272 
Q 3566 2581 3164 2228 
Q 2763 1875 1978 1875 
L 1247 1875 
L 1247 0 
L 616 0 
L 616 4666 
z
" transform="scale(0.015625)"/>
     </defs>
     <use xlink:href="#DejaVuSansMono-52"/>
     <use xlink:href="#DejaVuSansMono-65" x="60.205078"/>
     <use xlink:href="#DejaVuSansMono-61" x="120.410156"/>
     <use xlink:href="#DejaVuSansMono-6c" x="180.615234"/>
     <use xlink:href="#DejaVuSansMono-2d" x="240.820312"/>
     <use xlink:href="#DejaVuSansMono-74" x="301.025391"/>
     <use xlink:href="#DejaVuSansMono-69" x="361.230469"/>
     <use xlink:href="#DejaVuSansMono-6d" x="421.435547"/>
     <use xlink:href="#DejaVuSansMono-65" x="481.640625"/>
     <use xlink:href="#DejaVuSansMono-20" x="541.845703"/>
     <use xlink:href="#DejaVuSansMono-76" x="602.050781"/>
     <use xlink:href="#DejaVuSansMono-69" x="662.255859"/>
     <use xlink:href="#DejaVuSansMono-73" x="722.460938"/>
     <use xlink:href="#DejaVuSansMono-69" x="782.666016"/>
     <use xlink:href="#DejaVuSansMono-62" x="842.871094"/>
     <use xlink:href="#DejaVuSansMono-69" x="903.076172"/>
     <use xlink:href="#DejaVuSansMono-6c" x="963.28125"/>
     <use xlink:href="#DejaVuSansMono-69" x="1023.486328"/>
     <use xlink:href="#DejaVuSansMono-74" x="1083.691406"/>
     <use xlink:href="#DejaVuSansMono-79" x="1143.896484"/>
     <use xlink:href="#DejaVuSansMono-20" x="1204.101562"/>
     <use xlink:href="#DejaVuSansMono-2022" x="1264.306641"/>
     <use xlink:href="#DejaVuSansMono-20" x="1324.511719"/>
     <use xlink:href="#DejaVuSansMono-50" x="1384.716797"/>
     <use xlink:href="#DejaVuSansMono-72" x="1444.921875"/>
     <use xlink:href="#DejaVuSansMono-6f" x="1505.126953"/>
     <use xlink:href="#DejaVuSansMono-67" x="1565.332031"/>
     <use xlink:href="#DejaVuSansMono-72" x="1625.537109"/>
     <use xlink:href="#DejaVuSansMono-65" x="1685.742188"/>
     <use xlink:href="#DejaVuSansMono-73" x="1745.947266"/>
     <use xlink:href="#DejaVuSansMono-73" x="1806.152344"/>
     <use xlink:href="#DejaVuSansMono-20" x="1866.357422"/>
     <use xlink:href="#DejaVuSansMono-74" x="1926.5625"/>
     <use xlink:href="#DejaVuSansMono-72" x="1986.767578"/>
     <use xlink:href="#DejaVuSansMono-61" x="2046.972656"/>
     <use xlink:href="#DejaVuSansMono-63" x="2107.177734"/>
     <use xlink:href="#DejaVuSansMono-6b" x="2167.382812"/>
     <use xlink:href="#DejaVuSansMono-69" x="2227.587891"/>
     <use xlink:href="#DejaVuSansMono-6e" x="2287.792969"/>
     <use xlink:href="#DejaVuSansMono-67" x="2347.998047"/>
     <use xlink:href="#DejaVuSansMono-20" x="2408.203125"/>
     <use xlink:href="#DejaVuSansMono-2022" x="2468.408203"/>
     <use xlink:href="#DejaVuSansMono-20" x="2528.613281"/>
     <use xlink:href="#DejaVuSansMono-50" x="2588.818359"/>
     <use xlink:href="#DejaVuSansMono-61" x="2649.023438"/>
     <use xlink:href="#DejaVuSansMono-72" x="2709.228516"/>
     <use xlink:href="#DejaVuSansMono-74" x="2769.433594"/>
     <use xlink:href="#DejaVuSansMono-69" x="2829.638672"/>
     <use xlink:href="#DejaVuSansMono-61" x="2889.84375"/>
     <use xlink:href="#DejaVuSansMono-6c" x="2950.048828"/>
     <use xlink:href="#DejaVuSansMono-20" x="3010.253906"/>
     <use xlink:href="#DejaVuSansMono-72" x="3070.458984"/>
     <use xlink:href="#DejaVuSansMono-65" x="3130.664062"/>
     <use xlink:href="#DejaVuSansMono-73" x="3190.869141"/>
     <use xlink:href="#DejaVuSansMono-75" x="3251.074219"/>
     <use xlink:href="#DejaVuSansMono-6c" x="3311.279297"/>
     <use xlink:href="#DejaVuSansMono-74" x="3371.484375"/>
     <use xlink:href="#DejaVuSansMono-73" x="3431.689453"/>
    </g>
   </g>
   <g id="text_14">
    <!-- Tokens: 142 | Cost: $0.003 | Latency: 1.28s -->
    <g style="fill: #8b949e" transform="translate(661.900625 419.930837) scale(0.08 -0.08)">
     <defs>
      <path id="DejaVuSansMono-7c" d="M 2194 4891 
L 2194 -1509 
L 1656 -1509 
L 1656 4891 
L 2194 4891 
z
" transform="scale(0.015625)"/>
      <path id="DejaVuSansMono-24" d="M 2163 1813 
L 2163 456 
Q 2506 466 2700 647 
Q 2894 828 2894 1141 
Q 2894 1431 2719 1592 
Q 2544 1753 2163 1813 
z
M 1850 2406 
L 1850 3697 
Q 1525 3684 1342 3509 
Q 1159 3334 1159 3041 
Q 1159 2772 1329 2615 
Q 1500 2459 1850 2406 
z
M 2163 -941 
L 1850 -941 
L 1847 0 
Q 1528 16 1214 87 
Q 900 159 594 288 
L 594 850 
Q 906 656 1223 553 
Q 1541 450 1850 444 
L 1850 1875 
Q 1225 1972 909 2256 
Q 594 2541 594 3009 
Q 594 3500 923 3792 
Q 1253 4084 1850 4128 
L 1850 4863 
L 2163 4863 
L 2166 4128 
Q 2413 4113 2666 4066 
Q 2919 4019 3181 3938 
L 3181 3397 
Q 2916 3531 2664 3604 
Q 2413 3678 2163 3691 
L 2163 2344 
Q 2806 2247 3143 1944 
Q 3481 1641 3481 1159 
Q 3481 678 3117 356 
Q 2753 34 2166 6 
L 2163 -941 
z
" transform="scale(0.015625)"/>
      <path id="DejaVuSansMono-4c" d="M 672 4666 
L 1306 4666 
L 1306 531 
L 3559 531 
L 3559 0 
L 672 0 
L 672 4666 
z
" transform="scale(0.015625)"/>
     </defs>
     <use xlink:href="#DejaVuSansMono-54"/>
     <use xlink:href="#DejaVuSansMono-6f" x="60.205078"/>
     <use xlink:href="#DejaVuSansMono-6b" x="120.410156"/>
     <use xlink:href="#DejaVuSansMono-65" x="180.615234"/>
     <use xlink:href="#DejaVuSansMono-6e" x="240.820312"/>
     <use xlink:href="#DejaVuSansMono-73" x="301.025391"/>
     <use xlink:href="#DejaVuSansMono-3a" x="361.230469"/>
     <use xlink:href="#DejaVuSansMono-20" x="421.435547"/>
     <use xlink:href="#DejaVuSansMono-31" x="481.640625"/>
     <use xlink:href="#DejaVuSansMono-34" x="541.845703"/>
     <use xlink:href="#DejaVuSansMono-32" x="602.050781"/>
     <use xlink:href="#DejaVuSansMono-20" x="662.255859"/>
     <use xlink:href="#DejaVuSansMono-7c" x="722.460938"/>
     <use xlink:href="#DejaVuSansMono-20" x="782.666016"/>
     <use xlink:href="#DejaVuSansMono-43" x="842.871094"/>
     <use xlink:href="#DejaVuSansMono-6f" x="903.076172"/>
     <use xlink:href="#DejaVuSansMono-73" x="963.28125"/>
     <use xlink:href="#DejaVuSansMono-74" x="1023.486328"/>
     <use xlink:href="#DejaVuSansMono-3a" x="1083.691406"/>
     <use xlink:href="#DejaVuSansMono-20" x="1143.896484"/>
     <use xlink:href="#DejaVuSansMono-24" x="1204.101562"/>
     <use xlink:href="#DejaVuSansMono-30" x="1264.306641"/>
     <use xlink:href="#DejaVuSansMono-2e" x="1324.511719"/>
     <use xlink:href="#DejaVuSansMono-30" x="1384.716797"/>
     <use xlink:href="#DejaVuSansMono-30" x="1444.921875"/>
     <use xlink:href="#DejaVuSansMono-33" x="1505.126953"/>
     <use xlink:href="#DejaVuSansMono-20" x="1565.332031"/>
     <use xlink:href="#DejaVuSansMono-7c" x="1625.537109"/>
     <use xlink:href="#DejaVuSansMono-20" x="1685.742188"/>
     <use xlink:href="#DejaVuSansMono-4c" x="1745.947266"/>
     <use xlink:href="#DejaVuSansMono-61" x="1806.152344"/>
     <use xlink:href="#DejaVuSansMono-74" x="1866.357422"/>
     <use xlink:href="#DejaVuSansMono-65" x="1926.5625"/>
     <use xlink:href="#DejaVuSansMono-6e" x="1986.767578"/>
     <use xlink:href="#DejaVuSansMono-63" x="2046.972656"/>
     <use xlink:href="#DejaVuSansMono-79" x="2107.177734"/>
     <use xlink:href="#DejaVuSansMono-3a" x="2167.382812"/>
     <use xlink:href="#DejaVuSansMono-20" x="2227.587891"/>
     <use xlink:href="#DejaVuSansMono-31" x="2287.792969"/>
     <use xlink:href="#DejaVuSansMono-2e" x="2347.998047"/>
     <use xlink:href="#DejaVuSansMono-32" x="2408.203125"/>
     <use xlink:href="#DejaVuSansMono-38" x="2468.408203"/>
     <use xlink:href="#DejaVuSansMono-73" x="2528.613281"/>
    </g>
   </g>
   <g id="text_15">
    <!-- Streaming Execution -->
    <g style="fill: #238636" transform="translate(685.379844 32.968437) scale(0.14 -0.14)">
     <defs>
      <path id="DejaVuSansMono-Bold-53" d="M 1594 2047 
Q 897 2313 650 2605 
Q 403 2897 403 3391 
Q 403 4025 809 4387 
Q 1216 4750 1925 4750 
Q 2247 4750 2569 4676 
Q 2891 4603 3206 4459 
L 3206 3559 
Q 2909 3769 2603 3878 
Q 2297 3988 1997 3988 
Q 1663 3988 1484 3853 
Q 1306 3719 1306 3469 
Q 1306 3275 1436 3148 
Q 1566 3022 1978 2869 
L 2375 2719 
Q 2938 2513 3203 2172 
Q 3469 1831 3469 1313 
Q 3469 606 3051 257 
Q 2634 -91 1791 -91 
Q 1444 -91 1095 -8 
Q 747 75 422 238 
L 422 1191 
Q 791 928 1136 800 
Q 1481 672 1819 672 
Q 2159 672 2346 826 
Q 2534 981 2534 1259 
Q 2534 1469 2409 1626 
Q 2284 1784 2047 1875 
L 1594 2047 
z
" transform="scale(0.015625)"/>
      <path id="DejaVuSansMono-Bold-6d" d="M 2156 3150 
Q 2259 3372 2418 3478 
Q 2578 3584 2809 3584 
Q 3263 3584 3436 3271 
Q 3609 2959 3609 1972 
L 3609 0 
L 2859 0 
L 2859 2247 
Q 2859 2638 2800 2769 
Q 2741 2900 2584 2900 
Q 2428 2900 2365 2765 
Q 2303 2631 2303 2247 
L 2303 0 
L 1563 0 
L 1563 2247 
Q 1563 2631 1500 2765 
Q 1438 2900 1281 2900 
Q 1125 2900 1065 2769 
Q 1006 2638 1006 2247 
L 1006 0 
L 256 0 
L 256 3500 
L 922 3500 
L 922 3138 
Q 1000 3344 1172 3464 
Q 1344 3584 1556 3584 
Q 1769 3584 1944 3457 
Q 2119 3331 2156 3150 
z
" transform="scale(0.015625)"/>
      <path id="DejaVuSansMono-Bold-67" d="M 2509 1806 
Q 2509 2275 2331 2558 
Q 2153 2841 1863 2841 
Q 1575 2841 1398 2559 
Q 1222 2278 1222 1806 
Q 1222 1331 1398 1050 
Q 1575 769 1863 769 
Q 2153 769 2331 1051 
Q 2509 1334 2509 1806 
z
M 3425 263 
Q 3425 -578 3045 -951 
Q 2666 -1325 1813 -1325 
Q 1525 -1325 1244 -1283 
Q 963 -1241 672 -1153 
L 672 -313 
Q 931 -456 1200 -525 
Q 1469 -594 1753 -594 
Q 2141 -594 2325 -411 
Q 2509 -228 2509 159 
L 2509 538 
Q 2375 288 2153 166 
Q 1931 44 1613 44 
Q 1013 44 659 512 
Q 306 981 306 1784 
Q 306 2616 659 3103 
Q 1013 3591 1606 3591 
Q 1906 3591 2140 3450 
Q 2375 3309 2509 3053 
L 2509 3500 
L 3425 3500 
L 3425 263 
z
" transform="scale(0.015625)"/>
     </defs>
     <use xlink:href="#DejaVuSansMono-Bold-53"/>
     <use xlink:href="#DejaVuSansMono-Bold-74" x="60.205078"/>
     <use xlink:href="#DejaVuSansMono-Bold-72" x="120.410156"/>
     <use xlink:href="#DejaVuSansMono-Bold-65" x="180.615234"/>
     <use xlink:href="#DejaVuSansMono-Bold-61" x="240.820312"/>
     <use xlink:href="#DejaVuSansMono-Bold-6d" x="301.025391"/>
     <use xlink:href="#DejaVuSansMono-Bold-69" x="361.230469"/>
     <use xlink:href="#DejaVuSansMono-Bold-6e" x="421.435547"/>
     <use xlink:href="#DejaVuSansMono-Bold-67" x="481.640625"/>
     <use xlink:href="#DejaVuSansMono-Bold-20" x="541.845703"/>
     <use xlink:href="#DejaVuSansMono-Bold-45" x="602.050781"/>
     <use xlink:href="#DejaVuSansMono-Bold-78" x="662.255859"/>
     <use xlink:href="#DejaVuSansMono-Bold-65" x="722.460938"/>
     <use xlink:href="#DejaVuSansMono-Bold-63" x="782.666016"/>
     <use xlink:href="#DejaVuSansMono-Bold-75" x="842.871094"/>
     <use xlink:href="#DejaVuSansMono-Bold-74" x="903.076172"/>
     <use xlink:href="#DejaVuSansMono-Bold-69" x="963.28125"/>
     <use xlink:href="#DejaVuSansMono-Bold-6f" x="1023.486328"/>
     <use xlink:href="#DejaVuSansMono-Bold-6e" x="1083.691406"/>
    </g>
   </g>
  </g>
 </g>
 <defs>
  <clipPath id="p712b6b7a3c">
   <rect x="21.6" y="52.968437" width="489.42" height="453.04"/>
  </clipPath>
  <clipPath id="p36c39fac1a">
   <rect x="520.74" y="52.968437" width="489.42" height="453.04"/>
  </clipPath>
 </defs>
</svg>
